<?xml version="1.0" standalone="no"?>
<!DOCTYPE svg PUBLIC "-//W3C//DTD SVG 1.1//EN" "http://www.w3.org/Graphics/SVG/1.1/DTD/svg11.dtd" >
<svg xmlns="http://www.w3.org/2000/svg" xmlns:xlink="http://www.w3.org/1999/xlink" version="1.1">
<metadata>
Created by FontForge 20201107 at Wed Mar  2 21:02:54 2022
 By 
Copyright (c) 2022 by Eduardo Manso. All rights reserved.
</metadata>
<defs>
<font id="Webfont" horiz-adv-x="600" >
  <font-face 
    font-family="Web use ONLY | Copyright C Emtype Foundry | emtype.net"
    font-weight="500"
    font-stretch="normal"
    units-per-em="1000"
    panose-1="2 11 6 3 4 5 1 6 1 4"
    ascent="800"
    descent="-200"
    x-height="509"
    cap-height="703"
    bbox="-238 -275 1423 960"
    underline-thickness="74"
    underline-position="-162"
    unicode-range="U+000D-FF19"
  />
<missing-glyph horiz-adv-x="816" 
d="M759 352q0 -145 -103 -248.5t-247 -103.5q-145 0 -248.5 103.5t-103.5 248.5t103.5 248t248.5 103q144 0 247 -103t103 -248zM77 352q0 -137 97.5 -234.5t234.5 -97.5q136 0 233 97.5t97 234.5q0 136 -97 233.5t-233 97.5q-137 0 -234.5 -97.5t-97.5 -233.5zM582 213h-77
l-99 99l-97 -98h-77l135 138l-132 135h77l94 -95l96 97h78l-135 -137z" />
    <glyph glyph-name="fi" unicode="fi" horiz-adv-x="625" 
d="M568 670q0 -30 -21.5 -51t-52.5 -21t-52 21t-21 51t21 51t52 21t52.5 -21t21.5 -51zM227 550v-41h122v-94h-122v-415h-114v415h-90v94h90v47q0 82 48.5 125.5t141.5 43.5h62v-95h-61q-39 0 -58 -19t-19 -61zM551 0h-114v509h114v-509z" />
    <glyph glyph-name="fl" unicode="fl" horiz-adv-x="625" 
d="M227 550v-41h122v-94h-122v-415h-114v415h-90v94h90v47q0 82 48.5 125.5t141.5 43.5h62v-95h-61q-39 0 -58 -19t-19 -61zM551 0h-114v725h114v-725z" />
    <glyph glyph-name=".notdef" horiz-adv-x="816" 
d="M759 352q0 -145 -103 -248.5t-247 -103.5q-145 0 -248.5 103.5t-103.5 248.5t103.5 248t248.5 103q144 0 247 -103t103 -248zM77 352q0 -137 97.5 -234.5t234.5 -97.5q136 0 233 97.5t97 234.5q0 136 -97 233.5t-233 97.5q-137 0 -234.5 -97.5t-97.5 -233.5zM582 213h-77
l-99 99l-97 -98h-77l135 138l-132 135h77l94 -95l96 97h78l-135 -137z" />
    <glyph glyph-name=".null" horiz-adv-x="0" 
 />
    <glyph glyph-name="nonmarkingreturn" horiz-adv-x="333" 
 />
    <glyph glyph-name="NULL" horiz-adv-x="0" 
 />
    <glyph glyph-name="NULL" horiz-adv-x="0" 
 />
    <glyph glyph-name="CR" unicode="&#xd;" horiz-adv-x="237" 
 />
    <glyph glyph-name="space" unicode=" " horiz-adv-x="237" 
 />
    <glyph glyph-name="exclam" unicode="!" horiz-adv-x="266" 
d="M175 221h-83l-20 325v157h122v-157zM211 64q0 -31 -23 -53.5t-55 -22.5t-54.5 22.5t-22.5 53.5q0 33 22 55t55 22t55.5 -22.5t22.5 -54.5z" />
    <glyph glyph-name="quotedbl" unicode="&#x22;" horiz-adv-x="407" 
d="M169 703l-6 -249h-102l-6 249h114zM352 703l-6 -249h-102l-6 249h114z" />
    <glyph glyph-name="numbersign" unicode="#" horiz-adv-x="651" 
d="M193 0h-98l44 205h-103l20 86h102l27 123h-115l19 86h115l45 203h98l-45 -203h113l44 203h99l-45 -203h104l-19 -86h-103l-28 -123h116l-19 -86h-115l-45 -205h-99l45 205h-112zM284 414l-28 -123h113l27 123h-112z" />
    <glyph glyph-name="dollar" unicode="$" horiz-adv-x="589" 
d="M349 -133h-107v127q-89 15 -141.5 76.5t-62.5 164.5l118 25q13 -89 49 -130.5t102 -41.5q57 0 89 27t32 76q0 40 -26 65.5t-80 38.5l-56 13q-99 23 -149 74.5t-50 129.5q0 76 47.5 129.5t127.5 68.5v115h107v-114q78 -14 125.5 -64.5t60.5 -133.5l-119 -21
q-10 63 -40 93.5t-83 30.5q-47 0 -76.5 -26.5t-29.5 -69.5q0 -41 24 -65.5t77 -37.5l81 -20q91 -23 135 -71.5t44 -125.5q0 -86 -54 -142.5t-145 -66.5v-124z" />
    <glyph glyph-name="percent" unicode="%" horiz-adv-x="763" 
d="M204 709q71 0 118.5 -47t47.5 -116q0 -70 -47.5 -117.5t-118.5 -47.5t-118 47t-47 118q0 69 47 116t118 47zM507 387h-97l183 316h97zM286 545q0 38 -23 63t-59 25q-35 0 -58.5 -25.5t-23.5 -62.5t23 -62t59 -25t59 24.5t23 62.5zM560 321q70 0 117 -47t47 -117t-47 -117
t-117 -47q-72 0 -118.5 46.5t-46.5 117.5t46.5 117.5t118.5 46.5zM173 0h-97l183 316h97zM640 157q0 38 -22.5 63t-57.5 25q-36 0 -59 -25t-23 -63t22.5 -62.5t59.5 -24.5q36 0 58 24.5t22 62.5z" />
    <glyph glyph-name="ampersand" unicode="&#x26;" horiz-adv-x="692" 
d="M696 0h-143l-60 66q-44 -39 -97.5 -58.5t-119.5 -19.5q-105 0 -172 54.5t-67 139.5q0 68 40.5 118.5t123.5 85.5q-46 52 -63.5 88.5t-17.5 73.5q0 71 56 119t139 48q82 0 134.5 -44t52.5 -112q0 -58 -38 -103t-115 -78l150 -164q17 27 24 53.5t7 60.5q0 9 -0.5 17.5
t-2.5 17.5l98 16q3 -13 4 -26t1 -30q0 -51 -15 -94t-49 -87zM317 627q-39 0 -63 -24t-24 -60q0 -21 13.5 -44.5t50.5 -61.5q58 28 81.5 54t23.5 59q0 34 -22.5 55.5t-59.5 21.5zM155 192q0 -47 38.5 -78t97.5 -31q43 0 77.5 12.5t62.5 38.5l-176 192q-53 -26 -76.5 -58
t-23.5 -76z" />
    <glyph glyph-name="quotesingle" unicode="'" horiz-adv-x="224" 
d="M169 703l-6 -249h-102l-6 249h114z" />
    <glyph glyph-name="parenleft" unicode="(" horiz-adv-x="313" 
d="M303 -140h-119q-73 115 -109.5 234.5t-36.5 241.5q0 117 36.5 236t109.5 238h119q-74 -127 -110 -244t-36 -230q0 -122 36.5 -241.5t109.5 -234.5z" />
    <glyph glyph-name="parenright" unicode=")" horiz-adv-x="313" 
d="M10 810h119q73 -115 109.5 -234.5t36.5 -241.5q0 -117 -36.5 -236t-109.5 -238h-119q74 127 110 244t36 230q0 122 -36.5 241.5t-109.5 234.5z" />
    <glyph glyph-name="asterisk" unicode="*" horiz-adv-x="470" 
d="M168 355l-78 53l74 94l-115 38l33 87l110 -47l-4 123h96l-4 -121l112 45l31 -88l-114 -34l76 -98l-76 -54l-73 108z" />
    <glyph glyph-name="plus" unicode="+" 
d="M352 139h-104v162h-176v102h176v162h104v-162h176v-102h-176v-162z" />
    <glyph glyph-name="comma" unicode="," horiz-adv-x="248" 
d="M122 141q36 0 58 -25t22 -65q0 -66 -29 -113t-97 -87l-36 52q3 2 20.5 13.5t27.5 21.5q12 10 19.5 22.5t11.5 27.5q-32 1 -53 23t-21 53q0 33 22 55t55 22z" />
    <glyph glyph-name="hyphen" unicode="-" horiz-adv-x="340" 
d="M50 328h240v-106h-240v106z" />
    <glyph glyph-name="period" unicode="." horiz-adv-x="240" 
d="M198 64q0 -31 -23 -53.5t-55 -22.5t-54.5 22.5t-22.5 53.5q0 33 22 55t55 22t55.5 -22.5t22.5 -54.5z" />
    <glyph glyph-name="slash" unicode="/" horiz-adv-x="377" 
d="M253 810h108l-237 -950h-108z" />
    <glyph glyph-name="zero" unicode="0" horiz-adv-x="644" 
d="M592 352q0 -178 -70.5 -271t-199.5 -93t-199.5 93t-70.5 271q0 177 70.5 270t199.5 93t199.5 -93t70.5 -270zM470 352q0 131 -37 196t-112 65t-111.5 -65t-36.5 -196t36.5 -196.5t111.5 -65.5t112 65.5t37 196.5z" />
    <glyph glyph-name="one" unicode="1" horiz-adv-x="425" 
d="M217 0v563q-29 -55 -81.5 -90t-109.5 -41l-9 124q86 20 135 55t84 92h100v-703h-119z" />
    <glyph glyph-name="two" unicode="2" horiz-adv-x="618" 
d="M182 106h391v-106h-517v95q0 76 35 125.5t111 87.5l147 73q44 22 66 52.5t22 68.5q0 51 -34 82t-91 31q-64 0 -99.5 -32t-35.5 -86q0 -17 3.5 -33.5t10.5 -33.5l-125 10q-5 21 -7 35.5t-2 27.5q0 90 72.5 151t184.5 61q108 0 176 -57.5t68 -149.5q0 -74 -35 -124.5
t-111 -88.5l-157 -78q-38 -19 -55.5 -43.5t-17.5 -63.5v-4z" />
    <glyph glyph-name="three" unicode="3" horiz-adv-x="611" 
d="M300 88q66 0 106 39t40 103q0 63 -34 96t-98 33q-30 0 -58 -9t-45 -23l-60 68l212 202h-304v106h458v-95l-200 -186q12 6 26.5 9t31.5 3q87 0 139 -56.5t52 -150.5q0 -100 -74 -169.5t-191 -69.5q-113 0 -187 64.5t-80 161.5l118 20q8 -71 46 -108.5t102 -37.5z" />
    <glyph glyph-name="four" unicode="4" horiz-adv-x="639" 
d="M251 644v59h121v-69q0 -130 -60 -229t-172 -157h284v158h118v-158h75v-106h-75v-142h-118v142h-404v107q72 50 109.5 86.5t62.5 77.5q30 49 44.5 106t14.5 125z" />
    <glyph glyph-name="five" unicode="5" 
d="M555 232q0 -105 -74 -174.5t-185 -69.5q-101 0 -178.5 58.5t-84.5 142.5l110 38q11 -66 51 -102.5t101 -36.5t101.5 41t40.5 101q0 64 -35.5 101.5t-98.5 37.5q-40 0 -72 -16t-58 -52l-99 38l53 364h374v-106h-282l-37 -207q27 37 65.5 55.5t87.5 18.5q100 0 160 -63.5
t60 -168.5z" />
    <glyph glyph-name="six" unicode="6" horiz-adv-x="629" 
d="M348 470q105 0 168 -64t63 -172q0 -103 -73.5 -174.5t-180.5 -71.5q-132 0 -203 87.5t-71 251.5q0 183 74 285.5t201 102.5q100 0 163 -51t77 -146l-112 -25q-8 60 -40.5 92t-85.5 32q-74 0 -115 -68.5t-46 -194.5q23 55 72 85.5t109 30.5zM322 375q-64 0 -105 -41.5
t-41 -103.5q0 -63 40 -104t104 -41t104 41t40 106q0 68 -37.5 105.5t-104.5 37.5z" />
    <glyph glyph-name="seven" unicode="7" horiz-adv-x="532" 
d="M508 703v-95q-82 -69 -122.5 -121t-62.5 -112q-21 -56 -31 -128t-10 -170v-77h-122v95q0 178 55.5 299t180.5 203h-387v106h499z" />
    <glyph glyph-name="eight" unicode="8" horiz-adv-x="626" 
d="M313 -12q-122 0 -194.5 59.5t-72.5 153.5q0 69 36.5 113t108.5 63q-57 20 -86 60t-29 97q0 78 65.5 129.5t172.5 51.5t172 -51t65 -130q0 -57 -29 -97t-86 -60q71 -19 107 -63.5t36 -112.5q0 -94 -72.5 -153.5t-193.5 -59.5zM314 620q-58 0 -93 -29t-35 -73q0 -45 34 -72
t94 -27q59 0 93 27t34 72t-34.5 73.5t-92.5 28.5zM163 209q0 -55 41 -90.5t109 -35.5t109 35t41 91q0 54 -40 87t-110 33t-110 -33t-40 -87z" />
    <glyph glyph-name="nine" unicode="9" horiz-adv-x="630" 
d="M281 233q-105 0 -168 64t-63 172q0 103 73.5 174.5t180.5 71.5q132 0 203 -87.5t71 -251.5q0 -183 -74 -285.5t-201 -102.5q-100 0 -163 51t-77 146l112 25q8 -60 40.5 -92t85.5 -32q74 0 115 68.5t46 194.5q-23 -55 -72 -85.5t-109 -30.5zM307 328q64 0 105 41.5
t41 103.5q0 63 -40 104t-104 41t-104 -41t-40 -106q0 -68 37.5 -105.5t104.5 -37.5z" />
    <glyph glyph-name="colon" unicode=":" horiz-adv-x="267" 
d="M212 64q0 -31 -23 -53.5t-55 -22.5t-54.5 22.5t-22.5 53.5q0 33 22 55t55 22t55.5 -22.5t22.5 -54.5zM212 444q0 -31 -23 -53.5t-55 -22.5t-54.5 22.5t-22.5 53.5q0 33 22 55t55 22t55.5 -22.5t22.5 -54.5z" />
    <glyph glyph-name="semicolon" unicode=";" horiz-adv-x="272" 
d="M132 141q36 0 58 -25t22 -65q0 -66 -29 -113t-97 -87l-36 52q3 2 20.5 13.5t27.5 21.5q12 10 19.5 22.5t11.5 27.5q-32 1 -53 23t-21 53q0 33 22 55t55 22zM216 444q0 -31 -23 -53.5t-55 -22.5t-54.5 22.5t-22.5 53.5q0 33 22 55t55 22t55.5 -22.5t22.5 -54.5z" />
    <glyph glyph-name="less" unicode="&#x3c;" 
d="M91 304v95l410 203v-112l-284 -138l284 -137v-113z" />
    <glyph glyph-name="equal" unicode="=" 
d="M72 407v102h456v-102h-456zM72 195v102h456v-102h-456z" />
    <glyph glyph-name="greater" unicode="&#x3e;" 
d="M509 399v-95l-410 -203v112l284 138l-284 137v113z" />
    <glyph glyph-name="question" unicode="?" horiz-adv-x="541" 
d="M273 715q107 0 171 -54t64 -144q0 -54 -25.5 -98.5t-78.5 -82.5l-38 -27q-27 -19 -36.5 -34t-9.5 -37v-17h-120v25q0 37 14.5 63.5t47.5 50.5l68 50q32 23 44.5 47t12.5 58q0 46 -30.5 72.5t-84.5 26.5q-61 0 -96 -32t-35 -84q0 -17 3.5 -33t11.5 -35l-125 10
q-5 17 -7 32.5t-2 29.5q0 88 72 150.5t179 62.5zM339 64q0 -31 -23 -53.5t-55 -22.5t-54.5 22.5t-22.5 53.5q0 33 22 55t55 22t55.5 -22.5t22.5 -54.5z" />
    <glyph glyph-name="at" unicode="@" horiz-adv-x="897" 
d="M450 -43h103v-81h-106q-182 0 -296.5 107t-114.5 287q0 87 30.5 161.5t88.5 129.5t135 84.5t160 29.5q176 0 292 -103.5t116 -263.5q0 -104 -55.5 -166.5t-151.5 -62.5q-47 0 -84 22t-48 62q-22 -41 -56.5 -62.5t-76.5 -21.5q-65 0 -106.5 45t-41.5 117q0 88 54.5 149
t131.5 61q43 0 73 -20t44 -58l15 70h95l-40 -187q-10 -48 4 -72.5t51 -24.5q44 0 72 41.5t28 106.5q0 126 -89 206.5t-227 80.5q-139 0 -231 -89.5t-92 -234.5q0 -143 91 -228t232 -85zM341 247q0 -44 19 -67.5t53 -23.5q48 0 78 39.5t30 96.5q0 35 -22 57.5t-58 22.5
q-42 0 -71 -37t-29 -88z" />
    <glyph glyph-name="A" unicode="A" horiz-adv-x="696" 
d="M277 703h142l263 -703h-127l-66 184h-289l-66 -184h-120zM345 591l-110 -308h218z" />
    <glyph glyph-name="B" unicode="B" horiz-adv-x="707" 
d="M86 703h315q106 0 170 -48t64 -130q0 -60 -32 -100t-96 -61q76 -18 116.5 -61.5t40.5 -108.5q0 -88 -66 -141t-170 -53h-342v703zM514 507q0 47 -35.5 74t-95.5 27h-178v-207h182q57 0 92 28.5t35 77.5zM542 205q0 48 -36.5 76.5t-96.5 28.5h-204v-215h204q59 0 96 30
t37 80z" />
    <glyph glyph-name="C" unicode="C" horiz-adv-x="765" 
d="M404 99q77 0 135.5 41.5t88.5 117.5l110 -42q-42 -106 -131 -167t-202 -61q-154 0 -258.5 105.5t-104.5 258.5t104.5 258t258.5 105q111 0 196.5 -52t128.5 -146l-114 -52q-35 68 -89 103t-123 35q-101 0 -169.5 -73t-68.5 -178q0 -107 68.5 -180t169.5 -73z" />
    <glyph glyph-name="D" unicode="D" horiz-adv-x="776" 
d="M86 703h279q162 0 264.5 -94t102.5 -251q0 -164 -102.5 -261t-264.5 -97h-279v703zM609 358q0 108 -68 171.5t-179 63.5h-157v-483h157q112 0 179.5 66.5t67.5 181.5z" />
    <glyph glyph-name="E" unicode="E" horiz-adv-x="630" 
d="M578 0h-492v703h487v-106h-368v-190h344v-102h-344v-199h373v-106z" />
    <glyph glyph-name="F" unicode="F" horiz-adv-x="617" 
d="M205 0h-119v703h498v-106h-379v-209h355v-105h-355v-283z" />
    <glyph glyph-name="G" unicode="G" horiz-adv-x="802" 
d="M743 393v-393h-111v120q-37 -64 -100 -98t-144 -34q-148 0 -247 105t-99 259q0 153 105 258t260 105q111 0 198.5 -54t128.5 -148l-111 -48q-35 67 -90.5 103t-125.5 36q-103 0 -172 -73t-69 -179q0 -109 68.5 -182t172.5 -73q97 0 157 52.5t65 146.5h-224v97h338z" />
    <glyph glyph-name="H" unicode="H" horiz-adv-x="755" 
d="M205 0h-119v703h119v-293h346v293h118v-703h-118v300h-346v-300z" />
    <glyph glyph-name="I" unicode="I" horiz-adv-x="290" 
d="M205 0h-119v703h119v-703z" />
    <glyph glyph-name="J" unicode="J" horiz-adv-x="606" 
d="M274 95q60 0 97 36.5t37 96.5v475h119v-478q0 -105 -71.5 -171t-182.5 -66q-112 0 -182.5 62.5t-70.5 161.5q0 18 3 34.5t8 30.5l122 10q-7 -16 -11 -33.5t-4 -35.5q0 -56 37 -89.5t99 -33.5z" />
    <glyph glyph-name="K" unicode="K" horiz-adv-x="665" 
d="M86 703h119v-349l309 349h141l-264 -303l271 -400h-144l-208 314l-105 -118v-196h-119v703z" />
    <glyph glyph-name="L" unicode="L" horiz-adv-x="568" 
d="M554 0h-468v703h119v-596h349v-107z" />
    <glyph glyph-name="M" unicode="M" horiz-adv-x="907" 
d="M196 0h-110v703h188l179 -568l188 568h181v-703h-113v588l-195 -587h-130l-188 589v-590z" />
    <glyph glyph-name="N" unicode="N" horiz-adv-x="755" 
d="M197 0h-111v703h162l310 -547v547h111v-703h-150l-322 568v-568z" />
    <glyph glyph-name="O" unicode="O" horiz-adv-x="819" 
d="M42 352q0 153 105.5 258t261.5 105t261.5 -105t105.5 -258t-105.5 -258.5t-261.5 -105.5t-261.5 105.5t-105.5 258.5zM409 98q104 0 174 73t70 181q0 106 -70 179.5t-174 73.5t-173.5 -73t-69.5 -180q0 -108 69.5 -181t173.5 -73z" />
    <glyph glyph-name="P" unicode="P" horiz-adv-x="663" 
d="M86 703h303q114 0 181.5 -58.5t67.5 -161.5q0 -108 -67.5 -169.5t-181.5 -61.5h-184v-252h-119v703zM517 482q0 56 -36.5 86.5t-100.5 30.5h-175v-243h175q65 0 101 32.5t36 93.5z" />
    <glyph glyph-name="Q" unicode="Q" horiz-adv-x="819" 
d="M42 352q0 153 105.5 258t261.5 105t261.5 -105t105.5 -258q0 -76 -28.5 -144.5t-81.5 -119.5l90 -115l-87 -67l-93 120q-38 -19 -80.5 -28.5t-86.5 -9.5q-156 0 -261.5 105.5t-105.5 258.5zM505 117l-94 120l88 65l94 -120q29 35 44.5 78.5t15.5 91.5q0 106 -70 179.5
t-174 73.5t-173.5 -73t-69.5 -180q0 -108 69.5 -181t173.5 -73q25 0 49 5t47 14z" />
    <glyph glyph-name="R" unicode="R" horiz-adv-x="694" 
d="M535 0l-64 177q-14 40 -25.5 56.5t-26.5 25.5q-17 10 -40.5 14.5t-58.5 4.5h-115v-278h-119v703h294q113 0 183 -51.5t70 -139.5q0 -80 -44.5 -129.5t-127.5 -64.5q49 -9 79 -37.5t51 -86.5l71 -194h-127zM205 373h166q66 0 103.5 31.5t37.5 88.5q0 52 -37 80t-104 28
h-166v-228z" />
    <glyph glyph-name="S" unicode="S" horiz-adv-x="651" 
d="M319 614q-60 0 -97.5 -26t-37.5 -69q0 -42 26 -66t81 -32l112 -17q105 -16 155.5 -64.5t50.5 -131.5q0 -99 -75.5 -159.5t-195.5 -60.5q-135 0 -213 63t-91 184l119 25q12 -87 56.5 -128.5t126.5 -41.5q72 0 111.5 27.5t39.5 79.5q0 41 -29 66.5t-88 34.5l-108 17
q-94 15 -146 65t-52 128q0 91 73.5 149t184.5 58q116 0 187.5 -52.5t86.5 -149.5l-119 -21q-11 62 -49.5 92t-108.5 30z" />
    <glyph glyph-name="T" unicode="T" horiz-adv-x="585" 
d="M351 0h-118v596h-219v107h558v-107h-221v-596z" />
    <glyph glyph-name="U" unicode="U" horiz-adv-x="728" 
d="M197 703v-445q0 -71 46 -115.5t119 -44.5q76 0 123 44.5t47 115.5v445h118v-453q0 -116 -81 -189t-206 -73q-124 0 -204.5 73.5t-80.5 188.5v453h119z" />
    <glyph glyph-name="V" unicode="V" horiz-adv-x="681" 
d="M411 0h-143l-252 703h130l196 -576l201 576h123z" />
    <glyph glyph-name="W" unicode="W" horiz-adv-x="1031" 
d="M362 0h-144l-196 703h126l148 -568l149 568h146l148 -563l149 563h120l-196 -703h-144l-152 564z" />
    <glyph glyph-name="X" unicode="X" horiz-adv-x="684" 
d="M141 0h-136l264 357l-255 346h141l190 -260l189 260h133l-252 -347l266 -356h-142l-200 266z" />
    <glyph glyph-name="Y" unicode="Y" horiz-adv-x="652" 
d="M387 0h-119v261l-252 442h131l181 -328l183 328h125l-249 -434v-269z" />
    <glyph glyph-name="Z" unicode="Z" horiz-adv-x="626" 
d="M586 0h-550v98l397 499h-383v106h531v-102l-397 -495h402v-106z" />
    <glyph glyph-name="bracketleft" unicode="[" horiz-adv-x="340" 
d="M317 810v-101h-126v-748h126v-101h-239v950h239z" />
    <glyph glyph-name="backslash" unicode="\" horiz-adv-x="377" 
d="M124 810l237 -950h-108l-237 950h108z" />
    <glyph glyph-name="bracketright" unicode="]" horiz-adv-x="340" 
d="M23 -140v101h126v748h-126v101h239v-950h-239z" />
    <glyph glyph-name="asciicircum" unicode="^" horiz-adv-x="539" 
d="M212 703h116l182 -419h-120l-120 283l-120 -283h-121z" />
    <glyph glyph-name="underscore" unicode="_" horiz-adv-x="440" 
d="M-1 -50h442v-93h-442v93z" />
    <glyph glyph-name="grave" unicode="`" horiz-adv-x="272" 
d="M147 738l79 -146h-96l-91 146h108z" />
    <glyph glyph-name="a" unicode="a" horiz-adv-x="565" 
d="M498 0h-114v84q-27 -48 -70 -72t-100 -24q-75 0 -122.5 43t-47.5 111q0 64 40.5 106t122.5 62q38 9 80.5 14t98.5 6q-2 46 -30 72.5t-76 26.5q-47 0 -77.5 -22.5t-44.5 -67.5l-106 25q18 71 79.5 114t148.5 43q103 0 160.5 -55.5t57.5 -151.5v-314zM243 235
q-42 -11 -63 -31.5t-21 -49.5q0 -37 22 -57t61 -20q61 0 102.5 42t41.5 100v32q-51 -1 -82.5 -5t-60.5 -11z" />
    <glyph glyph-name="b" unicode="b" horiz-adv-x="649" 
d="M188 0h-114v725h114v-306q30 50 77 76t106 26q104 0 171.5 -75t67.5 -190q0 -116 -68.5 -192t-173.5 -76q-58 0 -104.5 26t-75.5 75v-89zM492 255q0 71 -44 119t-110 48q-65 0 -109 -48t-44 -119t44 -119.5t109 -48.5q66 0 110 48.5t44 119.5z" />
    <glyph glyph-name="c" unicode="c" horiz-adv-x="585" 
d="M308 87q51 0 90 30.5t56 81.5l102 -31q-27 -82 -93.5 -131t-154.5 -49q-117 0 -194 76.5t-77 190.5q0 113 77 189.5t194 76.5q89 0 155 -47t92 -127l-107 -35q-17 52 -54.5 82t-85.5 29q-67 -1 -112 -49t-45 -119q0 -72 45 -120t112 -48z" />
    <glyph glyph-name="d" unicode="d" horiz-adv-x="649" 
d="M278 -12q-104 0 -171.5 75.5t-67.5 189.5q0 116 68.5 192t173.5 76q58 0 103.5 -25.5t76.5 -74.5v304h114v-725h-114v91q-31 -50 -78 -76.5t-105 -26.5zM156 254q0 -70 44.5 -118.5t110.5 -48.5q65 0 109 48t44 119t-44 119.5t-109 48.5q-66 0 -110.5 -48.5t-44.5 -119.5
z" />
    <glyph glyph-name="e" unicode="e" horiz-adv-x="588" 
d="M550 275v-49h-403q7 -67 47.5 -106.5t102.5 -39.5q50 0 84 22.5t53 69.5l102 -29q-31 -75 -93 -115t-148 -40q-114 0 -185.5 74.5t-71.5 190.5q0 114 74 191t185 77t182 -70.5t71 -175.5zM297 430q-54 0 -92.5 -33t-52.5 -91h285q-13 60 -49.5 92t-90.5 32z" />
    <glyph glyph-name="f" unicode="f" horiz-adv-x="363" 
d="M227 550v-41h122v-94h-122v-415h-114v415h-90v94h90v47q0 82 48.5 125.5t141.5 43.5h72v-95h-71q-39 0 -58 -19t-19 -61z" />
    <glyph glyph-name="g" unicode="g" horiz-adv-x="631" 
d="M274 26q-99 0 -164 70.5t-65 176.5t66 177t166 71q54 0 97 -23.5t70 -68.5v80h114v-470q0 -109 -70 -174t-190 -65q-101 0 -171 47t-86 125l111 28q12 -52 50 -80t98 -28q65 0 104.5 37.5t39.5 99.5v92q-28 -46 -71.5 -70.5t-98.5 -24.5zM304 424q-61 0 -101.5 -43.5
t-40.5 -107.5t40.5 -107.5t101.5 -43.5t102 43.5t41 107.5t-41 107.5t-102 43.5z" />
    <glyph glyph-name="h" unicode="h" horiz-adv-x="615" 
d="M188 0h-114v725h114v-302q25 47 68.5 72.5t98.5 25.5q88 0 140 -55t52 -147v-319h-114v298q0 59 -31 92t-88 33q-56 0 -91 -38.5t-35 -95.5v-289z" />
    <glyph glyph-name="i" unicode="i" horiz-adv-x="262" 
d="M205 670q0 -30 -21.5 -51t-52.5 -21t-52 21t-21 51t21 51t52 21t52.5 -21t21.5 -51zM188 0h-114v509h114v-509z" />
    <glyph glyph-name="j" unicode="j" horiz-adv-x="262" 
d="M205 670q0 -30 -21.5 -51t-52.5 -21t-52 21t-21 51t21 51t52 21t52.5 -21t21.5 -51zM188 509v-531q0 -84 -45.5 -126t-137.5 -42h-56v96h48q39 0 58 19.5t19 61.5v522h114z" />
    <glyph glyph-name="k" unicode="k" horiz-adv-x="567" 
d="M188 0h-114v725h114v-451l217 235h134l-187 -199l222 -310h-139l-160 230l-87 -91v-139z" />
    <glyph glyph-name="l" unicode="l" horiz-adv-x="262" 
d="M188 0h-114v725h114v-725z" />
    <glyph glyph-name="m" unicode="m" horiz-adv-x="955" 
d="M188 0h-114v509h114v-85q25 47 67 72t96 25q60 0 104.5 -29t65.5 -81q25 53 71 81.5t104 28.5q87 0 139 -55t52 -147v-319h-114v303q0 56 -30 88t-84 32t-87.5 -38t-33.5 -96v-289h-114v298q0 59 -30 92t-85 33q-54 0 -87.5 -38.5t-33.5 -95.5v-289z" />
    <glyph glyph-name="n" unicode="n" horiz-adv-x="615" 
d="M188 0h-114v509h114v-86q25 47 68.5 72.5t98.5 25.5q88 0 140 -55t52 -147v-319h-114v298q0 59 -31 92t-88 33q-56 0 -91 -38.5t-35 -95.5v-289z" />
    <glyph glyph-name="o" unicode="o" horiz-adv-x="617" 
d="M37 255q0 113 77 189.5t194 76.5q116 0 193.5 -76.5t77.5 -189.5t-77.5 -190t-193.5 -77q-117 0 -194 76.5t-77 190.5zM466 255q0 72 -45 120.5t-113 48.5q-67 0 -112.5 -48.5t-45.5 -120.5t45.5 -121t112.5 -49q68 0 113 49t45 121z" />
    <glyph glyph-name="p" unicode="p" horiz-adv-x="649" 
d="M74 -190v699h114v-90q30 50 77 76t106 26q104 0 171.5 -75t67.5 -190q0 -116 -68.5 -192t-173.5 -76q-58 0 -104.5 26t-75.5 75v-279h-114zM492 255q0 71 -44 119t-110 48q-65 0 -109 -48t-44 -119t44 -119.5t109 -48.5q66 0 110 48.5t44 119.5z" />
    <glyph glyph-name="q" unicode="q" horiz-adv-x="648" 
d="M278 -12q-104 0 -171.5 75.5t-67.5 189.5q0 116 68.5 192t173.5 76q58 0 103.5 -25.5t76.5 -74.5v88h114v-699h-114v281q-31 -50 -78 -76.5t-105 -26.5zM156 254q0 -70 44.5 -118.5t110.5 -48.5q65 0 109 48t44 119t-44 119.5t-109 48.5q-66 0 -110.5 -48.5t-44.5 -119.5
z" />
    <glyph glyph-name="r" unicode="r" horiz-adv-x="387" 
d="M74 509h114v-117q19 57 56.5 87t89.5 30h38v-104h-47q-63 0 -100 -43.5t-37 -113.5v-248h-114v509z" />
    <glyph glyph-name="s" unicode="s" horiz-adv-x="526" 
d="M259 435q-40 0 -65.5 -16t-25.5 -43q0 -26 18.5 -41t62.5 -22l77 -12q84 -13 123 -49.5t39 -99.5q0 -75 -61 -119.5t-159 -44.5q-103 0 -164.5 44t-74.5 128l108 22q13 -57 43.5 -82.5t86.5 -25.5q49 0 77.5 18.5t28.5 51.5q0 27 -20 43t-62 23l-83 13q-79 12 -116.5 48
t-37.5 98q0 68 58 110t149 42t147.5 -37.5t70.5 -108.5l-107 -23q-12 43 -39 63t-74 20z" />
    <glyph glyph-name="t" unicode="t" horiz-adv-x="389" 
d="M221 415v-241q0 -41 19 -59.5t58 -18.5h68v-96h-76q-93 0 -138 41t-45 127v247h-90v94h90v147h114v-147h123v-94h-123z" />
    <glyph glyph-name="u" unicode="u" horiz-adv-x="605" 
d="M417 509h114v-509h-114v87q-24 -47 -66 -73t-95 -26q-85 0 -136.5 55.5t-51.5 145.5v320h114v-299q0 -56 30 -89.5t83 -33.5q55 0 88.5 37.5t33.5 94.5v290z" />
    <glyph glyph-name="v" unicode="v" horiz-adv-x="546" 
d="M344 0h-144l-186 509h123l139 -401l142 401h115z" />
    <glyph glyph-name="w" unicode="w" horiz-adv-x="878" 
d="M319 0h-134l-169 509h115l124 -394l123 394h129l121 -397l125 397h109l-168 -509h-133l-121 389z" />
    <glyph glyph-name="x" unicode="x" horiz-adv-x="536" 
d="M130 0h-122l193 256l-187 253h130l129 -177l129 177h118l-185 -248l197 -261h-134l-134 179z" />
    <glyph glyph-name="y" unicode="y" horiz-adv-x="544" 
d="M415 509h116l-264 -699h-111l63 167l-207 532h123l140 -384z" />
    <glyph glyph-name="z" unicode="z" horiz-adv-x="519" 
d="M485 0h-453v77l301 338h-287v94h427v-81l-294 -334h306v-94z" />
    <glyph glyph-name="braceleft" unicode="{" horiz-adv-x="383" 
d="M218 235v-191q0 -42 19 -61t59 -19h67v-104h-67q-93 0 -141.5 43.5t-48.5 125.5v194q0 51 -10 70.5t-37 19.5h-33v95h33q27 0 37 19.5t10 69.5v144q0 82 48.5 125.5t141.5 43.5h67v-104h-67q-40 0 -59 -19t-19 -61v-141q0 -49 -21.5 -81.5t-61.5 -43.5q40 -12 61.5 -44
t21.5 -81z" />
    <glyph glyph-name="bar" unicode="|" horiz-adv-x="281" 
d="M86 810h109v-950h-109v950z" />
    <glyph glyph-name="braceright" unicode="}" horiz-adv-x="383" 
d="M164 485v141q0 42 -19 61t-58 19h-67v104h67q93 0 141.5 -43.5t48.5 -125.5v-144q0 -50 10 -69.5t37 -19.5h33v-95h-33q-27 0 -37 -19.5t-10 -70.5v-194q0 -82 -48.5 -125.5t-141.5 -43.5h-67v104h67q39 0 58 19t19 61v190q0 49 21.5 81.5t62.5 44.5q-41 12 -62.5 43.5
t-21.5 81.5z" />
    <glyph glyph-name="asciitilde" unicode="~" 
d="M200 435q27 0 53 -6.5t70 -25.5q37 -17 56.5 -22t37.5 -5q36 0 64 13t53 43v-105q-18 -26 -50.5 -41t-73.5 -15q-26 0 -50 6t-62 24q-37 18 -59 23.5t-45 5.5q-35 0 -66.5 -15.5t-59.5 -46.5v106q16 24 52.5 42.5t79.5 18.5z" />
    <glyph glyph-name="uni00A0" unicode="&#xa0;" horiz-adv-x="237" 
 />
    <glyph glyph-name="exclamdown" unicode="&#xa1;" horiz-adv-x="255" 
d="M49 445q0 31 23 53.5t55 22.5t54.5 -22.5t22.5 -53.5q0 -33 -22 -55t-55 -22t-55.5 22.5t-22.5 54.5zM85 288h83l20 -325v-157h-122v157z" />
    <glyph glyph-name="cent" unicode="&#xa2;" horiz-adv-x="620" 
d="M378 -17h-106v104q-96 17 -156.5 90t-60.5 172t60.5 171.5t156.5 89.5v105h106v-104q71 -13 122.5 -58t72.5 -112l-107 -35q-17 52 -54.5 82t-85.5 29q-67 -1 -112 -49t-45 -119q0 -72 45 -120t112 -48q51 0 90 30.5t56 81.5l102 -31q-22 -69 -74 -115.5t-122 -59.5v-104
z" />
    <glyph glyph-name="sterling" unicode="&#xa3;" horiz-adv-x="650" 
d="M617 0h-569v93q43 9 72.5 51t29.5 97q0 6 -0.5 13.5t-1.5 24.5h-100v88h83q-14 66 -16.5 84.5t-2.5 34.5q0 106 67.5 167.5t171.5 61.5q101 0 164 -53t83 -157l-110 -35q-16 75 -47.5 108.5t-88.5 33.5q-54 0 -88 -36t-34 -98q0 -15 3.5 -36t16.5 -75h175v-88h-158
q0 -4 0.5 -13.5t0.5 -14.5q0 -44 -14 -82.5t-38 -63.5h401v-105z" />
    <glyph glyph-name="currency" unicode="&#xa4;" horiz-adv-x="676" 
d="M234 178l-121 -122l-70 69l121 121q-15 24 -22.5 51t-7.5 55t7.5 54.5t22.5 50.5l-121 120l70 69l120 -120q24 15 51.5 22.5t55.5 7.5q27 0 53.5 -7.5t51.5 -21.5l119 119l69 -69l-118 -118q15 -24 22.5 -51.5t7.5 -55.5q0 -29 -8 -56t-23 -52l119 -119l-69 -69l-121 121
q-23 -14 -49 -21t-54 -7t-54.5 7.5t-51.5 21.5zM340 241q46 0 77.5 32t31.5 79t-31.5 79t-77.5 32t-77.5 -32t-31.5 -79t31.5 -79t77.5 -32z" />
    <glyph glyph-name="yen" unicode="&#xa5;" horiz-adv-x="649" 
d="M385 0h-119v131h-168v81h168v49l-4 7h-164v81h118l-202 354h131l181 -328l183 328h125l-203 -354h121v-81h-167v-56h167v-81h-167v-131z" />
    <glyph glyph-name="brokenbar" unicode="&#xa6;" horiz-adv-x="281" 
d="M86 810h109v-400h-109v400zM86 -140v400h109v-400h-109z" />
    <glyph glyph-name="section" unicode="&#xa7;" horiz-adv-x="609" 
d="M315 -102q50 0 82.5 24.5t32.5 64.5q0 35 -18.5 55.5t-64.5 31.5l-113 28q-101 25 -143.5 65t-42.5 103q0 38 17.5 69t53.5 56q-27 23 -41 55.5t-14 73.5q0 85 65.5 138t166.5 53q106 0 172 -51.5t80 -147.5l-119 -22q-10 63 -43 93t-93 30q-47 0 -77 -25t-30 -66
q0 -36 18.5 -56t63.5 -31l103 -25q100 -24 143 -64t43 -104q0 -37 -16.5 -67.5t-49.5 -54.5q30 -24 45 -57.5t15 -76.5q0 -84 -67.5 -137t-171.5 -53q-108 0 -173.5 52t-79.5 150l120 18q10 -62 43.5 -92t92.5 -30zM277 200l100 -25q15 -4 22 -6t13 -4q17 12 25.5 28.5
t8.5 37.5q0 30 -25.5 49.5t-92.5 35.5l-90 22q-14 3 -24.5 6.5t-19.5 7.5q-17 -12 -26 -28.5t-9 -37.5q0 -30 25 -49.5t93 -36.5z" />
    <glyph glyph-name="dieresis" unicode="&#xa8;" horiz-adv-x="355" 
d="M151 670q0 -25 -18.5 -43.5t-45.5 -18.5q-26 0 -44.5 18.5t-18.5 43.5q0 27 18 45t45 18t45.5 -18t18.5 -45zM330 670q0 -25 -18.5 -43.5t-45.5 -18.5q-26 0 -44.5 18.5t-18.5 43.5q0 27 18 45t45 18t45.5 -18t18.5 -45z" />
    <glyph glyph-name="copyright" unicode="&#xa9;" horiz-adv-x="839" 
d="M57 351q0 150 106 257t256 107t256.5 -106.5t106.5 -257.5q0 -150 -106.5 -256.5t-256.5 -106.5q-149 0 -255.5 107t-106.5 256zM714 351q0 123 -86.5 210.5t-208.5 87.5q-121 0 -207.5 -87.5t-86.5 -210.5q0 -122 86.5 -209t207.5 -87t208 87t87 209zM420 245
q32 0 57.5 19t35.5 51l92 -30q-20 -61 -70 -97t-115 -36q-87 0 -144 57t-57 142q0 84 57.5 141t143.5 57q66 0 115.5 -35t68.5 -95l-95 -31q-10 31 -34 49.5t-55 18.5q-42 0 -70.5 -30t-28.5 -75t28 -75.5t71 -30.5z" />
    <glyph glyph-name="ordfeminine" unicode="&#xaa;" horiz-adv-x="374" 
d="M317 418h-85v42q-13 -23 -37 -36t-52 -13q-46 0 -73.5 23.5t-27.5 62.5q0 34 24.5 56.5t72.5 34.5q16 4 33.5 6.5t59.5 5.5q-2 21 -14.5 32t-33.5 11q-23 0 -39 -10.5t-24 -30.5l-74 21q11 38 49.5 62t88.5 24q62 0 97 -31.5t35 -86.5v-173zM134 505q0 -14 10 -21.5
t27 -7.5q26 0 43.5 20t17.5 51q-17 0 -31.5 -2t-30.5 -6q-18 -5 -27 -13.5t-9 -20.5z" />
    <glyph glyph-name="guillemotleft" unicode="&#xab;" horiz-adv-x="534" 
d="M158 55l-109 219l109 220h116l-109 -220l109 -219h-116zM370 55l-109 219l109 220h116l-109 -220l109 -219h-116z" />
    <glyph glyph-name="logicalnot" unicode="&#xac;" 
d="M67 301v102h457v-279h-104v177h-353z" />
    <glyph glyph-name="uni00AD" unicode="&#xad;" horiz-adv-x="335" 
d="M47 383h240v-106h-240v106z" />
    <glyph glyph-name="registered" unicode="&#xae;" horiz-adv-x="605" 
d="M302 222q-103 0 -175 71.5t-72 174.5q0 104 72 175.5t175 71.5q104 0 175.5 -71.5t71.5 -175.5q0 -103 -72 -174.5t-175 -71.5zM302 655q-78 0 -132 -54.5t-54 -132.5t54 -132t132 -54t132.5 54t54.5 132t-54.5 132.5t-132.5 54.5zM342 354l-17 52q-5 15 -13.5 20
t-28.5 5h-12v-77h-66v232h110q40 0 64.5 -18t24.5 -50q0 -29 -18 -46.5t-48 -17.5q19 -1 33 -10.5t20 -27.5l22 -62h-71zM271 480h37q15 0 23 7.5t8 20.5q0 12 -8.5 19t-22.5 7h-37v-54z" />
    <glyph glyph-name="macron" unicode="&#xaf;" horiz-adv-x="357" 
d="M319 631h-280v79h280v-79z" />
    <glyph glyph-name="degree" unicode="&#xb0;" horiz-adv-x="408" 
d="M356 565q0 -63 -44 -107t-107 -44t-107.5 44t-44.5 107q0 62 44.5 106t107.5 44t107 -44t44 -106zM128 565q0 -32 22.5 -54.5t54.5 -22.5t54 22t22 55q0 32 -22 54.5t-54 22.5t-54.5 -22.5t-22.5 -54.5z" />
    <glyph glyph-name="plusminus" unicode="&#xb1;" 
d="M352 163h-104v162h-176v102h176v162h104v-162h176v-102h-176v-162zM71 4v102h457v-102h-457z" />
    <glyph glyph-name="twosuperior" unicode="&#xb2;" horiz-adv-x="362" 
d="M135 552h198v-81h-298v62q0 48 19.5 76.5t60.5 47.5l80 36q19 9 28.5 21.5t9.5 28.5q0 20 -13.5 33t-36.5 13q-26 0 -40.5 -13t-14.5 -35q0 -9 1.5 -16.5t5.5 -16.5l-96 8q-2 10 -3 16.5t-1 12.5q0 50 42.5 84.5t107.5 34.5q63 0 102.5 -32.5t39.5 -85.5q0 -43 -21.5 -71
t-70.5 -51l-69 -32q-16 -8 -23.5 -16.5t-7.5 -20.5v-3z" />
    <glyph glyph-name="threesuperior" unicode="&#xb3;" horiz-adv-x="362" 
d="M335 596q0 -55 -44 -93.5t-113 -38.5q-65 0 -108.5 35t-48.5 88l92 13q5 -30 22 -45.5t44 -15.5q28 0 45.5 16.5t17.5 42.5q0 28 -15.5 42.5t-45.5 14.5q-12 0 -24 -4.5t-23 -13.5l-44 53l106 88h-159v80h273v-73l-100 -85q8 3 14.5 4t13.5 1q43 0 70 -30.5t27 -78.5z
" />
    <glyph glyph-name="acute" unicode="&#xb4;" horiz-adv-x="273" 
d="M138 592h-94l81 146h109z" />
    <glyph glyph-name="mu" unicode="&#xb5;" horiz-adv-x="622" 
d="M429 509h114v-509h-114v70q-26 -40 -66.5 -61t-88.5 -21q-22 0 -42.5 5t-38.5 14v-197h-114v699h114v-299q0 -56 30.5 -89.5t83.5 -33.5q55 0 88.5 37.5t33.5 94.5v290z" />
    <glyph glyph-name="paragraph" unicode="&#xb6;" horiz-adv-x="628" 
d="M347 -190h-107v461q-99 3 -160 62.5t-61 156.5t65.5 155t168.5 58h283v-893h-107v460h-82v-460z" />
    <glyph glyph-name="periodcentered" unicode="&#xb7;" horiz-adv-x="253" 
d="M202 369q0 -32 -22 -54t-54 -22t-54 22.5t-22 53.5q0 32 22 53.5t54 21.5q33 0 54.5 -21.5t21.5 -53.5z" />
    <glyph glyph-name="cedilla" unicode="&#xb8;" horiz-adv-x="425" 
d="M191 -55q37 0 62 -26.5t25 -67.5q0 -50 -34.5 -81.5t-89.5 -31.5q-41 0 -74 21t-43 53l73 25q5 -15 16.5 -23t28.5 -8q19 0 30.5 11.5t11.5 29.5q0 19 -10.5 29.5t-29.5 10.5q-14 0 -25.5 -5.5t-22.5 -17.5l-57 33l74 121h72l-53 -86q9 7 20 10t26 3z" />
    <glyph glyph-name="onesuperior" unicode="&#xb9;" horiz-adv-x="272" 
d="M128 471v272q-20 -31 -48.5 -50.5t-56.5 -22.5l-5 105q47 10 74.5 30t47.5 53h81v-387h-93z" />
    <glyph glyph-name="ordmasculine" unicode="&#xba;" horiz-adv-x="385" 
d="M35 561q0 63 44.5 105.5t112.5 42.5t112.5 -42.5t44.5 -105.5q0 -65 -44 -107.5t-113 -42.5t-113 42.5t-44 107.5zM192 480q31 0 51 23t20 58q0 34 -20 57t-51 23q-30 0 -50 -23t-20 -57q0 -35 20 -58t50 -23z" />
    <glyph glyph-name="guillemotright" unicode="&#xbb;" horiz-adv-x="532" 
d="M375 494l109 -219l-109 -220h-116l109 220l-109 219h116zM163 494l109 -219l-109 -220h-116l109 220l-109 219h116z" />
    <glyph glyph-name="onequarter" unicode="&#xbc;" horiz-adv-x="697" 
d="M313 374h-241v69h81v162q-17 -26 -41 -42.5t-48 -19.5l-4 89q39 9 63 26t40 45h69v-260h81v-69zM469 387h-97l183 316h97zM463 307v22h80v-29q0 -49 -26.5 -93.5t-78.5 -83.5h108v67h75v-67h35v-67h-35v-56h-75v56h-181v65q48 41 73 88.5t25 97.5zM135 0h-97l183 316h97z
" />
    <glyph glyph-name="onehalf" unicode="&#xbd;" horiz-adv-x="720" 
d="M313 374h-241v69h81v162q-17 -26 -41 -42.5t-48 -19.5l-4 89q39 9 63 26t40 45h69v-260h81v-69zM469 387h-97l183 316h97zM503 69h168v-69h-253v53q0 41 16.5 65t51.5 40l68 31q16 7 24 17.5t8 24.5q0 17 -11.5 28t-30.5 11q-22 0 -34.5 -11t-12.5 -29q0 -8 1 -14.5
t5 -14.5l-82 7q-2 9 -2.5 14.5t-0.5 10.5q0 43 36 72t91 29q54 0 87.5 -27.5t33.5 -72.5q0 -37 -18 -60.5t-60 -43.5l-59 -27q-14 -7 -20 -14t-6 -18v-2zM135 0h-97l183 316h97z" />
    <glyph glyph-name="threequarters" unicode="&#xbe;" horiz-adv-x="691" 
d="M326 480q0 -47 -37.5 -79.5t-96.5 -32.5q-55 0 -92 30t-41 75l78 11q4 -26 18.5 -39t37.5 -13q24 0 39 14t15 36q0 24 -13.5 36t-38.5 12q-11 0 -21 -3.5t-19 -11.5l-37 45l90 75h-136v68h233v-62l-85 -72q6 2 12 3t11 1q37 0 60 -26t23 -67zM464 387h-97l183 316h97z
M458 307v22h80v-29q0 -49 -26.5 -93.5t-78.5 -83.5h108v67h75v-67h35v-67h-35v-56h-75v56h-181v65q48 41 73 88.5t25 97.5zM130 0h-97l183 316h97z" />
    <glyph glyph-name="questiondown" unicode="&#xbf;" horiz-adv-x="531" 
d="M195 445q0 31 23 53.5t55 22.5t54.5 -22.5t22.5 -53.5q0 -33 -22 -55t-55 -22t-55.5 22.5t-22.5 54.5zM261 -206q-107 0 -171 54t-64 144q0 54 25.5 98.5t78.5 82.5l38 27q27 19 36.5 34t9.5 37v17h120v-25q0 -37 -14.5 -63.5t-47.5 -50.5l-68 -50q-32 -23 -44.5 -47
t-12.5 -58q0 -46 30.5 -72.5t84.5 -26.5q61 0 96 32t35 84q0 17 -3.5 33t-11.5 35l125 -10q5 -17 7 -32.5t2 -29.5q0 -88 -72 -150.5t-179 -62.5z" />
    <glyph glyph-name="Agrave" unicode="&#xc0;" horiz-adv-x="696" 
d="M277 703h142l263 -703h-127l-66 184h-289l-66 -184h-120zM345 591l-110 -308h218zM313 910l79 -145h-96l-91 145h108z" />
    <glyph glyph-name="Aacute" unicode="&#xc1;" horiz-adv-x="696" 
d="M277 703h142l263 -703h-127l-66 184h-289l-66 -184h-120zM345 591l-110 -308h218zM399 765h-94l81 145h109z" />
    <glyph glyph-name="Acircumflex" unicode="&#xc2;" horiz-adv-x="696" 
d="M277 703h142l263 -703h-127l-66 184h-289l-66 -184h-120zM345 591l-110 -308h218zM190 765l99 145h117l99 -145h-87l-71 87l-72 -87h-85z" />
    <glyph glyph-name="Atilde" unicode="&#xc3;" horiz-adv-x="696" 
d="M277 703h142l263 -703h-127l-66 184h-289l-66 -184h-120zM345 591l-110 -308h218zM370 862q16 -13 23 -16.5t14 -3.5q13 0 20 11.5t10 38.5h74q-4 -66 -27.5 -98t-68.5 -32q-20 0 -36.5 7t-38.5 28q-15 14 -23 18t-17 4q-17 0 -26 -13t-12 -42h-76q2 65 29.5 99t77.5 34
q19 0 36 -7t41 -28z" />
    <glyph glyph-name="Adieresis" unicode="&#xc4;" horiz-adv-x="696" 
d="M277 703h142l263 -703h-127l-66 184h-289l-66 -184h-120zM345 591l-110 -308h218zM320 838q0 -26 -18 -43.5t-44 -17.5q-27 0 -45 17.5t-18 43.5t18.5 44.5t44.5 18.5t44 -18.5t18 -44.5zM499 838q0 -26 -17.5 -43.5t-44.5 -17.5t-44.5 17.5t-17.5 43.5t18 44.5t44 18.5
t44 -18.5t18 -44.5z" />
    <glyph glyph-name="Aring" unicode="&#xc5;" horiz-adv-x="696" 
d="M277 703h142l263 -703h-127l-66 184h-289l-66 -184h-120zM345 591l-110 -308h218zM461 853q0 -43 -32 -71t-81 -28t-81 27.5t-32 71.5q0 43 32 70.5t81 27.5q48 0 80.5 -28t32.5 -70zM348 897q-21 0 -34 -12.5t-13 -31.5q0 -20 13 -32.5t34 -12.5q22 0 34.5 12.5
t12.5 32.5t-12.5 32t-34.5 12z" />
    <glyph glyph-name="AE" unicode="&#xc6;" horiz-adv-x="989" 
d="M937 0h-492v184h-235l-109 -184h-124l409 703h546v-106h-368v-190h344v-102h-344v-199h373v-106zM266 283h179v313z" />
    <glyph glyph-name="Ccedilla" unicode="&#xc7;" horiz-adv-x="765" 
d="M438 -55q37 0 62 -26.5t25 -67.5q0 -50 -34.5 -81.5t-89.5 -31.5q-41 0 -74 21t-43 53l73 25q5 -15 16.5 -23t28.5 -8q19 0 30.5 11.5t11.5 29.5q0 19 -10.5 29.5t-29.5 10.5q-14 0 -25.5 -5.5t-22.5 -17.5l-57 33l57 94q-137 17 -225.5 119.5t-88.5 241.5
q0 153 104.5 258t258.5 105q111 0 196.5 -52t128.5 -146l-114 -52q-35 68 -89 103t-123 35q-101 0 -169.5 -73t-68.5 -178q0 -107 68.5 -180t169.5 -73q77 0 135.5 41.5t88.5 117.5l110 -42q-40 -100 -122.5 -160.5t-188.5 -66.5l-35 -57q9 7 20 10t26 3z" />
    <glyph glyph-name="Egrave" unicode="&#xc8;" horiz-adv-x="630" 
d="M578 0h-492v703h487v-106h-368v-190h344v-102h-344v-199h373v-106zM294 910l79 -145h-96l-91 145h108z" />
    <glyph glyph-name="Eacute" unicode="&#xc9;" horiz-adv-x="630" 
d="M578 0h-492v703h487v-106h-368v-190h344v-102h-344v-199h373v-106zM380 765h-94l81 145h109z" />
    <glyph glyph-name="Ecircumflex" unicode="&#xca;" horiz-adv-x="630" 
d="M578 0h-492v703h487v-106h-368v-190h344v-102h-344v-199h373v-106zM171 765l99 145h117l99 -145h-87l-71 87l-72 -87h-85z" />
    <glyph glyph-name="Edieresis" unicode="&#xcb;" horiz-adv-x="630" 
d="M578 0h-492v703h487v-106h-368v-190h344v-102h-344v-199h373v-106zM301 838q0 -26 -18 -43.5t-44 -17.5q-27 0 -45 17.5t-18 43.5t18.5 44.5t44.5 18.5t44 -18.5t18 -44.5zM480 838q0 -26 -17.5 -43.5t-44.5 -17.5t-44.5 17.5t-17.5 43.5t18 44.5t44 18.5t44 -18.5
t18 -44.5z" />
    <glyph glyph-name="Igrave" unicode="&#xcc;" horiz-adv-x="290" 
d="M205 0h-119v703h119v-703zM110 910l79 -145h-96l-91 145h108z" />
    <glyph glyph-name="Iacute" unicode="&#xcd;" horiz-adv-x="290" 
d="M205 0h-119v703h119v-703zM197 765h-94l81 145h109z" />
    <glyph glyph-name="Icircumflex" unicode="&#xce;" horiz-adv-x="290" 
d="M205 0h-119v703h119v-703zM-13 765l99 145h117l99 -145h-87l-71 87l-72 -87h-85z" />
    <glyph glyph-name="Idieresis" unicode="&#xcf;" horiz-adv-x="290" 
d="M205 0h-119v703h119v-703zM118 838q0 -26 -18 -43.5t-44 -17.5q-27 0 -45 17.5t-18 43.5t18.5 44.5t44.5 18.5t44 -18.5t18 -44.5zM297 838q0 -26 -17.5 -43.5t-44.5 -17.5t-44.5 17.5t-17.5 43.5t18 44.5t44 18.5t44 -18.5t18 -44.5z" />
    <glyph glyph-name="Eth" unicode="&#xd0;" horiz-adv-x="786" 
d="M96 703h279q162 0 264.5 -94t102.5 -251q0 -164 -102.5 -261t-264.5 -97h-279v306h-75v90h75v307zM215 396h182v-90h-182v-196h157q112 0 179.5 66.5t67.5 181.5q0 108 -68 171.5t-179 63.5h-157v-197z" />
    <glyph glyph-name="Ntilde" unicode="&#xd1;" horiz-adv-x="755" 
d="M197 0h-111v703h162l310 -547v547h111v-703h-150l-322 568v-568zM400 862q16 -13 23 -16.5t14 -3.5q13 0 20 11.5t10 38.5h74q-4 -66 -27.5 -98t-68.5 -32q-20 0 -36.5 7t-38.5 28q-15 14 -23 18t-17 4q-17 0 -26 -13t-12 -42h-76q2 65 29.5 99t77.5 34q19 0 36 -7
t41 -28z" />
    <glyph glyph-name="Ograve" unicode="&#xd2;" horiz-adv-x="819" 
d="M42 352q0 153 105.5 258t261.5 105t261.5 -105t105.5 -258t-105.5 -258.5t-261.5 -105.5t-261.5 105.5t-105.5 258.5zM409 98q104 0 174 73t70 181q0 106 -70 179.5t-174 73.5t-173.5 -73t-69.5 -180q0 -108 69.5 -181t173.5 -73zM374 910l79 -145h-96l-91 145h108z" />
    <glyph glyph-name="Oacute" unicode="&#xd3;" horiz-adv-x="819" 
d="M42 352q0 153 105.5 258t261.5 105t261.5 -105t105.5 -258t-105.5 -258.5t-261.5 -105.5t-261.5 105.5t-105.5 258.5zM409 98q104 0 174 73t70 181q0 106 -70 179.5t-174 73.5t-173.5 -73t-69.5 -180q0 -108 69.5 -181t173.5 -73zM460 765h-94l81 145h109z" />
    <glyph glyph-name="Ocircumflex" unicode="&#xd4;" horiz-adv-x="819" 
d="M42 352q0 153 105.5 258t261.5 105t261.5 -105t105.5 -258t-105.5 -258.5t-261.5 -105.5t-261.5 105.5t-105.5 258.5zM409 98q104 0 174 73t70 181q0 106 -70 179.5t-174 73.5t-173.5 -73t-69.5 -180q0 -108 69.5 -181t173.5 -73zM251 765l99 145h117l99 -145h-87l-71 87
l-72 -87h-85z" />
    <glyph glyph-name="Otilde" unicode="&#xd5;" horiz-adv-x="819" 
d="M42 352q0 153 105.5 258t261.5 105t261.5 -105t105.5 -258t-105.5 -258.5t-261.5 -105.5t-261.5 105.5t-105.5 258.5zM409 98q104 0 174 73t70 181q0 106 -70 179.5t-174 73.5t-173.5 -73t-69.5 -180q0 -108 69.5 -181t173.5 -73zM431 862q16 -13 23 -16.5t14 -3.5
q13 0 20 11.5t10 38.5h74q-4 -66 -27.5 -98t-68.5 -32q-20 0 -36.5 7t-38.5 28q-15 14 -23 18t-17 4q-17 0 -26 -13t-12 -42h-76q2 65 29.5 99t77.5 34q19 0 36 -7t41 -28z" />
    <glyph glyph-name="Odieresis" unicode="&#xd6;" horiz-adv-x="819" 
d="M42 352q0 153 105.5 258t261.5 105t261.5 -105t105.5 -258t-105.5 -258.5t-261.5 -105.5t-261.5 105.5t-105.5 258.5zM409 98q104 0 174 73t70 181q0 106 -70 179.5t-174 73.5t-173.5 -73t-69.5 -180q0 -108 69.5 -181t173.5 -73zM381 838q0 -26 -18 -43.5t-44 -17.5
q-27 0 -45 17.5t-18 43.5t18.5 44.5t44.5 18.5t44 -18.5t18 -44.5zM560 838q0 -26 -17.5 -43.5t-44.5 -17.5t-44.5 17.5t-17.5 43.5t18 44.5t44 18.5t44 -18.5t18 -44.5z" />
    <glyph glyph-name="multiply" unicode="&#xd7;" 
d="M229 352l-145 145l71 71l145 -145l145 145l71 -71l-145 -145l145 -145l-72 -71l-144 144l-144 -144l-72 71z" />
    <glyph glyph-name="Oslash" unicode="&#xd8;" horiz-adv-x="820" 
d="M223 37l-57 -69h-122l103 127q-50 50 -77 116.5t-27 140.5q0 153 105.5 258t261.5 105q51 0 98.5 -12.5t89.5 -36.5l56 69h122l-102 -127q50 -50 76.5 -116.5t26.5 -139.5q0 -153 -105.5 -258.5t-261.5 -105.5q-51 0 -98.5 12.5t-88.5 36.5zM410 605q-104 0 -173.5 -73
t-69.5 -180q0 -47 14.5 -90t42.5 -77l305 389q-26 15 -56 23t-63 8zM410 98q104 0 174 73t70 181q0 46 -14.5 88.5t-42.5 76.5l-305 -389q27 -15 56.5 -22.5t61.5 -7.5z" />
    <glyph glyph-name="Ugrave" unicode="&#xd9;" horiz-adv-x="728" 
d="M197 703v-445q0 -71 46 -115.5t119 -44.5q76 0 123 44.5t47 115.5v445h118v-453q0 -116 -81 -189t-206 -73q-124 0 -204.5 73.5t-80.5 188.5v453h119zM329 910l79 -145h-96l-91 145h108z" />
    <glyph glyph-name="Uacute" unicode="&#xda;" horiz-adv-x="728" 
d="M197 703v-445q0 -71 46 -115.5t119 -44.5q76 0 123 44.5t47 115.5v445h118v-453q0 -116 -81 -189t-206 -73q-124 0 -204.5 73.5t-80.5 188.5v453h119zM415 765h-94l81 145h109z" />
    <glyph glyph-name="Ucircumflex" unicode="&#xdb;" horiz-adv-x="728" 
d="M197 703v-445q0 -71 46 -115.5t119 -44.5q76 0 123 44.5t47 115.5v445h118v-453q0 -116 -81 -189t-206 -73q-124 0 -204.5 73.5t-80.5 188.5v453h119zM206 765l99 145h117l99 -145h-87l-71 87l-72 -87h-85z" />
    <glyph glyph-name="Udieresis" unicode="&#xdc;" horiz-adv-x="728" 
d="M197 703v-445q0 -71 46 -115.5t119 -44.5q76 0 123 44.5t47 115.5v445h118v-453q0 -116 -81 -189t-206 -73q-124 0 -204.5 73.5t-80.5 188.5v453h119zM337 838q0 -26 -18 -43.5t-44 -17.5q-27 0 -45 17.5t-18 43.5t18.5 44.5t44.5 18.5t44 -18.5t18 -44.5zM516 838
q0 -26 -17.5 -43.5t-44.5 -17.5t-44.5 17.5t-17.5 43.5t18 44.5t44 18.5t44 -18.5t18 -44.5z" />
    <glyph glyph-name="Yacute" unicode="&#xdd;" horiz-adv-x="652" 
d="M387 0h-119v261l-252 442h131l181 -328l183 328h125l-249 -434v-269zM379 765h-94l81 145h109z" />
    <glyph glyph-name="Thorn" unicode="&#xde;" horiz-adv-x="676" 
d="M205 703v-133h187q113 0 179.5 -56t66.5 -156q0 -104 -66.5 -163.5t-179.5 -59.5h-187v-135h-119v703h119zM517 357q0 52 -35 80t-99 28h-178v-225h178q64 0 99 30t35 87z" />
    <glyph glyph-name="germandbls" unicode="&#xdf;" horiz-adv-x="625" 
d="M589 205q0 -89 -63.5 -147t-161.5 -58h-97v96h81q60 0 94 30.5t34 83.5q0 50 -36.5 82.5t-91.5 32.5h-54v94h33q49 0 81 31.5t32 80.5q0 48 -33 78.5t-86 30.5q-59 0 -96 -38t-37 -100v-502h-114v490q0 115 68 181t181 66q97 0 161.5 -54t64.5 -140q0 -56 -29.5 -98
t-85.5 -64q73 -16 114 -63.5t41 -112.5z" />
    <glyph glyph-name="agrave" unicode="&#xe0;" horiz-adv-x="565" 
d="M498 0h-114v84q-27 -48 -70 -72t-100 -24q-75 0 -122.5 43t-47.5 111q0 64 40.5 106t122.5 62q38 9 80.5 14t98.5 6q-2 46 -30 72.5t-76 26.5q-47 0 -77.5 -22.5t-44.5 -67.5l-106 25q18 71 79.5 114t148.5 43q103 0 160.5 -55.5t57.5 -151.5v-314zM243 235
q-42 -11 -63 -31.5t-21 -49.5q0 -37 22 -57t61 -20q61 0 102.5 42t41.5 100v32q-51 -1 -82.5 -5t-60.5 -11zM244 738l79 -146h-96l-91 146h108z" />
    <glyph glyph-name="aacute" unicode="&#xe1;" horiz-adv-x="565" 
d="M498 0h-114v84q-27 -48 -70 -72t-100 -24q-75 0 -122.5 43t-47.5 111q0 64 40.5 106t122.5 62q38 9 80.5 14t98.5 6q-2 46 -30 72.5t-76 26.5q-47 0 -77.5 -22.5t-44.5 -67.5l-106 25q18 71 79.5 114t148.5 43q103 0 160.5 -55.5t57.5 -151.5v-314zM243 235
q-42 -11 -63 -31.5t-21 -49.5q0 -37 22 -57t61 -20q61 0 102.5 42t41.5 100v32q-51 -1 -82.5 -5t-60.5 -11zM330 592h-94l81 146h109z" />
    <glyph glyph-name="acircumflex" unicode="&#xe2;" horiz-adv-x="565" 
d="M498 0h-114v84q-27 -48 -70 -72t-100 -24q-75 0 -122.5 43t-47.5 111q0 64 40.5 106t122.5 62q38 9 80.5 14t98.5 6q-2 46 -30 72.5t-76 26.5q-47 0 -77.5 -22.5t-44.5 -67.5l-106 25q18 71 79.5 114t148.5 43q103 0 160.5 -55.5t57.5 -151.5v-314zM243 235
q-42 -11 -63 -31.5t-21 -49.5q0 -37 22 -57t61 -20q61 0 102.5 42t41.5 100v32q-51 -1 -82.5 -5t-60.5 -11zM121 592l99 146h117l99 -146h-87l-71 88l-72 -88h-85z" />
    <glyph glyph-name="atilde" unicode="&#xe3;" horiz-adv-x="565" 
d="M498 0h-114v84q-27 -48 -70 -72t-100 -24q-75 0 -122.5 43t-47.5 111q0 64 40.5 106t122.5 62q38 9 80.5 14t98.5 6q-2 46 -30 72.5t-76 26.5q-47 0 -77.5 -22.5t-44.5 -67.5l-106 25q18 71 79.5 114t148.5 43q103 0 160.5 -55.5t57.5 -151.5v-314zM243 235
q-42 -11 -63 -31.5t-21 -49.5q0 -37 22 -57t61 -20q61 0 102.5 42t41.5 100v32q-51 -1 -82.5 -5t-60.5 -11zM300 690q16 -13 23 -16.5t14 -3.5q13 0 20 11.5t10 38.5h74q-4 -66 -27.5 -98t-68.5 -32q-20 0 -36.5 7t-38.5 28q-15 14 -23 18t-17 4q-17 0 -26 -13.5t-12 -42.5
h-76q2 66 29.5 100t77.5 34q19 0 36 -7t41 -28z" />
    <glyph glyph-name="adieresis" unicode="&#xe4;" horiz-adv-x="565" 
d="M498 0h-114v84q-27 -48 -70 -72t-100 -24q-75 0 -122.5 43t-47.5 111q0 64 40.5 106t122.5 62q38 9 80.5 14t98.5 6q-2 46 -30 72.5t-76 26.5q-47 0 -77.5 -22.5t-44.5 -67.5l-106 25q18 71 79.5 114t148.5 43q103 0 160.5 -55.5t57.5 -151.5v-314zM243 235
q-42 -11 -63 -31.5t-21 -49.5q0 -37 22 -57t61 -20q61 0 102.5 42t41.5 100v32q-51 -1 -82.5 -5t-60.5 -11zM253 670q0 -25 -18.5 -43.5t-45.5 -18.5q-26 0 -44.5 18.5t-18.5 43.5q0 27 18 45t45 18t45.5 -18t18.5 -45zM432 670q0 -25 -18.5 -43.5t-45.5 -18.5
q-26 0 -44.5 18.5t-18.5 43.5q0 27 18 45t45 18t45.5 -18t18.5 -45z" />
    <glyph glyph-name="aring" unicode="&#xe5;" horiz-adv-x="565" 
d="M498 0h-114v84q-27 -48 -70 -72t-100 -24q-75 0 -122.5 43t-47.5 111q0 64 40.5 106t122.5 62q38 9 80.5 14t98.5 6q-2 46 -30 72.5t-76 26.5q-47 0 -77.5 -22.5t-44.5 -67.5l-106 25q18 71 79.5 114t148.5 43q103 0 160.5 -55.5t57.5 -151.5v-314zM243 235
q-42 -11 -63 -31.5t-21 -49.5q0 -37 22 -57t61 -20q61 0 102.5 42t41.5 100v32q-51 -1 -82.5 -5t-60.5 -11zM392 682q0 -45 -32.5 -74t-80.5 -29q-49 0 -81 29t-32 74q0 44 32 73t81 29q48 0 80.5 -29t32.5 -73zM279 728q-20 0 -33.5 -13.5t-13.5 -32.5q0 -20 13.5 -33.5
t33.5 -13.5q21 0 34 13.5t13 33.5t-13 33t-34 13z" />
    <glyph glyph-name="ae" unicode="&#xe6;" horiz-adv-x="938" 
d="M418 124q-29 -68 -80.5 -102t-122.5 -34q-75 0 -123 44t-48 112q0 64 40.5 105t122.5 61q36 9 76.5 14t102.5 7q-2 45 -30.5 71.5t-75.5 26.5q-48 0 -78 -22.5t-44 -67.5l-106 25q18 71 79.5 114t147.5 43q62 0 108 -24t70 -70q34 45 83.5 69.5t107.5 24.5
q111 0 181.5 -70.5t70.5 -175.5v-49h-403q7 -67 47.5 -106.5t102.5 -39.5q50 0 84 22.5t53 69.5l102 -29q-30 -75 -92 -115t-148 -40q-77 0 -136.5 36t-91.5 100zM647 430q-54 0 -93.5 -33.5t-52.5 -90.5h286q-13 60 -49.5 92t-90.5 32zM243 235q-42 -11 -63 -31.5
t-21 -49.5q0 -37 22 -57t61 -20q61 0 102.5 42t41.5 100v32q-51 -1 -82.5 -5t-60.5 -11z" />
    <glyph glyph-name="ccedilla" unicode="&#xe7;" horiz-adv-x="585" 
d="M342 -55q37 0 62 -26.5t25 -67.5q0 -50 -34.5 -81.5t-89.5 -31.5q-41 0 -74 21t-43 53l73 25q5 -15 16.5 -23t28.5 -8q19 0 30.5 11.5t11.5 29.5q0 19 -10.5 29.5t-29.5 10.5q-14 0 -25.5 -5.5t-22.5 -17.5l-57 33l58 95q-99 16 -161.5 89.5t-62.5 173.5q0 113 77 189.5
t194 76.5q89 0 155 -47t92 -127l-107 -35q-17 52 -54.5 82t-85.5 29q-67 -1 -112 -49t-45 -119q0 -72 45 -120t112 -48q51 0 90 30.5t56 81.5l102 -31q-25 -77 -85 -125t-140 -54l-35 -57q9 7 20 10t26 3z" />
    <glyph glyph-name="egrave" unicode="&#xe8;" horiz-adv-x="588" 
d="M550 275v-49h-403q7 -67 47.5 -106.5t102.5 -39.5q50 0 84 22.5t53 69.5l102 -29q-31 -75 -93 -115t-148 -40q-114 0 -185.5 74.5t-71.5 190.5q0 114 74 191t185 77t182 -70.5t71 -175.5zM297 430q-54 0 -92.5 -33t-52.5 -91h285q-13 60 -49.5 92t-90.5 32zM260 738
l79 -146h-96l-91 146h108z" />
    <glyph glyph-name="eacute" unicode="&#xe9;" horiz-adv-x="588" 
d="M550 275v-49h-403q7 -67 47.5 -106.5t102.5 -39.5q50 0 84 22.5t53 69.5l102 -29q-31 -75 -93 -115t-148 -40q-114 0 -185.5 74.5t-71.5 190.5q0 114 74 191t185 77t182 -70.5t71 -175.5zM297 430q-54 0 -92.5 -33t-52.5 -91h285q-13 60 -49.5 92t-90.5 32zM346 592h-94
l81 146h109z" />
    <glyph glyph-name="ecircumflex" unicode="&#xea;" horiz-adv-x="588" 
d="M550 275v-49h-403q7 -67 47.5 -106.5t102.5 -39.5q50 0 84 22.5t53 69.5l102 -29q-31 -75 -93 -115t-148 -40q-114 0 -185.5 74.5t-71.5 190.5q0 114 74 191t185 77t182 -70.5t71 -175.5zM297 430q-54 0 -92.5 -33t-52.5 -91h285q-13 60 -49.5 92t-90.5 32zM138 592
l99 146h117l99 -146h-87l-71 88l-72 -88h-85z" />
    <glyph glyph-name="edieresis" unicode="&#xeb;" horiz-adv-x="588" 
d="M550 275v-49h-403q7 -67 47.5 -106.5t102.5 -39.5q50 0 84 22.5t53 69.5l102 -29q-31 -75 -93 -115t-148 -40q-114 0 -185.5 74.5t-71.5 190.5q0 114 74 191t185 77t182 -70.5t71 -175.5zM297 430q-54 0 -92.5 -33t-52.5 -91h285q-13 60 -49.5 92t-90.5 32zM269 670
q0 -25 -18.5 -43.5t-45.5 -18.5q-26 0 -44.5 18.5t-18.5 43.5q0 27 18 45t45 18t45.5 -18t18.5 -45zM448 670q0 -25 -18.5 -43.5t-45.5 -18.5q-26 0 -44.5 18.5t-18.5 43.5q0 27 18 45t45 18t45.5 -18t18.5 -45z" />
    <glyph glyph-name="igrave" unicode="&#xec;" horiz-adv-x="262" 
d="M188 0h-114v509h114v-509zM96 738l79 -146h-96l-91 146h108z" />
    <glyph glyph-name="iacute" unicode="&#xed;" horiz-adv-x="262" 
d="M188 0h-114v509h114v-509zM182 592h-94l81 146h109z" />
    <glyph glyph-name="icircumflex" unicode="&#xee;" horiz-adv-x="262" 
d="M188 0h-114v509h114v-509zM-27 592l99 146h117l99 -146h-87l-71 88l-72 -88h-85z" />
    <glyph glyph-name="idieresis" unicode="&#xef;" horiz-adv-x="262" 
d="M188 0h-114v509h114v-509zM105 670q0 -25 -18.5 -43.5t-45.5 -18.5q-26 0 -44.5 18.5t-18.5 43.5q0 27 18 45t45 18t45.5 -18t18.5 -45zM284 670q0 -25 -18.5 -43.5t-45.5 -18.5q-26 0 -44.5 18.5t-18.5 43.5q0 27 18 45t45 18t45.5 -18t18.5 -45z" />
    <glyph glyph-name="eth" unicode="&#xf0;" horiz-adv-x="621" 
d="M38 255q0 109 71.5 187.5t170.5 78.5q54 0 97.5 -25.5t74.5 -74.5q-14 41 -40 83t-66 85l-160 -29v66l102 18q-21 19 -47 38.5t-59 42.5h142q23 -15 42 -30t36 -31l97 17v-65l-44 -8q60 -72 92 -159t32 -176q0 -122 -77 -203.5t-193 -81.5q-117 0 -194 76.5t-77 190.5z
M309 88q67 0 112 48t45 119q0 70 -45 118.5t-112 48.5q-68 0 -113 -48t-45 -119t45 -119t113 -48z" />
    <glyph glyph-name="ntilde" unicode="&#xf1;" horiz-adv-x="615" 
d="M188 0h-114v509h114v-86q25 47 68.5 72.5t98.5 25.5q88 0 140 -55t52 -147v-319h-114v298q0 59 -31 92t-88 33q-56 0 -91 -38.5t-35 -95.5v-289zM337 690q16 -13 23 -16.5t14 -3.5q13 0 20 11.5t10 38.5h74q-4 -66 -27.5 -98t-68.5 -32q-20 0 -36.5 7t-38.5 28
q-15 14 -23 18t-17 4q-17 0 -26 -13.5t-12 -42.5h-76q2 66 29.5 100t77.5 34q19 0 36 -7t41 -28z" />
    <glyph glyph-name="ograve" unicode="&#xf2;" horiz-adv-x="617" 
d="M37 255q0 113 77 189.5t194 76.5q116 0 193.5 -76.5t77.5 -189.5t-77.5 -190t-193.5 -77q-117 0 -194 76.5t-77 190.5zM466 255q0 72 -45 120.5t-113 48.5q-67 0 -112.5 -48.5t-45.5 -120.5t45.5 -121t112.5 -49q68 0 113 49t45 121zM273 738l79 -146h-96l-91 146h108z
" />
    <glyph glyph-name="oacute" unicode="&#xf3;" horiz-adv-x="617" 
d="M37 255q0 113 77 189.5t194 76.5q116 0 193.5 -76.5t77.5 -189.5t-77.5 -190t-193.5 -77q-117 0 -194 76.5t-77 190.5zM466 255q0 72 -45 120.5t-113 48.5q-67 0 -112.5 -48.5t-45.5 -120.5t45.5 -121t112.5 -49q68 0 113 49t45 121zM359 592h-94l81 146h109z" />
    <glyph glyph-name="ocircumflex" unicode="&#xf4;" horiz-adv-x="617" 
d="M37 255q0 113 77 189.5t194 76.5q116 0 193.5 -76.5t77.5 -189.5t-77.5 -190t-193.5 -77q-117 0 -194 76.5t-77 190.5zM466 255q0 72 -45 120.5t-113 48.5q-67 0 -112.5 -48.5t-45.5 -120.5t45.5 -121t112.5 -49q68 0 113 49t45 121zM150 592l99 146h117l99 -146h-87
l-71 88l-72 -88h-85z" />
    <glyph glyph-name="otilde" unicode="&#xf5;" horiz-adv-x="617" 
d="M37 255q0 113 77 189.5t194 76.5q116 0 193.5 -76.5t77.5 -189.5t-77.5 -190t-193.5 -77q-117 0 -194 76.5t-77 190.5zM466 255q0 72 -45 120.5t-113 48.5q-67 0 -112.5 -48.5t-45.5 -120.5t45.5 -121t112.5 -49q68 0 113 49t45 121zM330 690q16 -13 23 -16.5t14 -3.5
q13 0 20 11.5t10 38.5h74q-4 -66 -27.5 -98t-68.5 -32q-20 0 -36.5 7t-38.5 28q-15 14 -23 18t-17 4q-17 0 -26 -13.5t-12 -42.5h-76q2 66 29.5 100t77.5 34q19 0 36 -7t41 -28z" />
    <glyph glyph-name="odieresis" unicode="&#xf6;" horiz-adv-x="617" 
d="M37 255q0 113 77 189.5t194 76.5q116 0 193.5 -76.5t77.5 -189.5t-77.5 -190t-193.5 -77q-117 0 -194 76.5t-77 190.5zM466 255q0 72 -45 120.5t-113 48.5q-67 0 -112.5 -48.5t-45.5 -120.5t45.5 -121t112.5 -49q68 0 113 49t45 121zM282 670q0 -25 -18.5 -43.5
t-45.5 -18.5q-26 0 -44.5 18.5t-18.5 43.5q0 27 18 45t45 18t45.5 -18t18.5 -45zM461 670q0 -25 -18.5 -43.5t-45.5 -18.5q-26 0 -44.5 18.5t-18.5 43.5q0 27 18 45t45 18t45.5 -18t18.5 -45z" />
    <glyph glyph-name="divide" unicode="&#xf7;" 
d="M367 535q0 -28 -20.5 -48.5t-49.5 -20.5t-49 20t-20 49t20 49t49 20q30 0 50 -20t20 -49zM72 301v102h456v-102h-456zM366 168q0 -28 -20.5 -48.5t-49.5 -20.5t-49 20t-20 49t20 49t49 20q30 0 50 -20t20 -49z" />
    <glyph glyph-name="oslash" unicode="&#xf8;" horiz-adv-x="621" 
d="M183 17l-37 -49h-110l77 100q-36 37 -55 85t-19 102q0 113 77 189.5t194 76.5q35 0 67 -7.5t60 -21.5l38 49h110l-77 -101q35 -36 54 -84t19 -101q0 -113 -77.5 -190t-193.5 -77q-35 0 -67 7.5t-60 21.5zM310 424q-67 0 -112.5 -48.5t-45.5 -120.5q0 -28 8 -54.5
t24 -49.5l193 258q-15 8 -31.5 11.5t-35.5 3.5zM310 85q68 0 113 49t45 121q0 29 -8 55.5t-23 47.5l-194 -258q15 -7 32 -11t35 -4z" />
    <glyph glyph-name="ugrave" unicode="&#xf9;" horiz-adv-x="605" 
d="M417 509h114v-509h-114v87q-24 -47 -66 -73t-95 -26q-85 0 -136.5 55.5t-51.5 145.5v320h114v-299q0 -56 30 -89.5t83 -33.5q55 0 88.5 37.5t33.5 94.5v290zM264 738l79 -146h-96l-91 146h108z" />
    <glyph glyph-name="uacute" unicode="&#xfa;" horiz-adv-x="605" 
d="M417 509h114v-509h-114v87q-24 -47 -66 -73t-95 -26q-85 0 -136.5 55.5t-51.5 145.5v320h114v-299q0 -56 30 -89.5t83 -33.5q55 0 88.5 37.5t33.5 94.5v290zM350 592h-94l81 146h109z" />
    <glyph glyph-name="ucircumflex" unicode="&#xfb;" horiz-adv-x="605" 
d="M417 509h114v-509h-114v87q-24 -47 -66 -73t-95 -26q-85 0 -136.5 55.5t-51.5 145.5v320h114v-299q0 -56 30 -89.5t83 -33.5q55 0 88.5 37.5t33.5 94.5v290zM141 592l99 146h117l99 -146h-87l-71 88l-72 -88h-85z" />
    <glyph glyph-name="udieresis" unicode="&#xfc;" horiz-adv-x="605" 
d="M417 509h114v-509h-114v87q-24 -47 -66 -73t-95 -26q-85 0 -136.5 55.5t-51.5 145.5v320h114v-299q0 -56 30 -89.5t83 -33.5q55 0 88.5 37.5t33.5 94.5v290zM273 670q0 -25 -18.5 -43.5t-45.5 -18.5q-26 0 -44.5 18.5t-18.5 43.5q0 27 18 45t45 18t45.5 -18t18.5 -45z
M452 670q0 -25 -18.5 -43.5t-45.5 -18.5q-26 0 -44.5 18.5t-18.5 43.5q0 27 18 45t45 18t45.5 -18t18.5 -45z" />
    <glyph glyph-name="yacute" unicode="&#xfd;" horiz-adv-x="544" 
d="M415 509h116l-264 -699h-111l63 167l-207 532h123l140 -384zM323 592h-94l81 146h109z" />
    <glyph glyph-name="thorn" unicode="&#xfe;" horiz-adv-x="649" 
d="M371 521q104 0 171.5 -75t67.5 -190q0 -116 -68.5 -192t-173.5 -76q-58 0 -104.5 26t-75.5 75v-279h-114v915h114v-306q30 50 77 76t106 26zM492 255q0 71 -44 119t-110 48q-65 0 -109 -48t-44 -119t44 -119.5t109 -48.5q66 0 110 48.5t44 119.5z" />
    <glyph glyph-name="ydieresis" unicode="&#xff;" horiz-adv-x="544" 
d="M415 509h116l-264 -699h-111l63 167l-207 532h123l140 -384zM246 670q0 -25 -18.5 -43.5t-45.5 -18.5q-26 0 -44.5 18.5t-18.5 43.5q0 27 18 45t45 18t45.5 -18t18.5 -45zM425 670q0 -25 -18.5 -43.5t-45.5 -18.5q-26 0 -44.5 18.5t-18.5 43.5q0 27 18 45t45 18t45.5 -18
t18.5 -45z" />
    <glyph glyph-name="Amacron" unicode="&#x100;" horiz-adv-x="696" 
d="M277 703h142l263 -703h-127l-66 184h-289l-66 -184h-120zM345 591l-110 -308h218zM489 799h-280v79h280v-79z" />
    <glyph glyph-name="amacron" unicode="&#x101;" horiz-adv-x="565" 
d="M498 0h-114v84q-27 -48 -70 -72t-100 -24q-75 0 -122.5 43t-47.5 111q0 64 40.5 106t122.5 62q38 9 80.5 14t98.5 6q-2 46 -30 72.5t-76 26.5q-47 0 -77.5 -22.5t-44.5 -67.5l-106 25q18 71 79.5 114t148.5 43q103 0 160.5 -55.5t57.5 -151.5v-314zM243 235
q-42 -11 -63 -31.5t-21 -49.5q0 -37 22 -57t61 -20q61 0 102.5 42t41.5 100v32q-51 -1 -82.5 -5t-60.5 -11zM420 631h-280v79h280v-79z" />
    <glyph glyph-name="Abreve" unicode="&#x102;" horiz-adv-x="696" 
d="M277 703h142l263 -703h-127l-66 184h-289l-66 -184h-120zM345 591l-110 -308h218zM348 763q-68 0 -109 42t-41 105h83q0 -36 18 -56.5t50 -20.5t49.5 21t17.5 56h82q0 -63 -41 -105t-109 -42z" />
    <glyph glyph-name="abreve" unicode="&#x103;" horiz-adv-x="565" 
d="M498 0h-114v84q-27 -48 -70 -72t-100 -24q-75 0 -122.5 43t-47.5 111q0 64 40.5 106t122.5 62q38 9 80.5 14t98.5 6q-2 46 -30 72.5t-76 26.5q-47 0 -77.5 -22.5t-44.5 -67.5l-106 25q18 71 79.5 114t148.5 43q103 0 160.5 -55.5t57.5 -151.5v-314zM243 235
q-42 -11 -63 -31.5t-21 -49.5q0 -37 22 -57t61 -20q61 0 102.5 42t41.5 100v32q-51 -1 -82.5 -5t-60.5 -11zM279 591q-68 0 -109 41.5t-41 105.5h83q0 -36 18 -57t50 -21t49.5 21t17.5 57h82q0 -64 -41 -105.5t-109 -41.5z" />
    <glyph glyph-name="Aogonek" unicode="&#x104;" horiz-adv-x="696" 
d="M277 703h142l263 -703h-52q-42 -44 -61.5 -76t-19.5 -59q0 -20 10.5 -31t30.5 -11q11 0 21.5 2t18.5 6l24 -71q-19 -11 -38.5 -16.5t-42.5 -5.5q-48 0 -78.5 27.5t-30.5 71.5q0 40 19 75.5t71 88.5l-65 183h-289l-66 -184h-120zM345 591l-110 -308h218z" />
    <glyph glyph-name="aogonek" unicode="&#x105;" horiz-adv-x="565" 
d="M460 -169l24 -71q-19 -11 -38.5 -16.5t-42.5 -5.5q-48 0 -78.5 27.5t-30.5 71.5q0 40 19 75.5t71 88.5v83q-27 -48 -70 -72t-100 -24q-75 0 -122.5 43t-47.5 111q0 65 40.5 106.5t122.5 61.5q37 9 79 14t100 6q-2 46 -30 72.5t-76 26.5q-47 0 -77.5 -22.5t-44.5 -67.5
l-106 25q18 71 79.5 114t148.5 43q103 0 160.5 -55.5t57.5 -151.5v-314h-38q-42 -44 -61.5 -76t-19.5 -59q0 -20 10.5 -31t30.5 -11q11 0 21.5 2t18.5 6zM243 235q-42 -11 -63 -31.5t-21 -49.5q0 -37 22 -57t61 -20q61 0 102.5 42t41.5 100v32q-51 -1 -82.5 -5t-60.5 -11z
" />
    <glyph glyph-name="Cacute" unicode="&#x106;" horiz-adv-x="765" 
d="M404 99q77 0 135.5 41.5t88.5 117.5l110 -42q-42 -106 -131 -167t-202 -61q-154 0 -258.5 105.5t-104.5 258.5t104.5 258t258.5 105q111 0 196.5 -52t128.5 -146l-114 -52q-35 68 -89 103t-123 35q-101 0 -169.5 -73t-68.5 -178q0 -107 68.5 -180t169.5 -73zM456 765h-94
l81 145h109z" />
    <glyph glyph-name="cacute" unicode="&#x107;" horiz-adv-x="585" 
d="M308 87q51 0 90 30.5t56 81.5l102 -31q-27 -82 -93.5 -131t-154.5 -49q-117 0 -194 76.5t-77 190.5q0 113 77 189.5t194 76.5q89 0 155 -47t92 -127l-107 -35q-17 52 -54.5 82t-85.5 29q-67 -1 -112 -49t-45 -119q0 -72 45 -120t112 -48zM358 592h-94l81 146h109z" />
    <glyph glyph-name="Ccircumflex" unicode="&#x108;" horiz-adv-x="765" 
d="M404 99q77 0 135.5 41.5t88.5 117.5l110 -42q-42 -106 -131 -167t-202 -61q-154 0 -258.5 105.5t-104.5 258.5t104.5 258t258.5 105q111 0 196.5 -52t128.5 -146l-114 -52q-35 68 -89 103t-123 35q-101 0 -169.5 -73t-68.5 -178q0 -107 68.5 -180t169.5 -73zM247 765
l99 145h117l99 -145h-87l-71 87l-72 -87h-85z" />
    <glyph glyph-name="ccircumflex" unicode="&#x109;" horiz-adv-x="585" 
d="M308 87q51 0 90 30.5t56 81.5l102 -31q-27 -82 -93.5 -131t-154.5 -49q-117 0 -194 76.5t-77 190.5q0 113 77 189.5t194 76.5q89 0 155 -47t92 -127l-107 -35q-17 52 -54.5 82t-85.5 29q-67 -1 -112 -49t-45 -119q0 -72 45 -120t112 -48zM149 592l99 146h117l99 -146h-87
l-71 88l-72 -88h-85z" />
    <glyph glyph-name="Cdotaccent" unicode="&#x10a;" horiz-adv-x="765" 
d="M404 99q77 0 135.5 41.5t88.5 117.5l110 -42q-42 -106 -131 -167t-202 -61q-154 0 -258.5 105.5t-104.5 258.5t104.5 258t258.5 105q111 0 196.5 -52t128.5 -146l-114 -52q-35 68 -89 103t-123 35q-101 0 -169.5 -73t-68.5 -178q0 -107 68.5 -180t169.5 -73zM476 841
q0 -28 -20 -48t-49 -20q-30 0 -50 19.5t-20 48.5q0 30 20 49.5t50 19.5q29 0 49 -20t20 -49z" />
    <glyph glyph-name="cdotaccent" unicode="&#x10b;" horiz-adv-x="585" 
d="M308 87q51 0 90 30.5t56 81.5l102 -31q-27 -82 -93.5 -131t-154.5 -49q-117 0 -194 76.5t-77 190.5q0 113 77 189.5t194 76.5q89 0 155 -47t92 -127l-107 -35q-17 52 -54.5 82t-85.5 29q-67 -1 -112 -49t-45 -119q0 -72 45 -120t112 -48zM380 670q0 -28 -21 -48.5
t-50 -20.5t-49.5 20.5t-20.5 48.5q0 30 20 50t50 20t50.5 -20t20.5 -50z" />
    <glyph glyph-name="Ccaron" unicode="&#x10c;" horiz-adv-x="765" 
d="M404 99q77 0 135.5 41.5t88.5 117.5l110 -42q-42 -106 -131 -167t-202 -61q-154 0 -258.5 105.5t-104.5 258.5t104.5 258t258.5 105q111 0 196.5 -52t128.5 -146l-114 -52q-35 68 -89 103t-123 35q-101 0 -169.5 -73t-68.5 -178q0 -107 68.5 -180t169.5 -73zM561 910
l-99 -145h-117l-99 145h87l71 -87l73 87h84z" />
    <glyph glyph-name="ccaron" unicode="&#x10d;" horiz-adv-x="585" 
d="M308 87q51 0 90 30.5t56 81.5l102 -31q-27 -82 -93.5 -131t-154.5 -49q-117 0 -194 76.5t-77 190.5q0 113 77 189.5t194 76.5q89 0 155 -47t92 -127l-107 -35q-17 52 -54.5 82t-85.5 29q-67 -1 -112 -49t-45 -119q0 -72 45 -120t112 -48zM464 739l-99 -146h-117l-99 146
h87l71 -88l72 88h85z" />
    <glyph glyph-name="Dcaron" unicode="&#x10e;" horiz-adv-x="776" 
d="M86 703h279q162 0 264.5 -94t102.5 -251q0 -164 -102.5 -261t-264.5 -97h-279v703zM609 358q0 108 -68 171.5t-179 63.5h-157v-483h157q112 0 179.5 66.5t67.5 181.5zM521 910l-99 -145h-117l-99 145h87l71 -87l73 87h84z" />
    <glyph glyph-name="dcaron" unicode="&#x10f;" horiz-adv-x="701" 
d="M278 -12q-104 0 -171.5 75.5t-67.5 189.5q0 116 68.5 192t173.5 76q58 0 103.5 -25.5t76.5 -74.5v304h114v-725h-114v91q-31 -50 -78 -76.5t-105 -26.5zM156 254q0 -70 44.5 -118.5t110.5 -48.5q65 0 109 48t44 119t-44 119.5t-109 48.5q-66 0 -110.5 -48.5t-44.5 -119.5
zM702 737q30 0 47.5 -19.5t17.5 -50.5q0 -47 -21.5 -80t-83.5 -69l-29 41q41 27 49.5 37t13.5 21q-25 2 -41 18.5t-16 39.5q0 27 17.5 44.5t45.5 17.5z" />
    <glyph glyph-name="Dcroat" unicode="&#x110;" horiz-adv-x="786" 
d="M96 703h279q162 0 264.5 -94t102.5 -251q0 -164 -102.5 -261t-264.5 -97h-279v306h-75v90h75v307zM215 396h182v-90h-182v-196h157q112 0 179.5 66.5t67.5 181.5q0 108 -68 171.5t-179 63.5h-157v-197z" />
    <glyph glyph-name="dcroat" unicode="&#x111;" horiz-adv-x="649" 
d="M278 -12q-104 0 -171.5 75.5t-67.5 189.5q0 116 68.5 192t173.5 76q58 0 103.5 -25.5t76.5 -74.5v166h-160v71h160v67h114v-67h73v-71h-73v-587h-114v91q-31 -50 -78 -76.5t-105 -26.5zM156 254q0 -70 44.5 -118.5t110.5 -48.5q65 0 109 48t44 119t-44 119.5t-109 48.5
q-66 0 -110.5 -48.5t-44.5 -119.5z" />
    <glyph glyph-name="Emacron" unicode="&#x112;" horiz-adv-x="630" 
d="M578 0h-492v703h487v-106h-368v-190h344v-102h-344v-199h373v-106zM470 799h-280v79h280v-79z" />
    <glyph glyph-name="emacron" unicode="&#x113;" horiz-adv-x="588" 
d="M550 275v-49h-403q7 -67 47.5 -106.5t102.5 -39.5q50 0 84 22.5t53 69.5l102 -29q-31 -75 -93 -115t-148 -40q-114 0 -185.5 74.5t-71.5 190.5q0 114 74 191t185 77t182 -70.5t71 -175.5zM297 430q-54 0 -92.5 -33t-52.5 -91h285q-13 60 -49.5 92t-90.5 32zM436 631h-280
v79h280v-79z" />
    <glyph glyph-name="Ebreve" unicode="&#x114;" horiz-adv-x="630" 
d="M578 0h-492v703h487v-106h-368v-190h344v-102h-344v-199h373v-106zM329 763q-68 0 -109 42t-41 105h83q0 -36 18 -56.5t50 -20.5t49.5 21t17.5 56h82q0 -63 -41 -105t-109 -42z" />
    <glyph glyph-name="ebreve" unicode="&#x115;" horiz-adv-x="588" 
d="M550 275v-49h-403q7 -67 47.5 -106.5t102.5 -39.5q50 0 84 22.5t53 69.5l102 -29q-31 -75 -93 -115t-148 -40q-114 0 -185.5 74.5t-71.5 190.5q0 114 74 191t185 77t182 -70.5t71 -175.5zM297 430q-54 0 -92.5 -33t-52.5 -91h285q-13 60 -49.5 92t-90.5 32zM296 591
q-68 0 -109 41.5t-41 105.5h83q0 -36 18 -57t50 -21t49.5 21t17.5 57h82q0 -64 -41 -105.5t-109 -41.5z" />
    <glyph glyph-name="Edotaccent" unicode="&#x116;" horiz-adv-x="630" 
d="M578 0h-492v703h487v-106h-368v-190h344v-102h-344v-199h373v-106zM400 841q0 -28 -20 -48t-49 -20q-30 0 -50 19.5t-20 48.5q0 30 20 49.5t50 19.5q29 0 49 -20t20 -49z" />
    <glyph glyph-name="edotaccent" unicode="&#x117;" horiz-adv-x="588" 
d="M550 275v-49h-403q7 -67 47.5 -106.5t102.5 -39.5q50 0 84 22.5t53 69.5l102 -29q-31 -75 -93 -115t-148 -40q-114 0 -185.5 74.5t-71.5 190.5q0 114 74 191t185 77t182 -70.5t71 -175.5zM297 430q-54 0 -92.5 -33t-52.5 -91h285q-13 60 -49.5 92t-90.5 32zM368 670
q0 -28 -21 -48.5t-50 -20.5t-49.5 20.5t-20.5 48.5q0 30 20 50t50 20t50.5 -20t20.5 -50z" />
    <glyph glyph-name="Eogonek" unicode="&#x118;" horiz-adv-x="630" 
d="M419 0h-333v703h487v-106h-368v-190h344v-102h-344v-199h373v-106h-82q-42 -44 -61.5 -76t-19.5 -59q0 -20 10.5 -31t30.5 -11q11 0 21.5 2t18.5 6l24 -71q-19 -11 -38.5 -16.5t-42.5 -5.5q-48 0 -78.5 27.5t-30.5 71.5q0 40 18.5 75t70.5 88z" />
    <glyph glyph-name="eogonek" unicode="&#x119;" horiz-adv-x="587" 
d="M550 265v-39h-403q7 -67 47.5 -106.5t102.5 -39.5q50 0 84 22.5t53 69.5l102 -29q-11 -24 -26.5 -45.5t-52.5 -60.5q-9 -9 -35.5 -35t-39.5 -41q-21 -26 -30.5 -48.5t-9.5 -46.5q0 -21 10.5 -32t30.5 -11q11 0 21 2t19 6l24 -71q-21 -12 -41 -17t-41 -5q-48 0 -78.5 29.5
t-30.5 75.5q0 35 19 72t57 75q-6 -1 -14 -1.5t-23 -0.5q-114 0 -185.5 74.5t-71.5 190.5q0 114 73.5 191t184.5 77q113 0 183.5 -72t70.5 -184zM297 430q-54 0 -92.5 -33.5t-52.5 -90.5h288q-14 60 -51.5 92t-91.5 32z" />
    <glyph glyph-name="Ecaron" unicode="&#x11a;" horiz-adv-x="630" 
d="M578 0h-492v703h487v-106h-368v-190h344v-102h-344v-199h373v-106zM485 910l-99 -145h-117l-99 145h87l71 -87l73 87h84z" />
    <glyph glyph-name="ecaron" unicode="&#x11b;" horiz-adv-x="588" 
d="M550 275v-49h-403q7 -67 47.5 -106.5t102.5 -39.5q50 0 84 22.5t53 69.5l102 -29q-31 -75 -93 -115t-148 -40q-114 0 -185.5 74.5t-71.5 190.5q0 114 74 191t185 77t182 -70.5t71 -175.5zM297 430q-54 0 -92.5 -33t-52.5 -91h285q-13 60 -49.5 92t-90.5 32zM453 739
l-99 -146h-117l-99 146h87l71 -88l72 88h85z" />
    <glyph glyph-name="Gcircumflex" unicode="&#x11c;" horiz-adv-x="802" 
d="M743 393v-393h-111v120q-37 -64 -100 -98t-144 -34q-148 0 -247 105t-99 259q0 153 105 258t260 105q111 0 198.5 -54t128.5 -148l-111 -48q-35 67 -90.5 103t-125.5 36q-103 0 -172 -73t-69 -179q0 -109 68.5 -182t172.5 -73q97 0 157 52.5t65 146.5h-224v97h338z
M249 765l99 145h117l99 -145h-87l-71 87l-72 -87h-85z" />
    <glyph glyph-name="gcircumflex" unicode="&#x11d;" horiz-adv-x="631" 
d="M274 26q-99 0 -164 70.5t-65 176.5t66 177t166 71q54 0 97 -23.5t70 -68.5v80h114v-470q0 -109 -70 -174t-190 -65q-101 0 -171 47t-86 125l111 28q12 -52 50 -80t98 -28q65 0 104.5 37.5t39.5 99.5v92q-28 -46 -71.5 -70.5t-98.5 -24.5zM304 424q-61 0 -101.5 -43.5
t-40.5 -107.5t40.5 -107.5t101.5 -43.5t102 43.5t41 107.5t-41 107.5t-102 43.5zM145 592l99 146h117l99 -146h-87l-71 88l-72 -88h-85z" />
    <glyph glyph-name="Gbreve" unicode="&#x11e;" horiz-adv-x="802" 
d="M743 393v-393h-111v120q-37 -64 -100 -98t-144 -34q-148 0 -247 105t-99 259q0 153 105 258t260 105q111 0 198.5 -54t128.5 -148l-111 -48q-35 67 -90.5 103t-125.5 36q-103 0 -172 -73t-69 -179q0 -109 68.5 -182t172.5 -73q97 0 157 52.5t65 146.5h-224v97h338z
M407 763q-68 0 -109 42t-41 105h83q0 -36 18 -56.5t50 -20.5t49.5 21t17.5 56h82q0 -63 -41 -105t-109 -42z" />
    <glyph glyph-name="gbreve" unicode="&#x11f;" horiz-adv-x="631" 
d="M274 26q-99 0 -164 70.5t-65 176.5t66 177t166 71q54 0 97 -23.5t70 -68.5v80h114v-470q0 -109 -70 -174t-190 -65q-101 0 -171 47t-86 125l111 28q12 -52 50 -80t98 -28q65 0 104.5 37.5t39.5 99.5v92q-28 -46 -71.5 -70.5t-98.5 -24.5zM304 424q-61 0 -101.5 -43.5
t-40.5 -107.5t40.5 -107.5t101.5 -43.5t102 43.5t41 107.5t-41 107.5t-102 43.5zM302 591q-68 0 -109 41.5t-41 105.5h83q0 -36 18 -57t50 -21t49.5 21t17.5 57h82q0 -64 -41 -105.5t-109 -41.5z" />
    <glyph glyph-name="Gdotaccent" unicode="&#x120;" horiz-adv-x="802" 
d="M743 393v-393h-111v120q-37 -64 -100 -98t-144 -34q-148 0 -247 105t-99 259q0 153 105 258t260 105q111 0 198.5 -54t128.5 -148l-111 -48q-35 67 -90.5 103t-125.5 36q-103 0 -172 -73t-69 -179q0 -109 68.5 -182t172.5 -73q97 0 157 52.5t65 146.5h-224v97h338z
M478 841q0 -28 -20 -48t-49 -20q-30 0 -50 19.5t-20 48.5q0 30 20 49.5t50 19.5q29 0 49 -20t20 -49z" />
    <glyph glyph-name="gdotaccent" unicode="&#x121;" horiz-adv-x="631" 
d="M274 26q-99 0 -164 70.5t-65 176.5t66 177t166 71q54 0 97 -23.5t70 -68.5v80h114v-470q0 -109 -70 -174t-190 -65q-101 0 -171 47t-86 125l111 28q12 -52 50 -80t98 -28q65 0 104.5 37.5t39.5 99.5v92q-28 -46 -71.5 -70.5t-98.5 -24.5zM304 424q-61 0 -101.5 -43.5
t-40.5 -107.5t40.5 -107.5t101.5 -43.5t102 43.5t41 107.5t-41 107.5t-102 43.5zM378 670q0 -28 -21 -48.5t-50 -20.5t-49.5 20.5t-20.5 48.5q0 30 20 50t50 20t50.5 -20t20.5 -50z" />
    <glyph glyph-name="uni0122" unicode="&#x122;" horiz-adv-x="802" 
d="M743 393v-393h-111v120q-37 -64 -100 -98t-144 -34q-148 0 -247 105t-99 259q0 153 105 258t260 105q111 0 198.5 -54t128.5 -148l-111 -48q-35 67 -90.5 103t-125.5 36q-103 0 -172 -73t-69 -179q0 -109 68.5 -182t172.5 -73q97 0 157 52.5t65 146.5h-224v97h338z
M402 -56q30 0 47.5 -19.5t17.5 -50.5q0 -47 -21.5 -80t-83.5 -69l-29 41q41 27 49.5 37t13.5 21q-25 2 -41 18.5t-16 39.5q0 27 17.5 44.5t45.5 17.5z" />
    <glyph glyph-name="uni0123" unicode="&#x123;" horiz-adv-x="631" 
d="M274 26q-99 0 -164 70.5t-65 176.5t66 177t166 71q54 0 97 -23.5t70 -68.5v80h114v-470q0 -109 -70 -174t-190 -65q-101 0 -171 47t-86 125l111 28q12 -52 50 -80t98 -28q65 0 104.5 37.5t39.5 99.5v92q-28 -46 -71.5 -70.5t-98.5 -24.5zM304 424q-61 0 -101.5 -43.5
t-40.5 -107.5t40.5 -107.5t101.5 -43.5t102 43.5t41 107.5t-41 107.5t-102 43.5zM308 586q-30 0 -47.5 19.5t-17.5 50.5q0 47 21.5 80t83.5 69l29 -41q-41 -27 -49.5 -37t-13.5 -21q25 -2 41 -18.5t16 -39.5q0 -27 -17.5 -44.5t-45.5 -17.5z" />
    <glyph glyph-name="Hcircumflex" unicode="&#x124;" horiz-adv-x="755" 
d="M205 0h-119v703h119v-293h346v293h118v-703h-118v300h-346v-300zM219 765l99 145h117l99 -145h-87l-71 87l-72 -87h-85z" />
    <glyph glyph-name="hcircumflex" unicode="&#x125;" horiz-adv-x="615" 
d="M188 0h-114v725h114v-302q25 47 68.5 72.5t98.5 25.5q88 0 140 -55t52 -147v-319h-114v298q0 59 -31 92t-88 33q-56 0 -91 -38.5t-35 -95.5v-289zM154 785l99 146h117l99 -146h-87l-71 88l-72 -88h-85z" />
    <glyph glyph-name="Hbar" unicode="&#x126;" horiz-adv-x="766" 
d="M210 0h-119v506h-58v85h58v112h119v-112h346v112h118v-112h58v-85h-58v-506h-118v300h-346v-300zM210 506v-96h346v96h-346z" />
    <glyph glyph-name="hbar" unicode="&#x127;" horiz-adv-x="615" 
d="M188 0h-114v587h-73v71h73v67h114v-67h160v-71h-160v-164q25 47 68.5 72.5t98.5 25.5q88 0 140 -55t52 -147v-319h-114v298q0 59 -31 92t-88 33q-56 0 -91 -38.5t-35 -95.5v-289z" />
    <glyph glyph-name="Itilde" unicode="&#x128;" horiz-adv-x="290" 
d="M205 0h-119v703h119v-703zM167 862q16 -13 23 -16.5t14 -3.5q13 0 20 11.5t10 38.5h74q-4 -66 -27.5 -98t-68.5 -32q-20 0 -36.5 7t-38.5 28q-15 14 -23 18t-17 4q-17 0 -26 -13t-12 -42h-76q2 65 29.5 99t77.5 34q19 0 36 -7t41 -28z" />
    <glyph glyph-name="itilde" unicode="&#x129;" horiz-adv-x="262" 
d="M188 0h-114v509h114v-509zM152 690q16 -13 23 -16.5t14 -3.5q13 0 20 11.5t10 38.5h74q-4 -66 -27.5 -98t-68.5 -32q-20 0 -36.5 7t-38.5 28q-15 14 -23 18t-17 4q-17 0 -26 -13.5t-12 -42.5h-76q2 66 29.5 100t77.5 34q19 0 36 -7t41 -28z" />
    <glyph glyph-name="Imacron" unicode="&#x12a;" horiz-adv-x="290" 
d="M205 0h-119v703h119v-703zM286 799h-280v79h280v-79z" />
    <glyph glyph-name="imacron" unicode="&#x12b;" horiz-adv-x="262" 
d="M188 0h-114v509h114v-509zM272 631h-280v79h280v-79z" />
    <glyph glyph-name="Iogonek" unicode="&#x12e;" horiz-adv-x="290" 
d="M161 -169l24 -71q-19 -11 -38.5 -16.5t-42.5 -5.5q-48 0 -78.5 27.5t-30.5 71.5q0 40 18.5 75t72.5 90v701h119v-703h-44q-42 -44 -61.5 -76t-19.5 -59q0 -20 10.5 -31t30.5 -11q11 0 21.5 2t18.5 6z" />
    <glyph glyph-name="iogonek" unicode="&#x12f;" horiz-adv-x="262" 
d="M205 670q0 -30 -21.5 -51t-52.5 -21t-52 21t-21 51t21 51t52 21t52.5 -21t21.5 -51zM150 -169l24 -71q-19 -11 -38.5 -16.5t-42.5 -5.5q-48 0 -78.5 27.5t-30.5 71.5q0 40 19 75.5t71 88.5v508h114v-509h-38q-42 -44 -61.5 -76t-19.5 -59q0 -20 10.5 -31t30.5 -11
q11 0 21.5 2t18.5 6z" />
    <glyph glyph-name="Idotaccent" unicode="&#x130;" horiz-adv-x="290" 
d="M205 0h-119v703h119v-703zM216 841q0 -28 -20 -48t-49 -20q-30 0 -50 19.5t-20 48.5q0 30 20 49.5t50 19.5q29 0 49 -20t20 -49z" />
    <glyph glyph-name="dotlessi" unicode="&#x131;" horiz-adv-x="262" 
d="M188 0h-114v509h114v-509z" />
    <glyph glyph-name="IJ" unicode="&#x132;" horiz-adv-x="896" 
d="M205 0h-119v703h119v-703zM564 95q60 0 97 36.5t37 96.5v475h119v-478q0 -105 -71.5 -171t-182.5 -66q-112 0 -182.5 62.5t-70.5 161.5q0 18 3 34.5t8 30.5l122 10q-7 -16 -11 -33.5t-4 -35.5q0 -56 37 -89.5t99 -33.5z" />
    <glyph glyph-name="ij" unicode="&#x133;" horiz-adv-x="525" 
d="M205 670q0 -30 -21.5 -51t-52.5 -21t-52 21t-21 51t21 51t52 21t52.5 -21t21.5 -51zM188 0h-114v509h114v-509zM467 670q0 -30 -21.5 -51t-52.5 -21t-52 21t-21 51t21 51t52 21t52.5 -21t21.5 -51zM450 509v-531q0 -84 -45.5 -126t-137.5 -42h-56v96h48q39 0 58 19.5
t19 61.5v522h114z" />
    <glyph glyph-name="Jcircumflex" unicode="&#x134;" horiz-adv-x="606" 
d="M274 95q60 0 97 36.5t37 96.5v475h119v-478q0 -105 -71.5 -171t-182.5 -66q-112 0 -182.5 62.5t-70.5 161.5q0 18 3 34.5t8 30.5l122 10q-7 -16 -11 -33.5t-4 -35.5q0 -56 37 -89.5t99 -33.5zM309 765l99 145h117l99 -145h-87l-71 87l-72 -87h-85z" />
    <glyph glyph-name="jcircumflex" unicode="&#x135;" horiz-adv-x="262" 
d="M188 509v-531q0 -84 -45.5 -126t-137.5 -42h-56v96h48q39 0 58 19.5t19 61.5v522h114zM-27 592l99 146h117l99 -146h-87l-71 88l-72 -88h-85z" />
    <glyph glyph-name="uni0136" unicode="&#x136;" horiz-adv-x="665" 
d="M86 703h119v-349l309 349h141l-264 -303l271 -400h-144l-208 314l-105 -118v-196h-119v703zM359 -56q30 0 47.5 -19.5t17.5 -50.5q0 -47 -21.5 -80t-83.5 -69l-29 41q41 27 49.5 37t13.5 21q-25 2 -41 18.5t-16 39.5q0 27 17.5 44.5t45.5 17.5z" />
    <glyph glyph-name="uni0137" unicode="&#x137;" horiz-adv-x="567" 
d="M188 0h-114v725h114v-451l217 235h134l-187 -199l222 -310h-139l-160 230l-87 -91v-139zM308 -56q30 0 47.5 -19.5t17.5 -50.5q0 -47 -21.5 -80t-83.5 -69l-29 41q41 27 49.5 37t13.5 21q-25 2 -41 18.5t-16 39.5q0 27 17.5 44.5t45.5 17.5z" />
    <glyph glyph-name="kgreenlandic" unicode="&#x138;" horiz-adv-x="567" 
d="M188 0h-114v509h114v-235l217 235h134l-187 -199l222 -310h-139l-160 230l-87 -91v-139z" />
    <glyph glyph-name="Lacute" unicode="&#x139;" horiz-adv-x="568" 
d="M554 0h-468v703h119v-596h349v-107zM197 765h-94l81 145h109z" />
    <glyph glyph-name="lacute" unicode="&#x13a;" horiz-adv-x="262" 
d="M188 0h-114v725h114v-725zM182 785h-94l81 146h109z" />
    <glyph glyph-name="uni013B" unicode="&#x13b;" horiz-adv-x="568" 
d="M554 0h-468v703h119v-596h349v-107zM317 -56q30 0 47.5 -19.5t17.5 -50.5q0 -47 -21.5 -80t-83.5 -69l-29 41q41 27 49.5 37t13.5 21q-25 2 -41 18.5t-16 39.5q0 27 17.5 44.5t45.5 17.5z" />
    <glyph glyph-name="uni013C" unicode="&#x13c;" horiz-adv-x="262" 
d="M188 0h-114v725h114v-725zM129 -56q30 0 47.5 -19.5t17.5 -50.5q0 -47 -21.5 -80t-83.5 -69l-29 41q41 27 49.5 37t13.5 21q-25 2 -41 18.5t-16 39.5q0 27 17.5 44.5t45.5 17.5z" />
    <glyph glyph-name="Lcaron" unicode="&#x13d;" horiz-adv-x="569" 
d="M554 0h-468v703h119v-596h349v-107zM332 737q30 0 47.5 -19.5t17.5 -50.5q0 -47 -21.5 -80t-83.5 -69l-29 41q41 27 49.5 37t13.5 21q-25 2 -41 18.5t-16 39.5q0 27 17.5 44.5t45.5 17.5z" />
    <glyph glyph-name="lcaron" unicode="&#x13e;" horiz-adv-x="315" 
d="M188 0h-114v725h114v-725zM316 737q30 0 47.5 -19.5t17.5 -50.5q0 -47 -21.5 -80t-83.5 -69l-29 41q41 27 49.5 37t13.5 21q-25 2 -41 18.5t-16 39.5q0 27 17.5 44.5t45.5 17.5z" />
    <glyph glyph-name="Ldot" unicode="&#x13f;" horiz-adv-x="579" 
d="M554 0h-468v703h119v-596h349v-107zM508 362q0 -32 -22 -54t-54 -22t-54 22.5t-22 53.5q0 32 22 53.5t54 21.5q33 0 54.5 -21.5t21.5 -53.5z" />
    <glyph glyph-name="ldot" unicode="&#x140;" horiz-adv-x="374" 
d="M188 0h-114v725h114v-725zM394 362q0 -32 -22 -54t-54 -22t-54 22.5t-22 53.5q0 32 22 53.5t54 21.5q33 0 54.5 -21.5t21.5 -53.5z" />
    <glyph glyph-name="Lslash" unicode="&#x141;" horiz-adv-x="608" 
d="M594 0h-468v252l-90 -49v103l90 49v348h119v-282l126 69v-103l-126 -69v-211h349v-107z" />
    <glyph glyph-name="lslash" unicode="&#x142;" horiz-adv-x="360" 
d="M240 0h-114v303l-101 -56v93l101 55v330h114v-267l103 56v-92l-103 -57v-365z" />
    <glyph glyph-name="Nacute" unicode="&#x143;" horiz-adv-x="755" 
d="M197 0h-111v703h162l310 -547v547h111v-703h-150l-322 568v-568zM429 765h-94l81 145h109z" />
    <glyph glyph-name="nacute" unicode="&#x144;" horiz-adv-x="615" 
d="M188 0h-114v509h114v-86q25 47 68.5 72.5t98.5 25.5q88 0 140 -55t52 -147v-319h-114v298q0 59 -31 92t-88 33q-56 0 -91 -38.5t-35 -95.5v-289zM366 592h-94l81 146h109z" />
    <glyph glyph-name="uni0145" unicode="&#x145;" horiz-adv-x="755" 
d="M197 0h-111v703h162l310 -547v547h111v-703h-150l-322 568v-568zM375 -56q30 0 47.5 -19.5t17.5 -50.5q0 -47 -21.5 -80t-83.5 -69l-29 41q41 27 49.5 37t13.5 21q-25 2 -41 18.5t-16 39.5q0 27 17.5 44.5t45.5 17.5z" />
    <glyph glyph-name="uni0146" unicode="&#x146;" horiz-adv-x="615" 
d="M188 0h-114v509h114v-86q25 47 68.5 72.5t98.5 25.5q88 0 140 -55t52 -147v-319h-114v298q0 59 -31 92t-88 33q-56 0 -91 -38.5t-35 -95.5v-289zM308 -56q30 0 47.5 -19.5t17.5 -50.5q0 -47 -21.5 -80t-83.5 -69l-29 41q41 27 49.5 37t13.5 21q-25 2 -41 18.5t-16 39.5
q0 27 17.5 44.5t45.5 17.5z" />
    <glyph glyph-name="Ncaron" unicode="&#x147;" horiz-adv-x="755" 
d="M197 0h-111v703h162l310 -547v547h111v-703h-150l-322 568v-568zM534 910l-99 -145h-117l-99 145h87l71 -87l73 87h84z" />
    <glyph glyph-name="ncaron" unicode="&#x148;" horiz-adv-x="615" 
d="M188 0h-114v509h114v-86q25 47 68.5 72.5t98.5 25.5q88 0 140 -55t52 -147v-319h-114v298q0 59 -31 92t-88 33q-56 0 -91 -38.5t-35 -95.5v-289zM472 739l-99 -146h-117l-99 146h87l71 -88l72 88h85z" />
    <glyph glyph-name="napostrophe" unicode="&#x149;" horiz-adv-x="624" 
d="M197 0h-114v509h114v-86q25 47 68.5 72.5t98.5 25.5q88 0 140 -55t52 -147v-319h-114v298q0 59 -31 92t-88 33q-56 0 -91 -38.5t-35 -95.5v-289zM59 746q30 0 47.5 -19.5t17.5 -50.5q0 -47 -21.5 -80t-83.5 -69l-29 41q41 27 49.5 37t13.5 21q-25 2 -41 18.5t-16 39.5
q0 27 17.5 44.5t45.5 17.5z" />
    <glyph glyph-name="Omacron" unicode="&#x14c;" horiz-adv-x="819" 
d="M42 352q0 153 105.5 258t261.5 105t261.5 -105t105.5 -258t-105.5 -258.5t-261.5 -105.5t-261.5 105.5t-105.5 258.5zM409 98q104 0 174 73t70 181q0 106 -70 179.5t-174 73.5t-173.5 -73t-69.5 -180q0 -108 69.5 -181t173.5 -73zM550 799h-280v79h280v-79z" />
    <glyph glyph-name="omacron" unicode="&#x14d;" horiz-adv-x="617" 
d="M37 255q0 113 77 189.5t194 76.5q116 0 193.5 -76.5t77.5 -189.5t-77.5 -190t-193.5 -77q-117 0 -194 76.5t-77 190.5zM466 255q0 72 -45 120.5t-113 48.5q-67 0 -112.5 -48.5t-45.5 -120.5t45.5 -121t112.5 -49q68 0 113 49t45 121zM449 631h-280v79h280v-79z" />
    <glyph glyph-name="Obreve" unicode="&#x14e;" horiz-adv-x="819" 
d="M42 352q0 153 105.5 258t261.5 105t261.5 -105t105.5 -258t-105.5 -258.5t-261.5 -105.5t-261.5 105.5t-105.5 258.5zM409 98q104 0 174 73t70 181q0 106 -70 179.5t-174 73.5t-173.5 -73t-69.5 -180q0 -108 69.5 -181t173.5 -73zM409 763q-68 0 -109 42t-41 105h83
q0 -36 18 -56.5t50 -20.5t49.5 21t17.5 56h82q0 -63 -41 -105t-109 -42z" />
    <glyph glyph-name="obreve" unicode="&#x14f;" horiz-adv-x="617" 
d="M37 255q0 113 77 189.5t194 76.5q116 0 193.5 -76.5t77.5 -189.5t-77.5 -190t-193.5 -77q-117 0 -194 76.5t-77 190.5zM466 255q0 72 -45 120.5t-113 48.5q-67 0 -112.5 -48.5t-45.5 -120.5t45.5 -121t112.5 -49q68 0 113 49t45 121zM308 591q-68 0 -109 41.5t-41 105.5
h83q0 -36 18 -57t50 -21t49.5 21t17.5 57h82q0 -64 -41 -105.5t-109 -41.5z" />
    <glyph glyph-name="Ohungarumlaut" unicode="&#x150;" horiz-adv-x="819" 
d="M42 352q0 153 105.5 258t261.5 105t261.5 -105t105.5 -258t-105.5 -258.5t-261.5 -105.5t-261.5 105.5t-105.5 258.5zM409 98q104 0 174 73t70 181q0 106 -70 179.5t-174 73.5t-173.5 -73t-69.5 -180q0 -108 69.5 -181t173.5 -73zM368 765h-85l71 145h102zM525 765h-87
l75 145h102z" />
    <glyph glyph-name="ohungarumlaut" unicode="&#x151;" horiz-adv-x="617" 
d="M37 255q0 113 77 189.5t194 76.5q116 0 193.5 -76.5t77.5 -189.5t-77.5 -190t-193.5 -77q-117 0 -194 76.5t-77 190.5zM466 255q0 72 -45 120.5t-113 48.5q-67 0 -112.5 -48.5t-45.5 -120.5t45.5 -121t112.5 -49q68 0 113 49t45 121zM270 592h-86l71 146h103zM425 592
h-87l75 146h102z" />
    <glyph glyph-name="OE" unicode="&#x152;" horiz-adv-x="1064" 
d="M44 358q0 157 102.5 251t264.5 94h596v-106h-369v-190h345v-102h-345v-199h374v-106h-601q-162 0 -264.5 97t-102.5 261zM168 358q0 -117 67.5 -184.5t178.5 -67.5h105v491h-105q-111 0 -178.5 -64.5t-67.5 -174.5z" />
    <glyph glyph-name="oe" unicode="&#x153;" horiz-adv-x="1019" 
d="M37 255q0 113 76.5 189.5t192.5 76.5q69 0 125.5 -30t91.5 -84q33 55 87 84.5t120 29.5q110 0 180.5 -70.5t70.5 -175.5v-49h-404q7 -66 48 -106t103 -40q50 0 84 22.5t53 69.5l102 -29q-31 -75 -92.5 -115t-146.5 -40q-68 0 -121.5 29.5t-85.5 83.5q-35 -54 -91 -83.5
t-124 -29.5q-116 0 -192.5 76.5t-76.5 190.5zM727 430q-54 0 -93 -34t-52 -90h286q-14 60 -50.5 92t-90.5 32zM308 85q68 0 113 49t45 121t-45 120.5t-113 48.5q-67 0 -112.5 -48.5t-45.5 -120.5t45.5 -121t112.5 -49z" />
    <glyph glyph-name="Racute" unicode="&#x154;" horiz-adv-x="694" 
d="M535 0l-64 177q-14 40 -25.5 56.5t-26.5 25.5q-17 10 -40.5 14.5t-58.5 4.5h-115v-278h-119v703h294q113 0 183 -51.5t70 -139.5q0 -80 -44.5 -129.5t-127.5 -64.5q49 -9 79 -37.5t51 -86.5l71 -194h-127zM205 373h166q66 0 103.5 31.5t37.5 88.5q0 52 -37 80t-104 28
h-166v-228zM386 765h-94l81 145h109z" />
    <glyph glyph-name="racute" unicode="&#x155;" horiz-adv-x="387" 
d="M74 509h114v-117q19 57 56.5 87t89.5 30h38v-104h-47q-63 0 -100 -43.5t-37 -113.5v-248h-114v509zM277 592h-94l81 146h109z" />
    <glyph glyph-name="uni0156" unicode="&#x156;" horiz-adv-x="694" 
d="M535 0l-64 177q-14 40 -25.5 56.5t-26.5 25.5q-17 10 -40.5 14.5t-58.5 4.5h-115v-278h-119v703h294q113 0 183 -51.5t70 -139.5q0 -80 -44.5 -129.5t-127.5 -64.5q49 -9 79 -37.5t51 -86.5l71 -194h-127zM205 373h166q66 0 103.5 31.5t37.5 88.5q0 52 -37 80t-104 28
h-166v-228zM362 -56q30 0 47.5 -19.5t17.5 -50.5q0 -47 -21.5 -80t-83.5 -69l-29 41q41 27 49.5 37t13.5 21q-25 2 -41 18.5t-16 39.5q0 27 17.5 44.5t45.5 17.5z" />
    <glyph glyph-name="uni0157" unicode="&#x157;" horiz-adv-x="387" 
d="M74 509h114v-117q19 57 56.5 87t89.5 30h38v-104h-47q-63 0 -100 -43.5t-37 -113.5v-248h-114v509zM129 -56q30 0 47.5 -19.5t17.5 -50.5q0 -47 -21.5 -80t-83.5 -69l-29 41q41 27 49.5 37t13.5 21q-25 2 -41 18.5t-16 39.5q0 27 17.5 44.5t45.5 17.5z" />
    <glyph glyph-name="Rcaron" unicode="&#x158;" horiz-adv-x="694" 
d="M535 0l-64 177q-14 40 -25.5 56.5t-26.5 25.5q-17 10 -40.5 14.5t-58.5 4.5h-115v-278h-119v703h294q113 0 183 -51.5t70 -139.5q0 -80 -44.5 -129.5t-127.5 -64.5q49 -9 79 -37.5t51 -86.5l71 -194h-127zM205 373h166q66 0 103.5 31.5t37.5 88.5q0 52 -37 80t-104 28
h-166v-228zM491 910l-99 -145h-117l-99 145h87l71 -87l73 87h84z" />
    <glyph glyph-name="rcaron" unicode="&#x159;" horiz-adv-x="387" 
d="M74 509h114v-117q19 57 56.5 87t89.5 30h38v-104h-47q-63 0 -100 -43.5t-37 -113.5v-248h-114v509zM384 739l-99 -146h-117l-99 146h87l71 -88l72 88h85z" />
    <glyph glyph-name="Sacute" unicode="&#x15a;" horiz-adv-x="651" 
d="M319 614q-60 0 -97.5 -26t-37.5 -69q0 -42 26 -66t81 -32l112 -17q105 -16 155.5 -64.5t50.5 -131.5q0 -99 -75.5 -159.5t-195.5 -60.5q-135 0 -213 63t-91 184l119 25q12 -87 56.5 -128.5t126.5 -41.5q72 0 111.5 27.5t39.5 79.5q0 41 -29 66.5t-88 34.5l-108 17
q-94 15 -146 65t-52 128q0 91 73.5 149t184.5 58q116 0 187.5 -52.5t86.5 -149.5l-119 -21q-11 62 -49.5 92t-108.5 30zM373 765h-94l81 145h109z" />
    <glyph glyph-name="sacute" unicode="&#x15b;" horiz-adv-x="526" 
d="M259 435q-40 0 -65.5 -16t-25.5 -43q0 -26 18.5 -41t62.5 -22l77 -12q84 -13 123 -49.5t39 -99.5q0 -75 -61 -119.5t-159 -44.5q-103 0 -164.5 44t-74.5 128l108 22q13 -57 43.5 -82.5t86.5 -25.5q49 0 77.5 18.5t28.5 51.5q0 27 -20 43t-62 23l-83 13q-79 12 -116.5 48
t-37.5 98q0 68 58 110t149 42t147.5 -37.5t70.5 -108.5l-107 -23q-12 43 -39 63t-74 20zM312 592h-94l81 146h109z" />
    <glyph glyph-name="Scircumflex" unicode="&#x15c;" horiz-adv-x="651" 
d="M319 614q-60 0 -97.5 -26t-37.5 -69q0 -42 26 -66t81 -32l112 -17q105 -16 155.5 -64.5t50.5 -131.5q0 -99 -75.5 -159.5t-195.5 -60.5q-135 0 -213 63t-91 184l119 25q12 -87 56.5 -128.5t126.5 -41.5q72 0 111.5 27.5t39.5 79.5q0 41 -29 66.5t-88 34.5l-108 17
q-94 15 -146 65t-52 128q0 91 73.5 149t184.5 58q116 0 187.5 -52.5t86.5 -149.5l-119 -21q-11 62 -49.5 92t-108.5 30zM163 765l99 145h117l99 -145h-87l-71 87l-72 -87h-85z" />
    <glyph glyph-name="scircumflex" unicode="&#x15d;" horiz-adv-x="526" 
d="M259 435q-40 0 -65.5 -16t-25.5 -43q0 -26 18.5 -41t62.5 -22l77 -12q84 -13 123 -49.5t39 -99.5q0 -75 -61 -119.5t-159 -44.5q-103 0 -164.5 44t-74.5 128l108 22q13 -57 43.5 -82.5t86.5 -25.5q49 0 77.5 18.5t28.5 51.5q0 27 -20 43t-62 23l-83 13q-79 12 -116.5 48
t-37.5 98q0 68 58 110t149 42t147.5 -37.5t70.5 -108.5l-107 -23q-12 43 -39 63t-74 20zM103 592l99 146h117l99 -146h-87l-71 88l-72 -88h-85z" />
    <glyph glyph-name="Scedilla" unicode="&#x15e;" horiz-adv-x="651" 
d="M372 -55q37 0 62 -26.5t25 -67.5q0 -50 -34.5 -81.5t-89.5 -31.5q-41 0 -74 21t-43 53l73 25q5 -15 16.5 -23t28.5 -8q19 0 30.5 11.5t11.5 29.5q0 19 -10.5 29.5t-29.5 10.5q-14 0 -25.5 -5.5t-22.5 -17.5l-57 33l57 93q-114 11 -179 73t-77 172l119 25
q12 -87 56.5 -128.5t126.5 -41.5q72 0 111.5 27.5t39.5 79.5q0 41 -29 66t-88 35l-108 17q-94 14 -146 64t-52 129q0 91 73.5 149t184.5 58q116 0 187.5 -52.5t86.5 -149.5l-119 -21q-11 62 -49.5 92t-108.5 30q-60 0 -97.5 -26t-37.5 -69q0 -42 26 -66t81 -32l112 -17
q104 -15 155 -64t51 -132q0 -94 -68.5 -153.5t-179.5 -65.5l-35 -57q9 7 20 10t26 3z" />
    <glyph glyph-name="scedilla" unicode="&#x15f;" horiz-adv-x="526" 
d="M301 -55q37 0 62 -26.5t25 -67.5q0 -50 -34.5 -81.5t-89.5 -31.5q-41 0 -74 21t-43 53l73 25q5 -15 16.5 -23t28.5 -8q19 0 30.5 11.5t11.5 29.5q0 19 -10.5 29.5t-29.5 10.5q-14 0 -25.5 -5.5t-22.5 -17.5l-57 33l57 94q-81 10 -130 53t-60 116l108 22
q13 -57 43.5 -82.5t86.5 -25.5q49 0 77.5 18.5t28.5 51.5q0 27 -20.5 43.5t-61.5 22.5l-83 13q-78 12 -116 48t-38 98q0 68 58 110t149 42t147.5 -37.5t70.5 -108.5l-107 -23q-12 43 -39 63t-74 20q-40 0 -65.5 -16t-25.5 -43q0 -26 18.5 -41t62.5 -22l77 -12
q84 -13 123 -49.5t39 -99.5q0 -70 -54 -114t-144 -49l-35 -57q9 7 20 10t26 3z" />
    <glyph glyph-name="Scaron" unicode="&#x160;" horiz-adv-x="651" 
d="M319 614q-60 0 -97.5 -26t-37.5 -69q0 -42 26 -66t81 -32l112 -17q105 -16 155.5 -64.5t50.5 -131.5q0 -99 -75.5 -159.5t-195.5 -60.5q-135 0 -213 63t-91 184l119 25q12 -87 56.5 -128.5t126.5 -41.5q72 0 111.5 27.5t39.5 79.5q0 41 -29 66.5t-88 34.5l-108 17
q-94 15 -146 65t-52 128q0 91 73.5 149t184.5 58q116 0 187.5 -52.5t86.5 -149.5l-119 -21q-11 62 -49.5 92t-108.5 30zM478 910l-99 -145h-117l-99 145h87l71 -87l73 87h84z" />
    <glyph glyph-name="scaron" unicode="&#x161;" horiz-adv-x="526" 
d="M259 435q-40 0 -65.5 -16t-25.5 -43q0 -26 18.5 -41t62.5 -22l77 -12q84 -13 123 -49.5t39 -99.5q0 -75 -61 -119.5t-159 -44.5q-103 0 -164.5 44t-74.5 128l108 22q13 -57 43.5 -82.5t86.5 -25.5q49 0 77.5 18.5t28.5 51.5q0 27 -20 43t-62 23l-83 13q-79 12 -116.5 48
t-37.5 98q0 68 58 110t149 42t147.5 -37.5t70.5 -108.5l-107 -23q-12 43 -39 63t-74 20zM418 739l-99 -146h-117l-99 146h87l71 -88l72 88h85z" />
    <glyph glyph-name="uni0162" unicode="&#x162;" horiz-adv-x="585" 
d="M257 0h-24v596h-219v107h558v-107h-221v-596h-22l-42 -68q9 7 20 10t26 3q37 0 62 -26.5t25 -67.5q0 -50 -34.5 -81.5t-89.5 -31.5q-41 0 -74 21t-43 53l73 25q5 -15 16.5 -23t28.5 -8q19 0 30.5 11.5t11.5 29.5q0 19 -10.5 29.5t-29.5 10.5q-14 0 -25.5 -5.5
t-22.5 -17.5l-57 33z" />
    <glyph glyph-name="uni0163" unicode="&#x163;" horiz-adv-x="389" 
d="M221 415v-241q0 -41 19 -59.5t58 -18.5h68v-96h-76h-13.5t-8.5 1l-42 -69q9 7 20 10t26 3q37 0 62 -26.5t25 -67.5q0 -50 -34.5 -81.5t-89.5 -31.5q-41 0 -74 21t-43 53l73 25q5 -15 16.5 -23t28.5 -8q19 0 30.5 11.5t11.5 29.5q0 19 -10.5 29.5t-29.5 10.5
q-14 0 -25.5 -5.5t-22.5 -17.5l-57 33l70 115q-49 16 -72.5 54t-23.5 102v247h-90v94h90v147h114v-147h123v-94h-123z" />
    <glyph glyph-name="Tcaron" unicode="&#x164;" horiz-adv-x="585" 
d="M351 0h-118v596h-219v107h558v-107h-221v-596zM449 910l-99 -145h-117l-99 145h87l71 -87l73 87h84z" />
    <glyph glyph-name="tcaron" unicode="&#x165;" horiz-adv-x="389" 
d="M221 415v-241q0 -41 19 -59.5t58 -18.5h68v-96h-76q-93 0 -138 41t-45 127v247h-90v94h90v147h114v-147h123v-94h-123zM349 776q30 0 47.5 -19.5t17.5 -50.5q0 -47 -21.5 -80t-83.5 -69l-29 41q41 27 49.5 37t13.5 21q-25 2 -41 18.5t-16 39.5q0 27 17.5 44.5t45.5 17.5z
" />
    <glyph glyph-name="Tbar" unicode="&#x166;" horiz-adv-x="603" 
d="M360 0h-118v306h-144v90h144v200h-219v107h558v-107h-221v-200h144v-90h-144v-306z" />
    <glyph glyph-name="tbar" unicode="&#x167;" horiz-adv-x="397" 
d="M229 234v-60q0 -41 19 -59.5t58 -18.5h68v-96h-76q-93 0 -138 41t-45 127v66h-90v76h90v105h-90v94h90v147h114v-147h123v-94h-123v-105h123v-76h-123z" />
    <glyph glyph-name="Utilde" unicode="&#x168;" horiz-adv-x="728" 
d="M197 703v-445q0 -71 46 -115.5t119 -44.5q76 0 123 44.5t47 115.5v445h118v-453q0 -116 -81 -189t-206 -73q-124 0 -204.5 73.5t-80.5 188.5v453h119zM386 862q16 -13 23 -16.5t14 -3.5q13 0 20 11.5t10 38.5h74q-4 -66 -27.5 -98t-68.5 -32q-20 0 -36.5 7t-38.5 28
q-15 14 -23 18t-17 4q-17 0 -26 -13t-12 -42h-76q2 65 29.5 99t77.5 34q19 0 36 -7t41 -28z" />
    <glyph glyph-name="utilde" unicode="&#x169;" horiz-adv-x="605" 
d="M417 509h114v-509h-114v87q-24 -47 -66 -73t-95 -26q-85 0 -136.5 55.5t-51.5 145.5v320h114v-299q0 -56 30 -89.5t83 -33.5q55 0 88.5 37.5t33.5 94.5v290zM321 690q16 -13 23 -16.5t14 -3.5q13 0 20 11.5t10 38.5h74q-4 -66 -27.5 -98t-68.5 -32q-20 0 -36.5 7
t-38.5 28q-15 14 -23 18t-17 4q-17 0 -26 -13.5t-12 -42.5h-76q2 66 29.5 100t77.5 34q19 0 36 -7t41 -28z" />
    <glyph glyph-name="Umacron" unicode="&#x16a;" horiz-adv-x="728" 
d="M197 703v-445q0 -71 46 -115.5t119 -44.5q76 0 123 44.5t47 115.5v445h118v-453q0 -116 -81 -189t-206 -73q-124 0 -204.5 73.5t-80.5 188.5v453h119zM505 799h-280v79h280v-79z" />
    <glyph glyph-name="umacron" unicode="&#x16b;" horiz-adv-x="605" 
d="M417 509h114v-509h-114v87q-24 -47 -66 -73t-95 -26q-85 0 -136.5 55.5t-51.5 145.5v320h114v-299q0 -56 30 -89.5t83 -33.5q55 0 88.5 37.5t33.5 94.5v290zM440 631h-280v79h280v-79z" />
    <glyph glyph-name="Ubreve" unicode="&#x16c;" horiz-adv-x="728" 
d="M197 703v-445q0 -71 46 -115.5t119 -44.5q76 0 123 44.5t47 115.5v445h118v-453q0 -116 -81 -189t-206 -73q-124 0 -204.5 73.5t-80.5 188.5v453h119zM364 763q-68 0 -109 42t-41 105h83q0 -36 18 -56.5t50 -20.5t49.5 21t17.5 56h82q0 -63 -41 -105t-109 -42z" />
    <glyph glyph-name="ubreve" unicode="&#x16d;" horiz-adv-x="605" 
d="M417 509h114v-509h-114v87q-24 -47 -66 -73t-95 -26q-85 0 -136.5 55.5t-51.5 145.5v320h114v-299q0 -56 30 -89.5t83 -33.5q55 0 88.5 37.5t33.5 94.5v290zM299 591q-68 0 -109 41.5t-41 105.5h83q0 -36 18 -57t50 -21t49.5 21t17.5 57h82q0 -64 -41 -105.5t-109 -41.5z
" />
    <glyph glyph-name="Uring" unicode="&#x16e;" horiz-adv-x="728" 
d="M197 703v-445q0 -71 46 -115.5t119 -44.5q76 0 123 44.5t47 115.5v445h118v-453q0 -116 -81 -189t-206 -73q-124 0 -204.5 73.5t-80.5 188.5v453h119zM477 862q0 -43 -32 -71t-81 -28t-81 27.5t-32 71.5q0 43 32 70.5t81 27.5q48 0 80.5 -28t32.5 -70zM364 906
q-21 0 -34 -12.5t-13 -31.5q0 -20 13 -32.5t34 -12.5q22 0 34.5 12.5t12.5 32.5t-12.5 32t-34.5 12z" />
    <glyph glyph-name="uring" unicode="&#x16f;" horiz-adv-x="605" 
d="M417 509h114v-509h-114v87q-24 -47 -66 -73t-95 -26q-85 0 -136.5 55.5t-51.5 145.5v320h114v-299q0 -56 30 -89.5t83 -33.5q55 0 88.5 37.5t33.5 94.5v290zM412 682q0 -45 -32.5 -74t-80.5 -29q-49 0 -81 29t-32 74q0 44 32 73t81 29q48 0 80.5 -29t32.5 -73zM299 728
q-20 0 -33.5 -13.5t-13.5 -32.5q0 -20 13.5 -33.5t33.5 -13.5q21 0 34 13.5t13 33.5t-13 33t-34 13z" />
    <glyph glyph-name="Uhungarumlaut" unicode="&#x170;" horiz-adv-x="728" 
d="M197 703v-445q0 -71 46 -115.5t119 -44.5q76 0 123 44.5t47 115.5v445h118v-453q0 -116 -81 -189t-206 -73q-124 0 -204.5 73.5t-80.5 188.5v453h119zM324 765h-85l71 145h102zM481 765h-87l75 145h102z" />
    <glyph glyph-name="uhungarumlaut" unicode="&#x171;" horiz-adv-x="605" 
d="M417 509h114v-509h-114v87q-24 -47 -66 -73t-95 -26q-85 0 -136.5 55.5t-51.5 145.5v320h114v-299q0 -56 30 -89.5t83 -33.5q55 0 88.5 37.5t33.5 94.5v290zM261 592h-86l71 146h103zM416 592h-87l75 146h102z" />
    <glyph glyph-name="Uogonek" unicode="&#x172;" horiz-adv-x="728" 
d="M197 703v-445q0 -71 46 -115.5t119 -44.5q76 0 123 44.5t47 115.5v445h118v-453q0 -50 -17 -94t-57 -90q-1 -1 -66 -69.5t-65 -124.5q0 -23 10.5 -36t29.5 -13q11 0 21.5 2t19.5 6l24 -71q-21 -12 -41 -17t-41 -5q-49 0 -79 30t-30 77q0 37 18 74.5t55 75.5
q-16 -4 -33 -5.5t-36 -1.5q-124 0 -204.5 73.5t-80.5 188.5v453h119z" />
    <glyph glyph-name="uogonek" unicode="&#x173;" horiz-adv-x="605" 
d="M417 509h114v-509h-38q-42 -44 -61.5 -76t-19.5 -59q0 -20 10.5 -31t30.5 -11q11 0 21.5 2t18.5 6l24 -71q-19 -11 -38.5 -16.5t-42.5 -5.5q-48 0 -78.5 27.5t-30.5 71.5q0 40 19 75.5t71 88.5v86q-24 -47 -66 -73t-95 -26q-85 0 -136.5 55.5t-51.5 145.5v320h114v-299
q0 -56 30 -89.5t83 -33.5q55 0 88.5 37.5t33.5 94.5v290z" />
    <glyph glyph-name="Wcircumflex" unicode="&#x174;" horiz-adv-x="1031" 
d="M362 0h-144l-196 703h126l148 -568l149 568h146l148 -563l149 563h120l-196 -703h-144l-152 564zM358 765l99 145h117l99 -145h-87l-71 87l-72 -87h-85z" />
    <glyph glyph-name="wcircumflex" unicode="&#x175;" horiz-adv-x="878" 
d="M319 0h-134l-169 509h115l124 -394l123 394h129l121 -397l125 397h109l-168 -509h-133l-121 389zM283 592l99 146h117l99 -146h-87l-71 88l-72 -88h-85z" />
    <glyph glyph-name="Ycircumflex" unicode="&#x176;" horiz-adv-x="652" 
d="M387 0h-119v261l-252 442h131l181 -328l183 328h125l-249 -434v-269zM170 765l99 145h117l99 -145h-87l-71 87l-72 -87h-85z" />
    <glyph glyph-name="ycircumflex" unicode="&#x177;" horiz-adv-x="544" 
d="M415 509h116l-264 -699h-111l63 167l-207 532h123l140 -384zM115 592l99 146h117l99 -146h-87l-71 88l-72 -88h-85z" />
    <glyph glyph-name="Ydieresis" unicode="&#x178;" horiz-adv-x="652" 
d="M387 0h-119v261l-252 442h131l181 -328l183 328h125l-249 -434v-269zM300 838q0 -26 -18 -43.5t-44 -17.5q-27 0 -45 17.5t-18 43.5t18.5 44.5t44.5 18.5t44 -18.5t18 -44.5zM479 838q0 -26 -17.5 -43.5t-44.5 -17.5t-44.5 17.5t-17.5 43.5t18 44.5t44 18.5t44 -18.5
t18 -44.5z" />
    <glyph glyph-name="Zacute" unicode="&#x179;" horiz-adv-x="626" 
d="M586 0h-550v98l397 499h-383v106h531v-102l-397 -495h402v-106zM366 765h-94l81 145h109z" />
    <glyph glyph-name="zacute" unicode="&#x17a;" horiz-adv-x="519" 
d="M485 0h-453v77l301 338h-287v94h427v-81l-294 -334h306v-94zM310 592h-94l81 146h109z" />
    <glyph glyph-name="Zdotaccent" unicode="&#x17b;" horiz-adv-x="626" 
d="M586 0h-550v98l397 499h-383v106h531v-102l-397 -495h402v-106zM386 841q0 -28 -20 -48t-49 -20q-30 0 -50 19.5t-20 48.5q0 30 20 49.5t50 19.5q29 0 49 -20t20 -49z" />
    <glyph glyph-name="zdotaccent" unicode="&#x17c;" horiz-adv-x="519" 
d="M485 0h-453v77l301 338h-287v94h427v-81l-294 -334h306v-94zM332 670q0 -28 -21 -48.5t-50 -20.5t-49.5 20.5t-20.5 48.5q0 30 20 50t50 20t50.5 -20t20.5 -50z" />
    <glyph glyph-name="Zcaron" unicode="&#x17d;" horiz-adv-x="626" 
d="M586 0h-550v98l397 499h-383v106h531v-102l-397 -495h402v-106zM471 910l-99 -145h-117l-99 145h87l71 -87l73 87h84z" />
    <glyph glyph-name="zcaron" unicode="&#x17e;" horiz-adv-x="519" 
d="M485 0h-453v77l301 338h-287v94h427v-81l-294 -334h306v-94zM416 739l-99 -146h-117l-99 146h87l71 -88l72 88h85z" />
    <glyph glyph-name="longs" unicode="&#x17f;" horiz-adv-x="321" 
d="M227 549v-549h-114v415h-90v94h90v47q0 82 48.5 125.5t141.5 43.5h72v-96h-71q-39 0 -58 -19t-19 -61z" />
    <glyph glyph-name="florin" unicode="&#x192;" horiz-adv-x="571" 
d="M350 323l-56 -343q-14 -88 -64 -129t-139 -41h-77l21 96h56q41 0 62 18t28 62l55 337h-102v98h118l22 134q14 88 64 129t139 41h76l-20 -96h-56q-41 0 -61 -17t-28 -63l-22 -128h111v-98h-127z" />
    <glyph glyph-name="uni0218" unicode="&#x218;" horiz-adv-x="651" 
d="M319 614q-60 0 -97.5 -26t-37.5 -69q0 -42 26 -66t81 -32l112 -17q105 -16 155.5 -64.5t50.5 -131.5q0 -99 -75.5 -159.5t-195.5 -60.5q-135 0 -213 63t-91 184l119 25q12 -87 56.5 -128.5t126.5 -41.5q72 0 111.5 27.5t39.5 79.5q0 41 -29 66.5t-88 34.5l-108 17
q-94 15 -146 65t-52 128q0 91 73.5 149t184.5 58q116 0 187.5 -52.5t86.5 -149.5l-119 -21q-11 62 -49.5 92t-108.5 30zM335 -56q30 0 47.5 -19.5t17.5 -50.5q0 -47 -21.5 -80t-83.5 -69l-29 41q41 27 49.5 37t13.5 21q-25 2 -41 18.5t-16 39.5q0 27 17.5 44.5t45.5 17.5z
" />
    <glyph glyph-name="uni0219" unicode="&#x219;" horiz-adv-x="526" 
d="M259 435q-40 0 -65.5 -16t-25.5 -43q0 -26 18.5 -41t62.5 -22l77 -12q84 -13 123 -49.5t39 -99.5q0 -75 -61 -119.5t-159 -44.5q-103 0 -164.5 44t-74.5 128l108 22q13 -57 43.5 -82.5t86.5 -25.5q49 0 77.5 18.5t28.5 51.5q0 27 -20 43t-62 23l-83 13q-79 12 -116.5 48
t-37.5 98q0 68 58 110t149 42t147.5 -37.5t70.5 -108.5l-107 -23q-12 43 -39 63t-74 20zM264 -56q30 0 47.5 -19.5t17.5 -50.5q0 -47 -21.5 -80t-83.5 -69l-29 41q41 27 49.5 37t13.5 21q-25 2 -41 18.5t-16 39.5q0 27 17.5 44.5t45.5 17.5z" />
    <glyph glyph-name="uni021A" unicode="&#x21a;" horiz-adv-x="585" 
d="M351 0h-118v596h-219v107h558v-107h-221v-596zM290 -56q30 0 47.5 -19.5t17.5 -50.5q0 -47 -21.5 -80t-83.5 -69l-29 41q41 27 49.5 37t13.5 21q-25 2 -41 18.5t-16 39.5q0 27 17.5 44.5t45.5 17.5z" />
    <glyph glyph-name="uni021B" unicode="&#x21b;" horiz-adv-x="389" 
d="M221 415v-241q0 -41 19 -59.5t58 -18.5h68v-96h-76q-93 0 -138 41t-45 127v247h-90v94h90v147h114v-147h123v-94h-123zM194 -56q30 0 47.5 -19.5t17.5 -50.5q0 -47 -21.5 -80t-83.5 -69l-29 41q41 27 49.5 37t13.5 21q-25 2 -41 18.5t-16 39.5q0 27 17.5 44.5t45.5 17.5z
" />
    <glyph glyph-name="uni0237" unicode="&#x237;" horiz-adv-x="262" 
d="M188 509v-531q0 -84 -45.5 -126t-137.5 -42h-56v96h48q39 0 58 19.5t19 61.5v522h114z" />
    <glyph glyph-name="circumflex" unicode="&#x2c6;" horiz-adv-x="398" 
d="M41 592l99 146h117l99 -146h-87l-71 88l-72 -88h-85z" />
    <glyph glyph-name="caron" unicode="&#x2c7;" horiz-adv-x="408" 
d="M353 739l-99 -146h-117l-99 146h87l71 -88l72 88h85z" />
    <glyph glyph-name="uni02C9" unicode="&#x2c9;" horiz-adv-x="357" 
d="M319 631h-280v79h280v-79z" />
    <glyph glyph-name="breve" unicode="&#x2d8;" horiz-adv-x="362" 
d="M181 591q-68 0 -109 41.5t-41 105.5h83q0 -36 18 -57t50 -21t49.5 21t17.5 57h82q0 -64 -41 -105.5t-109 -41.5z" />
    <glyph glyph-name="dotaccent" unicode="&#x2d9;" horiz-adv-x="219" 
d="M182 670q0 -28 -21 -48.5t-50 -20.5t-49.5 20.5t-20.5 48.5q0 30 20 50t50 20t50.5 -20t20.5 -50z" />
    <glyph glyph-name="ring" unicode="&#x2da;" horiz-adv-x="287" 
d="M256 682q0 -45 -32.5 -74t-80.5 -29q-49 0 -81 29t-32 74q0 44 32 73t81 29q48 0 80.5 -29t32.5 -73zM143 728q-20 0 -33.5 -13.5t-13.5 -32.5q0 -20 13.5 -33.5t33.5 -13.5q21 0 34 13.5t13 33.5t-13 33t-34 13z" />
    <glyph glyph-name="ogonek" unicode="&#x2db;" horiz-adv-x="256" 
d="M31 -163q0 43 22 81t90 105l57 -20q-44 -46 -64 -79t-20 -59q0 -20 10.5 -31t30.5 -11q11 0 21.5 2t18.5 6l24 -71q-19 -11 -38.5 -16.5t-42.5 -5.5q-48 0 -78.5 27.5t-30.5 71.5z" />
    <glyph glyph-name="tilde" unicode="&#x2dc;" horiz-adv-x="387" 
d="M214 690q16 -13 23 -16.5t14 -3.5q13 0 20 11.5t10 38.5h74q-4 -66 -27.5 -98t-68.5 -32q-20 0 -36.5 7t-38.5 28q-15 14 -23 18t-17 4q-17 0 -26 -13.5t-12 -42.5h-76q2 66 29.5 100t77.5 34q19 0 36 -7t41 -28z" />
    <glyph glyph-name="hungarumlaut" unicode="&#x2dd;" horiz-adv-x="405" 
d="M125 592h-86l71 146h103zM280 592h-87l75 146h102z" />
    <glyph glyph-name="uni0394" unicode="&#x394;" horiz-adv-x="653" 
d="M260 703h134l231 -617v-86h-597v87zM323 579l-169 -474h340z" />
    <glyph glyph-name="uni03A9" unicode="&#x3a9;" horiz-adv-x="816" 
d="M180 382q0 -79 44.5 -140t130.5 -101v-141h-291v104h203q-99 41 -155 117.5t-56 169.5q0 137 100.5 230.5t251.5 93.5t251.5 -93.5t100.5 -230.5q0 -92 -55 -169t-153 -118h201v-104h-292v141q86 40 130.5 101.5t44.5 139.5q0 93 -66 158t-162 65t-162 -65t-66 -158z" />
    <glyph glyph-name="uni03BC" unicode="&#x3bc;" horiz-adv-x="622" 
d="M429 509h114v-509h-114v70q-26 -40 -66.5 -61t-88.5 -21q-22 0 -42.5 5t-38.5 14v-197h-114v699h114v-299q0 -56 30.5 -89.5t83.5 -33.5q55 0 88.5 37.5t33.5 94.5v290z" />
    <glyph glyph-name="pi" unicode="&#x3c0;" horiz-adv-x="664" 
d="M19 509h626v-97h-98v-412h-114v412h-203v-412h-114v412h-97v97z" />
    <glyph glyph-name="Wgrave" unicode="&#x1e80;" horiz-adv-x="1031" 
d="M362 0h-144l-196 703h126l148 -568l149 568h146l148 -563l149 563h120l-196 -703h-144l-152 564zM481 910l79 -145h-96l-91 145h108z" />
    <glyph glyph-name="wgrave" unicode="&#x1e81;" horiz-adv-x="878" 
d="M319 0h-134l-169 509h115l124 -394l123 394h129l121 -397l125 397h109l-168 -509h-133l-121 389zM406 738l79 -146h-96l-91 146h108z" />
    <glyph glyph-name="Wacute" unicode="&#x1e82;" horiz-adv-x="1031" 
d="M362 0h-144l-196 703h126l148 -568l149 568h146l148 -563l149 563h120l-196 -703h-144l-152 564zM568 765h-94l81 145h109z" />
    <glyph glyph-name="wacute" unicode="&#x1e83;" horiz-adv-x="878" 
d="M319 0h-134l-169 509h115l124 -394l123 394h129l121 -397l125 397h109l-168 -509h-133l-121 389zM492 592h-94l81 146h109z" />
    <glyph glyph-name="Wdieresis" unicode="&#x1e84;" horiz-adv-x="1031" 
d="M362 0h-144l-196 703h126l148 -568l149 568h146l148 -563l149 563h120l-196 -703h-144l-152 564zM489 838q0 -26 -18 -43.5t-44 -17.5q-27 0 -45 17.5t-18 43.5t18.5 44.5t44.5 18.5t44 -18.5t18 -44.5zM668 838q0 -26 -17.5 -43.5t-44.5 -17.5t-44.5 17.5t-17.5 43.5
t18 44.5t44 18.5t44 -18.5t18 -44.5z" />
    <glyph glyph-name="wdieresis" unicode="&#x1e85;" horiz-adv-x="878" 
d="M319 0h-134l-169 509h115l124 -394l123 394h129l121 -397l125 397h109l-168 -509h-133l-121 389zM415 670q0 -25 -18.5 -43.5t-45.5 -18.5q-26 0 -44.5 18.5t-18.5 43.5q0 27 18 45t45 18t45.5 -18t18.5 -45zM594 670q0 -25 -18.5 -43.5t-45.5 -18.5q-26 0 -44.5 18.5
t-18.5 43.5q0 27 18 45t45 18t45.5 -18t18.5 -45z" />
    <glyph glyph-name="uni1E9E" unicode="&#x1e9e;" horiz-adv-x="750" 
d="M710 212q0 -96 -68.5 -154t-176.5 -58h-141v105h138q59 0 93.5 29t34.5 82q0 45 -26.5 71.5t-72.5 26.5q-19 0 -38.5 -5t-33.5 -14l-69 67l164 236h-119q-88 0 -143.5 -55.5t-55.5 -147.5v-395h-119v399q0 138 89 221t230 83h246v-93l-168 -237q15 7 33.5 11t40.5 4
q70 0 116 -49t46 -127z" />
    <glyph glyph-name="Ygrave" unicode="&#x1ef2;" horiz-adv-x="652" 
d="M387 0h-119v261l-252 442h131l181 -328l183 328h125l-249 -434v-269zM292 910l79 -145h-96l-91 145h108z" />
    <glyph glyph-name="ygrave" unicode="&#x1ef3;" horiz-adv-x="544" 
d="M415 509h116l-264 -699h-111l63 167l-207 532h123l140 -384zM237 738l79 -146h-96l-91 146h108z" />
    <glyph glyph-name="endash" unicode="&#x2013;" horiz-adv-x="543" 
d="M51 322h442v-96h-442v96z" />
    <glyph glyph-name="emdash" unicode="&#x2014;" horiz-adv-x="1018" 
d="M51 322h917v-96h-917v96z" />
    <glyph glyph-name="quoteleft" unicode="&#x2018;" horiz-adv-x="244" 
d="M120 425q-36 0 -58 25t-22 65q0 66 29 113t97 87l36 -52q-3 -2 -20.5 -13.5t-27.5 -21.5q-12 -10 -19.5 -22.5t-11.5 -27.5q32 -1 53 -23t21 -53q0 -33 -22 -55t-55 -22z" />
    <glyph glyph-name="quoteright" unicode="&#x2019;" horiz-adv-x="240" 
d="M127 715q36 0 58 -25t22 -65q0 -66 -29 -113t-97 -87l-36 52q3 2 20.5 13.5t27.5 21.5q12 10 19.5 22.5t11.5 27.5q-32 1 -53 23t-21 53q0 33 22 55t55 22z" />
    <glyph glyph-name="quotesinglbase" unicode="&#x201a;" horiz-adv-x="248" 
d="M122 141q36 0 58 -25t22 -65q0 -66 -29 -113t-97 -87l-36 52q3 2 20.5 13.5t27.5 21.5q12 10 19.5 22.5t11.5 27.5q-32 1 -53 23t-21 53q0 33 22 55t55 22z" />
    <glyph glyph-name="quotedblleft" unicode="&#x201c;" horiz-adv-x="455" 
d="M120 425q-36 0 -58 25t-22 65q0 66 29 113t97 87l36 -52q-3 -2 -20.5 -13.5t-27.5 -21.5q-12 -10 -19.5 -22.5t-11.5 -27.5q32 -1 53 -23t21 -53q0 -33 -22 -55t-55 -22zM331 425q-36 0 -58 25t-22 65q0 66 29 113t97 87l36 -52q-3 -2 -20.5 -13.5t-27.5 -21.5
q-12 -10 -19.5 -22.5t-11.5 -27.5q32 -1 53 -23t21 -53q0 -33 -22 -55t-55 -22z" />
    <glyph glyph-name="quotedblright" unicode="&#x201d;" horiz-adv-x="451" 
d="M338 714q36 0 58 -25t22 -65q0 -66 -29 -113t-97 -87l-36 52q3 2 20.5 13.5t27.5 21.5q12 10 19.5 22.5t11.5 27.5q-32 1 -53 23t-21 53q0 33 22 55t55 22zM127 714q36 0 58 -25t22 -65q0 -66 -29 -113t-97 -87l-36 52q3 2 20.5 13.5t27.5 21.5q12 10 19.5 22.5
t11.5 27.5q-32 1 -53 23t-21 53q0 33 22 55t55 22z" />
    <glyph glyph-name="quotedblbase" unicode="&#x201e;" horiz-adv-x="459" 
d="M333 141q36 0 58 -25t22 -65q0 -66 -29 -113t-97 -87l-36 52q3 2 20.5 13.5t27.5 21.5q12 10 19.5 22.5t11.5 27.5q-32 1 -53 23t-21 53q0 33 22 55t55 22zM122 141q36 0 58 -25t22 -65q0 -66 -29 -113t-97 -87l-36 52q3 2 20.5 13.5t27.5 21.5q12 10 19.5 22.5
t11.5 27.5q-32 1 -53 23t-21 53q0 33 22 55t55 22z" />
    <glyph glyph-name="dagger" unicode="&#x2020;" horiz-adv-x="479" 
d="M29 419v93l160 -6l-6 197h113l-6 -197l160 6v-93l-160 6l6 -425h-113l6 425z" />
    <glyph glyph-name="daggerdbl" unicode="&#x2021;" horiz-adv-x="519" 
d="M209 198l-160 -7v93l160 -6v147l-160 -6v93l160 -6l-6 197h113l-6 -197l160 6v-93l-160 6v-147l160 6v-93l-160 7l6 -198h-113z" />
    <glyph glyph-name="bullet" unicode="&#x2022;" horiz-adv-x="424" 
d="M340 341q0 -52 -37.5 -89t-90.5 -37t-90 37t-37 89q0 53 36.5 89.5t90.5 36.5t91 -36.5t37 -89.5z" />
    <glyph glyph-name="ellipsis" unicode="&#x2026;" horiz-adv-x="709" 
d="M198 64q0 -31 -23 -53.5t-55 -22.5t-54.5 22.5t-22.5 53.5q0 33 22 55t55 22t55.5 -22.5t22.5 -54.5zM432 64q0 -31 -23 -53.5t-55 -22.5t-54.5 22.5t-22.5 53.5q0 33 22 55t55 22t55.5 -22.5t22.5 -54.5zM667 64q0 -31 -23 -53.5t-55 -22.5t-54.5 22.5t-22.5 53.5
q0 33 22 55t55 22t55.5 -22.5t22.5 -54.5z" />
    <glyph glyph-name="perthousand" unicode="&#x2030;" horiz-adv-x="1116" 
d="M204 709q71 0 118.5 -47t47.5 -116q0 -70 -47.5 -117.5t-118.5 -47.5t-118 47t-47 118q0 69 47 116t118 47zM507 387h-97l183 316h97zM286 545q0 38 -23 63t-59 25q-35 0 -58.5 -25.5t-23.5 -62.5t23 -62t59 -25t59 24.5t23 62.5zM930 321q71 0 118 -47t47 -117t-47 -117
t-118 -47q-72 0 -118.5 47t-46.5 117t46.5 117t118.5 47zM560 321q70 0 117 -47t47 -117t-47 -117t-117 -47q-72 0 -118.5 46.5t-46.5 117.5t46.5 117.5t118.5 46.5zM173 0h-97l183 316h97zM1011 157q0 38 -22.5 63t-58.5 25t-59 -25.5t-23 -62.5q0 -38 23 -62.5t59 -24.5
q37 0 59 24t22 63zM640 157q0 38 -22.5 63t-57.5 25q-36 0 -59 -25t-23 -63t22.5 -62.5t59.5 -24.5q36 0 58 24.5t22 62.5z" />
    <glyph glyph-name="guilsinglleft" unicode="&#x2039;" horiz-adv-x="322" 
d="M158 55l-109 219l109 220h116l-109 -220l109 -219h-116z" />
    <glyph glyph-name="guilsinglright" unicode="&#x203a;" horiz-adv-x="319" 
d="M163 494l109 -219l-109 -220h-116l109 220l-109 219h116z" />
    <glyph glyph-name="fraction" unicode="&#x2044;" horiz-adv-x="136" 
d="M193 387h-97l183 316h97zM-141 0h-97l183 316h97z" />
    <glyph glyph-name="zero.superior" unicode="&#x2070;" horiz-adv-x="382" 
d="M351 665q0 -98 -42.5 -149.5t-117.5 -51.5t-117.5 51.5t-42.5 149.5q0 97 42 148t118 51t118 -51t42 -148zM257 665q0 60 -16.5 90t-50.5 30t-50 -30t-16 -90q0 -61 16 -91t50 -30t50.5 30t16.5 91z" />
    <glyph glyph-name="four.superior" unicode="&#x2074;" horiz-adv-x="373" 
d="M131 832v26h94v-34q0 -57 -31.5 -109.5t-92.5 -98.5h127v79h89v-79h41v-79h-41v-66h-89v66h-213v76q57 49 86.5 104.5t29.5 114.5z" />
    <glyph glyph-name="five.superior" unicode="&#x2075;" horiz-adv-x="357" 
d="M177 540q26 0 43 17t17 42q0 27 -16 42.5t-43 15.5q-17 0 -31 -7t-27 -22l-77 30l29 200h228v-80h-157l-15 -90q16 19 38.5 29t48.5 10q50 0 82.5 -35t32.5 -91q0 -60 -43 -98.5t-111 -38.5q-59 0 -104.5 31.5t-50.5 77.5l90 24q4 -27 21.5 -42t44.5 -15z" />
    <glyph glyph-name="six.superior" unicode="&#x2076;" horiz-adv-x="370" 
d="M221 728q55 0 87 -34t32 -93q0 -58 -43 -97.5t-106 -39.5q-77 0 -118.5 48.5t-41.5 138.5q0 99 44.5 156t118.5 57q59 0 96 -28t46 -80l-88 -16q-5 25 -18.5 38t-35.5 13q-33 0 -51.5 -31t-20.5 -87q14 26 41 40.5t58 14.5zM189 661q-27 0 -44.5 -18t-17.5 -46t17 -45.5
t44 -17.5q28 0 45 18t17 46q0 30 -16 46.5t-45 16.5z" />
    <glyph glyph-name="seven.superior" unicode="&#x2077;" horiz-adv-x="319" 
d="M234 777h-221v81h288v-74q-69 -69 -90 -124t-21 -137v-52h-95v61q0 75 27.5 129t111.5 116z" />
    <glyph glyph-name="eight.superior" unicode="&#x2078;" horiz-adv-x="368" 
d="M184 464q-70 0 -113 33t-43 84q0 34 21 59.5t60 37.5q-31 11 -48 32.5t-17 50.5q0 45 39 74t102 29t101 -29t38 -74q0 -29 -16.5 -50t-48.5 -33q39 -12 60 -37.5t21 -59.5q0 -51 -43 -84t-113 -33zM130 752q0 -20 14.5 -32t40.5 -12q25 0 39.5 12.5t14.5 31.5t-14.5 31.5
t-39.5 12.5q-26 0 -40.5 -12t-14.5 -32zM118 589q0 -25 18 -40.5t48 -15.5t48 15.5t18 40.5t-17.5 40.5t-48.5 15.5t-48.5 -15t-17.5 -41z" />
    <glyph glyph-name="nine.superior" unicode="&#x2079;" horiz-adv-x="370" 
d="M150 600q-55 0 -87 34t-32 93q0 58 43 97.5t106 39.5q77 0 118.5 -48.5t41.5 -138.5q0 -99 -44.5 -156t-118.5 -57q-59 0 -96 28t-46 80l88 16q5 -25 18.5 -38t35.5 -13q33 0 51.5 31t20.5 87q-14 -26 -41 -40.5t-58 -14.5zM182 667q27 0 44.5 18t17.5 46t-17 45.5
t-44 17.5q-28 0 -45 -18t-17 -46q0 -30 16 -46.5t45 -16.5z" />
    <glyph glyph-name="zero.inferior" unicode="&#x2080;" horiz-adv-x="382" 
d="M351 39q0 -98 -42.5 -149.5t-117.5 -51.5t-117.5 51.5t-42.5 149.5q0 97 42 148t118 51t118 -51t42 -148zM257 39q0 60 -16.5 90t-50.5 30t-50 -30t-16 -90q0 -61 16 -91t50 -30t50.5 30t16.5 91z" />
    <glyph glyph-name="one.inferior" unicode="&#x2081;" horiz-adv-x="272" 
d="M128 -155v272q-20 -31 -48.5 -50.5t-56.5 -22.5l-5 105q47 10 74.5 30t47.5 53h81v-387h-93z" />
    <glyph glyph-name="two.inferior" unicode="&#x2082;" horiz-adv-x="363" 
d="M135 -74h198v-81h-298v62q0 48 19.5 76.5t60.5 47.5l80 36q19 9 28.5 21.5t9.5 28.5q0 20 -13.5 33t-36.5 13q-26 0 -40.5 -13t-14.5 -35q0 -9 1.5 -16.5t5.5 -16.5l-96 8q-2 10 -3 16.5t-1 12.5q0 50 42.5 84.5t107.5 34.5q63 0 102.5 -32.5t39.5 -85.5q0 -43 -21.5 -71
t-70.5 -51l-69 -32q-16 -8 -23.5 -16.5t-7.5 -20.5v-3z" />
    <glyph glyph-name="three.inferior" unicode="&#x2083;" horiz-adv-x="363" 
d="M335 -30q0 -55 -44 -93.5t-113 -38.5q-65 0 -108.5 35t-48.5 88l92 13q5 -30 22 -45.5t44 -15.5q28 0 45.5 16.5t17.5 42.5q0 28 -15.5 42.5t-45.5 14.5q-12 0 -24 -4.5t-23 -13.5l-44 53l106 88h-159v80h273v-73l-100 -85q8 3 14.5 4t13.5 1q43 0 70 -30.5t27 -78.5z
" />
    <glyph glyph-name="four.inferior" unicode="&#x2084;" horiz-adv-x="375" 
d="M132 206v26h94v-34q0 -57 -31.5 -109.5t-92.5 -98.5h127v79h89v-79h41v-79h-41v-66h-89v66h-213v76q57 49 86.5 104.5t29.5 114.5z" />
    <glyph glyph-name="five.inferior" unicode="&#x2085;" horiz-adv-x="356" 
d="M176 -86q26 0 43 17t17 42q0 27 -16 42.5t-43 15.5q-17 0 -31 -7t-27 -22l-77 30l29 200h228v-80h-157l-15 -90q16 19 38.5 29t48.5 10q50 0 82.5 -35t32.5 -91q0 -60 -43 -98.5t-111 -38.5q-59 0 -104.5 31.5t-50.5 77.5l90 24q4 -27 21.5 -42t44.5 -15z" />
    <glyph glyph-name="six.inferior" unicode="&#x2086;" horiz-adv-x="371" 
d="M221 102q55 0 87 -34t32 -93q0 -58 -43 -97.5t-106 -39.5q-77 0 -118.5 48.5t-41.5 138.5q0 99 44.5 156t118.5 57q59 0 96 -28t46 -80l-88 -16q-5 25 -18.5 38t-35.5 13q-33 0 -51.5 -31t-20.5 -87q14 26 41 40.5t58 14.5zM189 35q-27 0 -44.5 -18t-17.5 -46t17 -45.5
t44 -17.5q28 0 45 18t17 46q0 30 -16 46.5t-45 16.5z" />
    <glyph glyph-name="seven.inferior" unicode="&#x2087;" horiz-adv-x="318" 
d="M234 151h-221v81h288v-74q-69 -69 -90 -124t-21 -137v-52h-95v61q0 75 27.5 129t111.5 116z" />
    <glyph glyph-name="eight.inferior" unicode="&#x2088;" horiz-adv-x="368" 
d="M184 -162q-70 0 -113 33t-43 84q0 34 21 59.5t60 37.5q-31 11 -48 32.5t-17 50.5q0 45 39 74t102 29t101 -29t38 -74q0 -29 -16.5 -50t-48.5 -33q39 -12 60 -37.5t21 -59.5q0 -51 -43 -84t-113 -33zM130 126q0 -20 14.5 -32t40.5 -12q25 0 39.5 12.5t14.5 31.5
t-14.5 31.5t-39.5 12.5q-26 0 -40.5 -12t-14.5 -32zM118 -37q0 -25 18 -40.5t48 -15.5t48 15.5t18 40.5t-17.5 40.5t-48.5 15.5t-48.5 -15t-17.5 -41z" />
    <glyph glyph-name="nine.inferior" unicode="&#x2089;" horiz-adv-x="370" 
d="M149 -26q-55 0 -87 34t-32 93q0 58 43 97.5t106 39.5q77 0 118.5 -48.5t41.5 -138.5q0 -99 -44.5 -156t-118.5 -57q-59 0 -96 28t-46 80l88 16q5 -25 18.5 -38t35.5 -13q33 0 51.5 31t20.5 87q-14 -26 -41 -40.5t-58 -14.5zM181 41q27 0 44.5 18t17.5 46t-17 45.5
t-44 17.5q-28 0 -45 -18t-17 -46q0 -30 16 -46.5t45 -16.5z" />
    <glyph glyph-name="franc" unicode="&#x20a3;" horiz-adv-x="900" 
d="M208 0h-118v703h398v-106h-280v-209h256v-105h-256v-283zM564 509h114v-117q19 57 56.5 87t89.5 30h38v-104h-47q-63 0 -100 -43.5t-37 -113.5v-248h-114v509z" />
    <glyph glyph-name="Euro" unicode="&#x20ac;" horiz-adv-x="685" 
d="M244 322h169v-80h-162q13 -75 47.5 -113t89.5 -38q58 0 94 38t52 115l106 -38q-25 -107 -89.5 -162.5t-161.5 -55.5q-105 0 -171.5 64.5t-85.5 189.5h-73v80h66q-1 5 -1 11.5v18.5v27h-65v81h73q19 125 85.5 190t171.5 65q95 0 160 -55t91 -160l-111 -39q-17 77 -51 114
t-90 37t-90 -38t-47 -114h162v-81h-170v-27v-18.5t1 -11.5z" />
    <glyph glyph-name="uni20BF" unicode="&#x20bf;" horiz-adv-x="840" 
d="M57 352q0 150 106.5 256.5t256.5 106.5t257 -106.5t107 -256.5t-107 -257t-257 -107t-256.5 107t-106.5 257zM329 151v-73h64v73h38v-73h62v76q46 9 72.5 37.5t26.5 69.5q0 36 -21.5 62t-60.5 36q32 13 49 37t17 57q0 35 -22 59t-61 34v80h-62v-74h-38v74h-64v-74h-56
v-401h56zM499 437q0 -25 -18.5 -39.5t-49.5 -14.5h-83v104h81q32 0 51 -13.5t19 -36.5zM516 271q0 -25 -19 -40t-49 -15h-100v107h100q31 0 49.5 -14t18.5 -38z" />
    <glyph glyph-name="uni2113" unicode="&#x2113;" horiz-adv-x="475" 
d="M129 217l-58 -32l-39 81l97 57v204q0 86 47 137t126 51q67 0 107.5 -41t40.5 -106q0 -82 -51 -151.5t-158 -134.5v-105q0 -41 19 -61t58 -20h98v-96h-104q-92 0 -137.5 41.5t-45.5 126.5v49zM300 620q-29 0 -44 -21t-15 -60v-146q55 36 82 77.5t27 90.5q0 26 -13.5 42.5
t-36.5 16.5z" />
    <glyph glyph-name="trademark" unicode="&#x2122;" horiz-adv-x="851" 
d="M216 323h-86v300h-104v80h293v-80h-103v-300zM446 323h-79v380h121l84 -291l88 291h118v-380h-80l-1 266l-82 -266h-87l-82 276v-276z" />
    <glyph glyph-name="Omega" unicode="&#x2126;" horiz-adv-x="816" 
d="M180 382q0 -79 44.5 -140t130.5 -101v-141h-291v104h203q-99 41 -155 117.5t-56 169.5q0 137 100.5 230.5t251.5 93.5t251.5 -93.5t100.5 -230.5q0 -92 -55 -169t-153 -118h201v-104h-292v141q86 40 130.5 101.5t44.5 139.5q0 93 -66 158t-162 65t-162 -65t-66 -158z" />
    <glyph glyph-name="estimated" unicode="&#x212e;" horiz-adv-x="833" 
d="M424 50q84 0 154 43t109 118l57 -33q-48 -88 -134.5 -139t-187.5 -51q-151 0 -258.5 106.5t-107.5 256.5t107 257t258 107q160 0 260 -107.5t100 -287.5h-549v-199q41 -34 90 -52.5t102 -18.5zM421 651q-53 0 -101.5 -18t-87.5 -52v-197h371v203q-38 31 -85 47.5
t-97 16.5z" />
    <glyph glyph-name="uni2153" unicode="&#x2153;" horiz-adv-x="721" 
d="M313 374h-241v69h81v162q-17 -26 -41 -42.5t-48 -19.5l-4 89q39 9 63 26t40 45h69v-260h81v-69zM468 387h-97l183 316h97zM678 105q0 -47 -37.5 -79.5t-96.5 -32.5q-55 0 -92 30t-41 75l78 11q4 -26 18.5 -39t37.5 -13q24 0 39 14t15 36q0 24 -13.5 36t-38.5 12
q-11 0 -21 -3.5t-19 -11.5l-37 45l90 75h-136v68h233v-62l-85 -72q6 2 12 3t11 1q37 0 60 -26t23 -67zM134 0h-97l183 316h97z" />
    <glyph glyph-name="uni2154" unicode="&#x2154;" horiz-adv-x="726" 
d="M150 444h168v-69h-253v53q0 41 16.5 65t51.5 40l68 31q16 7 24 17.5t8 24.5q0 17 -11.5 28t-30.5 11q-22 0 -34.5 -11t-12.5 -29q0 -8 1 -14.5t5 -14.5l-82 7q-2 9 -2.5 14.5t-0.5 10.5q0 43 36 72t91 29q54 0 87.5 -27.5t33.5 -72.5q0 -37 -18 -60.5t-60 -43.5l-59 -27
q-14 -7 -20 -14t-6 -18v-2zM474 387h-97l183 316h97zM684 105q0 -47 -37.5 -79.5t-96.5 -32.5q-55 0 -92 30t-41 75l78 11q4 -26 18.5 -39t37.5 -13q24 0 39 14t15 36q0 24 -13.5 36t-38.5 12q-11 0 -21 -3.5t-19 -11.5l-37 45l90 75h-136v68h233v-62l-85 -72q6 2 12 3t11 1
q37 0 60 -26t23 -67zM140 0h-97l183 316h97z" />
    <glyph glyph-name="uni2155" unicode="&#x2155;" horiz-adv-x="699" 
d="M313 374h-241v69h81v162q-17 -26 -41 -42.5t-48 -19.5l-4 89q39 9 63 26t40 45h69v-260h81v-69zM469 387h-97l183 316h97zM519 58q23 0 37 14.5t14 35.5q0 22 -13 35.5t-37 13.5q-14 0 -26 -6t-23 -19l-65 26l24 170h194v-68h-133l-13 -77q13 17 32 25.5t42 8.5
q42 0 70 -30t28 -77q0 -51 -37 -84t-94 -33q-51 0 -89.5 27t-42.5 66l76 20q4 -23 19 -35.5t37 -12.5zM135 0h-97l183 316h97z" />
    <glyph glyph-name="uni2156" unicode="&#x2156;" horiz-adv-x="703" 
d="M150 444h168v-69h-253v53q0 41 16.5 65t51.5 40l68 31q16 7 24 17.5t8 24.5q0 17 -11.5 28t-30.5 11q-22 0 -34.5 -11t-12.5 -29q0 -8 1 -14.5t5 -14.5l-82 7q-2 9 -2.5 14.5t-0.5 10.5q0 43 36 72t91 29q54 0 87.5 -27.5t33.5 -72.5q0 -37 -18 -60.5t-60 -43.5l-59 -27
q-14 -7 -20 -14t-6 -18v-2zM474 387h-97l183 316h97zM524 58q23 0 37 14.5t14 35.5q0 22 -13 35.5t-37 13.5q-14 0 -26 -6t-23 -19l-65 26l24 170h194v-68h-133l-13 -77q13 17 32 25.5t42 8.5q42 0 70 -30t28 -77q0 -51 -37 -84t-94 -33q-51 0 -89.5 27t-42.5 66l76 20
q4 -23 19 -35.5t37 -12.5zM140 0h-97l183 316h97z" />
    <glyph glyph-name="uni2157" unicode="&#x2157;" horiz-adv-x="694" 
d="M326 480q0 -47 -37.5 -79.5t-96.5 -32.5q-55 0 -92 30t-41 75l78 11q4 -26 18.5 -39t37.5 -13q24 0 39 14t15 36q0 24 -13.5 36t-38.5 12q-11 0 -21 -3.5t-19 -11.5l-37 45l90 75h-136v68h233v-62l-85 -72q6 2 12 3t11 1q37 0 60 -26t23 -67zM464 387h-97l183 316h97z
M514 58q23 0 37 14.5t14 35.5q0 22 -13 35.5t-37 13.5q-14 0 -26 -6t-23 -19l-65 26l24 170h194v-68h-133l-13 -77q13 17 32 25.5t42 8.5q42 0 70 -30t28 -77q0 -51 -37 -84t-94 -33q-51 0 -89.5 27t-42.5 66l76 20q4 -23 19 -35.5t37 -12.5zM130 0h-97l183 316h97z" />
    <glyph glyph-name="uni2158" unicode="&#x2158;" horiz-adv-x="715" 
d="M133 681v22h80v-29q0 -49 -26.5 -93.5t-78.5 -83.5h108v67h75v-67h35v-67h-35v-56h-75v56h-181v65q48 41 73 88.5t25 97.5zM485 387h-97l183 316h97zM536 58q23 0 37 14.5t14 35.5q0 22 -13 35.5t-37 13.5q-14 0 -26 -6t-23 -19l-65 26l24 170h194v-68h-133l-13 -77
q13 17 32 25.5t42 8.5q42 0 70 -30t28 -77q0 -51 -37 -84t-94 -33q-51 0 -89.5 27t-42.5 66l76 20q4 -23 19 -35.5t37 -12.5zM151 0h-97l183 316h97z" />
    <glyph glyph-name="uni2159" unicode="&#x2159;" horiz-adv-x="701" 
d="M312 374h-241v69h81v162q-17 -26 -41 -42.5t-48 -19.5l-4 89q39 9 63 26t40 45h69v-260h81v-69zM468 387h-97l183 316h97zM547 217q46 0 73.5 -28.5t27.5 -78.5t-36.5 -83.5t-90.5 -33.5q-65 0 -100.5 41t-35.5 118q0 84 38 132.5t101 48.5q50 0 81.5 -23.5t39.5 -68.5
l-75 -13q-4 21 -15.5 32t-30.5 11q-28 0 -43.5 -26.5t-17.5 -73.5q11 22 34 34t50 12zM134 0h-97l183 316h97zM520 161q-24 0 -38.5 -15.5t-14.5 -39.5q0 -23 14.5 -38t37.5 -15t38 15t15 39q0 25 -14 39.5t-38 14.5z" />
    <glyph glyph-name="uni215A" unicode="&#x215a;" horiz-adv-x="700" 
d="M188 433q23 0 37 14.5t14 35.5q0 22 -13 35.5t-37 13.5q-14 0 -26 -6t-23 -19l-65 26l24 170h194v-68h-133l-13 -77q13 17 32 25.5t42 8.5q42 0 70 -30t28 -77q0 -51 -37 -84t-94 -33q-51 0 -89.5 27t-42.5 66l76 20q4 -23 19 -35.5t37 -12.5zM467 387h-97l183 316h97z
M546 217q46 0 73.5 -28.5t27.5 -78.5t-36.5 -83.5t-90.5 -33.5q-65 0 -100.5 41t-35.5 118q0 84 38 132.5t101 48.5q50 0 81.5 -23.5t39.5 -68.5l-75 -13q-4 21 -15.5 32t-30.5 11q-28 0 -43.5 -26.5t-17.5 -73.5q11 22 34 34t50 12zM133 0h-97l183 316h97zM519 161
q-24 0 -38.5 -15.5t-14.5 -39.5q0 -23 14.5 -38t37.5 -15t38 15t15 39q0 25 -14 39.5t-38 14.5z" />
    <glyph glyph-name="uni215B" unicode="&#x215b;" horiz-adv-x="701" 
d="M312 374h-241v69h81v162q-17 -26 -41 -42.5t-48 -19.5l-4 89q39 9 63 26t40 45h69v-260h81v-69zM468 387h-97l183 316h97zM518 -7q-59 0 -95.5 28t-36.5 72q0 29 17.5 50t51.5 32q-27 9 -41.5 27.5t-14.5 43.5q0 37 33 62t87 25t86 -24.5t32 -62.5q0 -25 -14 -43t-41 -28
q33 -11 51 -32t18 -50q0 -43 -36.5 -71.5t-96.5 -28.5zM134 0h-97l183 316h97zM473 238q0 -17 12 -27.5t34 -10.5q21 0 33.5 10.5t12.5 27.5q0 16 -12.5 26.5t-33.5 10.5t-33.5 -10t-12.5 -27zM462 99q0 -21 15.5 -34t40.5 -13q26 0 41.5 13t15.5 34q0 22 -15.5 35t-41.5 13
t-41 -13t-15 -35z" />
    <glyph glyph-name="uni215C" unicode="&#x215c;" horiz-adv-x="696" 
d="M326 480q0 -47 -37.5 -79.5t-96.5 -32.5q-55 0 -92 30t-41 75l78 11q4 -26 18.5 -39t37.5 -13q24 0 39 14t15 36q0 24 -13.5 36t-38.5 12q-11 0 -21 -3.5t-19 -11.5l-37 45l90 75h-136v68h233v-62l-85 -72q6 2 12 3t11 1q37 0 60 -26t23 -67zM462 387h-97l183 316h97z
M512 -7q-59 0 -95.5 28t-36.5 72q0 29 17.5 50t51.5 32q-27 9 -41.5 27.5t-14.5 43.5q0 37 33 62t87 25t86 -24.5t32 -62.5q0 -25 -14 -43t-41 -28q33 -11 51 -32t18 -50q0 -43 -36.5 -71.5t-96.5 -28.5zM128 0h-97l183 316h97zM467 238q0 -17 12 -27.5t34 -10.5
q21 0 33.5 10.5t12.5 27.5q0 16 -12.5 26.5t-33.5 10.5t-33.5 -10t-12.5 -27zM456 99q0 -21 15.5 -34t40.5 -13q26 0 41.5 13t15.5 34q0 22 -15.5 35t-41.5 13t-41 -13t-15 -35z" />
    <glyph glyph-name="uni215D" unicode="&#x215d;" horiz-adv-x="700" 
d="M188 433q23 0 37 14.5t14 35.5q0 22 -13 35.5t-37 13.5q-14 0 -26 -6t-23 -19l-65 26l24 170h194v-68h-133l-13 -77q13 17 32 25.5t42 8.5q42 0 70 -30t28 -77q0 -51 -37 -84t-94 -33q-51 0 -89.5 27t-42.5 66l76 20q4 -23 19 -35.5t37 -12.5zM467 387h-97l183 316h97z
M517 -7q-59 0 -95.5 28t-36.5 72q0 29 17.5 50t51.5 32q-27 9 -41.5 27.5t-14.5 43.5q0 37 33 62t87 25t86 -24.5t32 -62.5q0 -25 -14 -43t-41 -28q33 -11 51 -32t18 -50q0 -43 -36.5 -71.5t-96.5 -28.5zM133 0h-97l183 316h97zM472 238q0 -17 12 -27.5t34 -10.5
q21 0 33.5 10.5t12.5 27.5q0 16 -12.5 26.5t-33.5 10.5t-33.5 -10t-12.5 -27zM461 99q0 -21 15.5 -34t40.5 -13q26 0 41.5 13t15.5 34q0 22 -15.5 35t-41.5 13t-41 -13t-15 -35z" />
    <glyph glyph-name="uni215E" unicode="&#x215e;" horiz-adv-x="693" 
d="M263 634h-188v69h245v-63q-59 -59 -76.5 -105.5t-17.5 -116.5v-44h-81v52q0 64 23.5 109.5t94.5 98.5zM454 387h-97l183 316h97zM504 -7q-59 0 -95.5 28t-36.5 72q0 29 17.5 50t51.5 32q-27 9 -41.5 27.5t-14.5 43.5q0 37 33 62t87 25t86 -24.5t32 -62.5q0 -25 -14 -43
t-41 -28q33 -11 51 -32t18 -50q0 -43 -36.5 -71.5t-96.5 -28.5zM120 0h-97l183 316h97zM459 238q0 -17 12 -27.5t34 -10.5q21 0 33.5 10.5t12.5 27.5q0 16 -12.5 26.5t-33.5 10.5t-33.5 -10t-12.5 -27zM448 99q0 -21 15.5 -34t40.5 -13q26 0 41.5 13t15.5 34q0 22 -15.5 35
t-41.5 13t-41 -13t-15 -35z" />
    <glyph glyph-name="arrowleft" unicode="&#x2190;" horiz-adv-x="808" 
d="M216 248q-32 31 -67.5 49t-93.5 28v63q58 10 93.5 28t67.5 49q27 27 52.5 64.5t49.5 85.5l87 -37q-29 -63 -70.5 -104.5t-111.5 -75.5h535v-82h-537q65 -26 108.5 -69.5t75.5 -111.5l-87 -37q-24 48 -49.5 85.5t-52.5 64.5z" />
    <glyph glyph-name="arrowup" unicode="&#x2191;" horiz-adv-x="588" 
d="M185 542q31 32 49 67.5t28 93.5h63q10 -58 28 -93.5t49 -67.5q27 -27 64.5 -52.5t85.5 -49.5l-37 -87q-63 29 -104.5 70.5t-75.5 111.5v-535h-82v537q-26 -65 -69.5 -108.5t-111.5 -75.5l-37 87q48 24 85.5 49.5t64.5 52.5z" />
    <glyph glyph-name="arrowright" unicode="&#x2192;" horiz-adv-x="808" 
d="M593 248q-27 -27 -52.5 -64.5t-49.5 -85.5l-87 37q32 68 75.5 111.5t108.5 69.5h-537v82h535q-70 34 -111.5 75.5t-70.5 104.5l87 37q24 -48 49.5 -85.5t52.5 -64.5q32 -31 67.5 -49t93.5 -28v-63q-58 -10 -93.5 -28t-67.5 -49z" />
    <glyph glyph-name="arrowdown" unicode="&#x2193;" horiz-adv-x="587" 
d="M184 161q-27 27 -64.5 52.5t-85.5 49.5l37 87q68 -32 111.5 -75.5t69.5 -108.5v537h82v-535q34 70 75.5 111.5t104.5 70.5l37 -87q-48 -24 -85.5 -49.5t-64.5 -52.5q-31 -32 -49 -67.5t-28 -93.5h-63q-10 58 -28 93.5t-49 67.5z" />
    <glyph glyph-name="uni2196" unicode="&#x2196;" horiz-adv-x="603" 
d="M92 411q-1 45 -13.5 83t-46.5 85l45 45q48 -34 85.5 -46.5t82.5 -13.5q38 0 82.5 8.5t95.5 25.5l36 -87q-65 -24 -124 -24.5t-132 25.5l378 -378l-58 -58l-380 380q28 -65 28 -126.5t-26 -131.5l-87 35q17 51 25.5 95.5t8.5 82.5z" />
    <glyph glyph-name="uni2197" unicode="&#x2197;" horiz-adv-x="603" 
d="M511 411q0 -38 8.5 -82.5t25.5 -95.5l-87 -35q-26 70 -26 131.5t28 126.5l-380 -380l-58 58l378 378q-73 -26 -132 -25.5t-124 24.5l36 87q51 -17 95.5 -25.5t82.5 -8.5q45 1 82.5 13.5t85.5 46.5l45 -45q-34 -47 -46.5 -85t-13.5 -83z" />
    <glyph glyph-name="uni2198" unicode="&#x2198;" horiz-adv-x="605" 
d="M512 288q1 -45 13.5 -83t46.5 -85l-45 -45q-48 34 -85.5 46.5t-82.5 13.5q-38 0 -82.5 -8.5t-95.5 -25.5l-36 87q65 24 124 24.5t132 -25.5l-378 378l58 58l380 -380q-28 65 -28 126.5t26 131.5l87 -35q-17 -51 -25.5 -95.5t-8.5 -82.5z" />
    <glyph glyph-name="uni2199" unicode="&#x2199;" horiz-adv-x="605" 
d="M93 288q0 38 -8.5 82.5t-25.5 95.5l87 35q26 -70 26 -131.5t-28 -126.5l380 380l58 -58l-378 -378q73 26 132 25.5t124 -24.5l-36 -87q-51 17 -95.5 25.5t-82.5 8.5q-45 -1 -82.5 -13.5t-85.5 -46.5l-45 45q34 47 46.5 85t13.5 83z" />
    <glyph glyph-name="partialdiff" unicode="&#x2202;" horiz-adv-x="628" 
d="M40 243q0 107 68.5 179.5t171.5 72.5q62 0 112 -30.5t78 -84.5q-13 132 -54.5 188.5t-121.5 56.5q-37 0 -74.5 -14.5t-70.5 -40.5l-44 75q36 32 88.5 51t108.5 19q84 0 142.5 -36.5t90.5 -108.5q21 -46 31.5 -108t10.5 -179q0 -125 -76.5 -210t-191.5 -85
q-116 0 -192.5 73.5t-76.5 181.5zM309 87q66 0 110.5 44.5t44.5 110.5t-44.5 110t-110.5 44q-67 0 -111.5 -44.5t-44.5 -109.5q0 -66 45 -110.5t111 -44.5z" />
    <glyph glyph-name="Delta" unicode="&#x2206;" horiz-adv-x="653" 
d="M260 703h134l231 -617v-86h-597v87zM323 579l-169 -474h340z" />
    <glyph glyph-name="product" unicode="&#x220f;" horiz-adv-x="736" 
d="M242 0h-119v593h-90v110h670v-110h-91v-593h-119v593h-251v-593z" />
    <glyph glyph-name="summation" unicode="&#x2211;" horiz-adv-x="604" 
d="M43 608v95h513v-105h-361l203 -232l-204 -261h371v-105h-519v88l212 273z" />
    <glyph glyph-name="minus" unicode="&#x2212;" 
d="M72 301v102h456v-102h-456z" />
    <glyph glyph-name="uni2215" unicode="&#x2215;" horiz-adv-x="646" 
d="M448 387h-97l183 316h97zM114 0h-97l183 316h97z" />
    <glyph glyph-name="uni2219" unicode="&#x2219;" 
d="M429 341q0 -52 -37.5 -89t-90.5 -37t-90 37t-37 89q0 53 36.5 89.5t90.5 36.5t91 -36.5t37 -89.5z" />
    <glyph glyph-name="radical" unicode="&#x221a;" horiz-adv-x="627" 
d="M376 0h-131l-120 369h-77v100h167l98 -327l175 561h117z" />
    <glyph glyph-name="infinity" unicode="&#x221e;" horiz-adv-x="821" 
d="M766 352q0 -77 -50.5 -127t-123.5 -50q-54 0 -100.5 27.5t-83.5 81.5q-35 -55 -80.5 -82.5t-100.5 -27.5q-74 0 -123.5 50t-49.5 127t49.5 127t123.5 50q55 0 103 -26.5t82 -76.5q33 51 79 77.5t101 26.5q73 0 123.5 -50t50.5 -127zM354 352q-20 40 -52 62.5t-68 22.5
q-37 0 -60.5 -24t-23.5 -62t23.5 -61.5t60.5 -23.5q39 0 67.5 21t52.5 65zM468 355q22 -44 51.5 -66.5t65.5 -22.5q37 0 60.5 23.5t23.5 61.5t-24 62t-60 24t-65 -20.5t-52 -61.5z" />
    <glyph glyph-name="integral" unicode="&#x222b;" horiz-adv-x="444" 
d="M165 -14v570q0 82 48.5 125.5t141.5 43.5h72v-96h-71q-39 0 -58 -19t-19 -61v-570q0 -82 -48.5 -125.5t-141.5 -43.5h-72v96h70q40 0 59 19t19 61z" />
    <glyph glyph-name="approxequal" unicode="&#x2248;" 
d="M208 528q25 0 49 -6t65 -24q34 -15 52 -19.5t34 -4.5q33 0 59 11.5t49 39.5v-97q-16 -23 -46 -37t-68 -14q-24 0 -46 5.5t-58 22.5q-34 16 -54 21t-41 5q-32 0 -61.5 -14t-54.5 -43v98q14 22 48 39t73 17zM208 328q25 0 49 -6t65 -24q34 -15 52 -19.5t34 -4.5
q33 0 59 11.5t49 39.5v-97q-16 -23 -46 -37t-68 -14q-24 0 -46 5.5t-58 22.5q-34 16 -54 21t-41 5q-32 0 -61.5 -14t-54.5 -43v98q14 22 48 39t73 17z" />
    <glyph glyph-name="notequal" unicode="&#x2260;" 
d="M224 114h-96l44 85h-100v102h153l57 110h-210v102h263l44 85h96l-44 -85h97v-102h-150l-57 -110h207v-102h-260z" />
    <glyph glyph-name="lessequal" unicode="&#x2264;" 
d="M504 167l-417 189v88l417 189v-111l-272 -122l272 -122v-111zM87 4v102h417v-102h-417z" />
    <glyph glyph-name="greaterequal" unicode="&#x2265;" 
d="M96 167v111l272 122l-272 122v111l417 -189v-88zM513 4h-417v102h417v-102z" />
    <glyph glyph-name="lozenge" unicode="&#x25ca;" horiz-adv-x="665" 
d="M287 0l-240 365l242 338h86l243 -338l-240 -365h-91zM332 582l-157 -217l158 -243l157 242z" />
    <glyph glyph-name="circleblack" unicode="&#x25cf;" horiz-adv-x="841" 
d="M784 351q0 -150 -106.5 -256.5t-256.5 -106.5t-257 107t-107 256q0 150 107 257t257 107t256.5 -107t106.5 -257z" />
    <glyph glyph-name="circlehalfleftblack" unicode="&#x25d0;" horiz-adv-x="841" 
d="M784 351q0 -150 -106.5 -256.5t-256.5 -106.5t-257 107t-107 256q0 150 107 257t257 107t256.5 -107t106.5 -257zM421 645v-587q120 0 204 85.5t84 207.5q0 121 -84.5 207.5t-203.5 86.5z" />
    <glyph glyph-name="circlehalfrightblack" unicode="&#x25d1;" horiz-adv-x="841" 
d="M57 351q0 150 106.5 257t256.5 107t257 -107t107 -257q0 -149 -107 -256t-257 -107t-256.5 106.5t-106.5 256.5zM420 645q-119 0 -203.5 -86.5t-84.5 -207.5q0 -122 84 -207.5t204 -85.5v587z" />
    <glyph glyph-name="checkbox" unicode="&#x2610;" horiz-adv-x="874" 
d="M789 0h-703v703h703v-703zM161 633v-563h553v563h-553z" />
    <glyph glyph-name="dngb_spokedasteriskeight" unicode="&#x2733;" horiz-adv-x="815" 
d="M447 0h-80v255l-180 -180l-56 56l181 181h-256v80h254l-179 179l56 57l180 -180v255h80v-256l181 181l56 -56l-180 -180h255v-80h-256l181 -181l-56 -57l-181 181v-255z" />
    <glyph glyph-name="uni2B1B" unicode="&#x2b1b;" horiz-adv-x="874" 
d="M789 0h-703v703h703v-703z" />
    <glyph glyph-name="uni2B2D" unicode="&#x2b2d;" horiz-adv-x="1138" 
d="M905 69q-68 -40 -153 -60.5t-183 -20.5t-183.5 21t-153.5 61q-85 50 -131 123t-46 158t46 158.5t131 123.5q68 40 153.5 61t183.5 21t183.5 -20.5t152.5 -60.5q85 -50 131 -124t46 -159t-46 -158.5t-131 -123.5zM130 351q0 -128 123 -210.5t321 -82.5q194 0 313.5 82
t119.5 211q0 130 -119 212t-314 82q-199 0 -321.5 -82t-122.5 -212z" />
    <glyph glyph-name="uni2B55" unicode="&#x2b55;" horiz-adv-x="841" 
d="M784 351q0 -150 -106.5 -256.5t-256.5 -106.5t-257 107t-107 256q0 150 107 257t257 107t256.5 -107t106.5 -257zM132 351q0 -121 83 -207t201 -86q122 0 207.5 85.5t85.5 207.5q0 121 -86 207.5t-207 86.5q-117 0 -200.5 -86.5t-83.5 -207.5z" />
    <glyph glyph-name="zero.denominator" unicode="&#xf655;" horiz-adv-x="382" 
d="M351 194q0 -98 -42.5 -149.5t-117.5 -51.5t-117.5 51.5t-42.5 149.5q0 97 42 148t118 51t118 -51t42 -148zM257 194q0 60 -16.5 90t-50.5 30t-50 -30t-16 -90q0 -61 16 -91t50 -30t50.5 30t16.5 91z" />
    <glyph glyph-name="one.denominator" unicode="&#xf656;" horiz-adv-x="271" 
d="M127 0v272q-20 -31 -48.5 -50.5t-56.5 -22.5l-5 105q47 10 74.5 30t47.5 53h81v-387h-93z" />
    <glyph glyph-name="two.denominator" unicode="&#xf657;" horiz-adv-x="362" 
d="M135 81h198v-81h-298v62q0 48 19.5 76.5t60.5 47.5l80 36q19 9 28.5 21.5t9.5 28.5q0 20 -13.5 33t-36.5 13q-26 0 -40.5 -13t-14.5 -35q0 -9 1.5 -16.5t5.5 -16.5l-96 8q-2 10 -3 16.5t-1 12.5q0 50 42.5 84.5t107.5 34.5q63 0 102.5 -32.5t39.5 -85.5q0 -43 -21.5 -71
t-70.5 -51l-69 -32q-16 -8 -23.5 -16.5t-7.5 -20.5v-3z" />
    <glyph glyph-name="three.denominator" unicode="&#xf658;" horiz-adv-x="363" 
d="M335 125q0 -55 -44 -93.5t-113 -38.5q-65 0 -108.5 35t-48.5 88l92 13q5 -30 22 -45.5t44 -15.5q28 0 45.5 16.5t17.5 42.5q0 28 -15.5 42.5t-45.5 14.5q-12 0 -24 -4.5t-23 -13.5l-44 53l106 88h-159v80h273v-73l-100 -85q8 3 14.5 4t13.5 1q43 0 70 -30.5t27 -78.5z
" />
    <glyph glyph-name="four.denominator" unicode="&#xf659;" horiz-adv-x="375" 
d="M132 361v26h94v-34q0 -57 -31.5 -109.5t-92.5 -98.5h127v79h89v-79h41v-79h-41v-66h-89v66h-213v76q57 49 86.5 104.5t29.5 114.5z" />
    <glyph glyph-name="five.denominator" unicode="&#xf65a;" horiz-adv-x="357" 
d="M177 69q26 0 43 17t17 42q0 27 -16 42.5t-43 15.5q-17 0 -31 -7t-27 -22l-77 30l29 200h228v-80h-157l-15 -90q16 19 38.5 29t48.5 10q50 0 82.5 -35t32.5 -91q0 -60 -43 -98.5t-111 -38.5q-59 0 -104.5 31.5t-50.5 77.5l90 24q4 -27 21.5 -42t44.5 -15z" />
    <glyph glyph-name="six.denominator" unicode="&#xf65b;" horiz-adv-x="371" 
d="M221 257q55 0 87 -34t32 -93q0 -58 -43 -97.5t-106 -39.5q-77 0 -118.5 48.5t-41.5 138.5q0 99 44.5 156t118.5 57q59 0 96 -28t46 -80l-88 -16q-5 25 -18.5 38t-35.5 13q-33 0 -51.5 -31t-20.5 -87q14 26 41 40.5t58 14.5zM189 190q-27 0 -44.5 -18t-17.5 -46t17 -45.5
t44 -17.5q28 0 45 18t17 46q0 30 -16 46.5t-45 16.5z" />
    <glyph glyph-name="seven.denominator" unicode="&#xf65c;" horiz-adv-x="316" 
d="M232 306h-221v81h288v-74q-69 -69 -90 -124t-21 -137v-52h-95v61q0 75 27.5 129t111.5 116z" />
    <glyph glyph-name="eight.denominator" unicode="&#xf65d;" horiz-adv-x="368" 
d="M184 -7q-70 0 -113 33t-43 84q0 34 21 59.5t60 37.5q-31 11 -48 32.5t-17 50.5q0 45 39 74t102 29t101 -29t38 -74q0 -29 -16.5 -50t-48.5 -33q39 -12 60 -37.5t21 -59.5q0 -51 -43 -84t-113 -33zM130 281q0 -20 14.5 -32t40.5 -12q25 0 39.5 12.5t14.5 31.5t-14.5 31.5
t-39.5 12.5q-26 0 -40.5 -12t-14.5 -32zM118 118q0 -25 18 -40.5t48 -15.5t48 15.5t18 40.5t-17.5 40.5t-48.5 15.5t-48.5 -15t-17.5 -41z" />
    <glyph glyph-name="nine.denominator" unicode="&#xf65e;" horiz-adv-x="371" 
d="M150 129q-55 0 -87 34t-32 93q0 58 43 97.5t106 39.5q77 0 118.5 -48.5t41.5 -138.5q0 -99 -44.5 -156t-118.5 -57q-59 0 -96 28t-46 80l88 16q5 -25 18.5 -38t35.5 -13q33 0 51.5 31t20.5 87q-14 -26 -41 -40.5t-58 -14.5zM182 196q27 0 44.5 18t17.5 46t-17 45.5
t-44 17.5q-28 0 -45 -18t-17 -46q0 -30 16 -46.5t45 -16.5z" />
    <glyph glyph-name="zero.numerator" unicode="&#xf661;" horiz-adv-x="380" 
d="M350 510q0 -98 -42.5 -149.5t-117.5 -51.5t-117.5 51.5t-42.5 149.5q0 97 42 148t118 51t118 -51t42 -148zM256 510q0 60 -16.5 90t-50.5 30t-50 -30t-16 -90q0 -61 16 -91t50 -30t50.5 30t16.5 91z" />
    <glyph glyph-name="one.numerator" unicode="&#xf662;" horiz-adv-x="271" 
d="M126 316v272q-20 -31 -48.5 -50.5t-56.5 -22.5l-5 105q47 10 74.5 30t47.5 53h81v-387h-93z" />
    <glyph glyph-name="two.numerator" unicode="&#xf663;" horiz-adv-x="363" 
d="M135 397h198v-81h-298v62q0 48 19.5 76.5t60.5 47.5l80 36q19 9 28.5 21.5t9.5 28.5q0 20 -13.5 33t-36.5 13q-26 0 -40.5 -13t-14.5 -35q0 -9 1.5 -16.5t5.5 -16.5l-96 8q-2 10 -3 16.5t-1 12.5q0 50 42.5 84.5t107.5 34.5q63 0 102.5 -32.5t39.5 -85.5q0 -43 -21.5 -71
t-70.5 -51l-69 -32q-16 -8 -23.5 -16.5t-7.5 -20.5v-3z" />
    <glyph glyph-name="three.numerator" unicode="&#xf664;" horiz-adv-x="361" 
d="M335 441q0 -55 -44 -93.5t-113 -38.5q-65 0 -108.5 35t-48.5 88l92 13q5 -30 22 -45.5t44 -15.5q28 0 45.5 16.5t17.5 42.5q0 28 -15.5 42.5t-45.5 14.5q-12 0 -24 -4.5t-23 -13.5l-44 53l106 88h-159v80h273v-73l-100 -85q8 3 14.5 4t13.5 1q43 0 70 -30.5t27 -78.5z
" />
    <glyph glyph-name="four.numerator" unicode="&#xf665;" horiz-adv-x="373" 
d="M130 677v26h94v-34q0 -57 -31.5 -109.5t-92.5 -98.5h127v79h89v-79h41v-79h-41v-66h-89v66h-213v76q57 49 86.5 104.5t29.5 114.5z" />
    <glyph glyph-name="five.numerator" unicode="&#xf666;" horiz-adv-x="354" 
d="M175 385q26 0 43 17t17 42q0 27 -16 42.5t-43 15.5q-17 0 -31 -7t-27 -22l-77 30l29 200h228v-80h-157l-15 -90q16 19 38.5 29t48.5 10q50 0 82.5 -35t32.5 -91q0 -60 -43 -98.5t-111 -38.5q-59 0 -104.5 31.5t-50.5 77.5l90 24q4 -27 21.5 -42t44.5 -15z" />
    <glyph glyph-name="six.numerator" unicode="&#xf667;" horiz-adv-x="369" 
d="M220 573q55 0 87 -34t32 -93q0 -58 -43 -97.5t-106 -39.5q-77 0 -118.5 48.5t-41.5 138.5q0 99 44.5 156t118.5 57q59 0 96 -28t46 -80l-88 -16q-5 25 -18.5 38t-35.5 13q-33 0 -51.5 -31t-20.5 -87q14 26 41 40.5t58 14.5zM188 506q-27 0 -44.5 -18t-17.5 -46t17 -45.5
t44 -17.5q28 0 45 18t17 46q0 30 -16 46.5t-45 16.5z" />
    <glyph glyph-name="seven.numerator" unicode="&#xf668;" horiz-adv-x="318" 
d="M234 622h-221v81h288v-74q-69 -69 -90 -124t-21 -137v-52h-95v61q0 75 27.5 129t111.5 116z" />
    <glyph glyph-name="eight.numerator" unicode="&#xf669;" horiz-adv-x="366" 
d="M183 309q-70 0 -113 33t-43 84q0 34 21 59.5t60 37.5q-31 11 -48 32.5t-17 50.5q0 45 39 74t102 29t101 -29t38 -74q0 -29 -16.5 -50t-48.5 -33q39 -12 60 -37.5t21 -59.5q0 -51 -43 -84t-113 -33zM129 597q0 -20 14.5 -32t40.5 -12q25 0 39.5 12.5t14.5 31.5t-14.5 31.5
t-39.5 12.5q-26 0 -40.5 -12t-14.5 -32zM117 434q0 -25 18 -40.5t48 -15.5t48 15.5t18 40.5t-17.5 40.5t-48.5 15.5t-48.5 -15t-17.5 -41z" />
    <glyph glyph-name="nine.numerator" unicode="&#xf66a;" horiz-adv-x="368" 
d="M148 445q-55 0 -87 34t-32 93q0 58 43 97.5t106 39.5q77 0 118.5 -48.5t41.5 -138.5q0 -99 -44.5 -156t-118.5 -57q-59 0 -96 28t-46 80l88 16q5 -25 18.5 -38t35.5 -13q33 0 51.5 31t20.5 87q-14 -26 -41 -40.5t-58 -14.5zM180 512q27 0 44.5 18t17.5 46t-17 45.5
t-44 17.5q-28 0 -45 -18t-17 -46q0 -30 16 -46.5t45 -16.5z" />
    <glyph glyph-name="commaaccent" unicode="&#xf6c3;" horiz-adv-x="182" 
d="M92 -52q30 0 47.5 -19.5t17.5 -50.5q0 -47 -21.5 -80t-83.5 -69l-29 41q41 27 49.5 37t13.5 21q-25 2 -41 18.5t-16 39.5q0 27 17.5 44.5t45.5 17.5z" />
    <glyph glyph-name="uniF8FF" unicode="&#xf8ff;" horiz-adv-x="1495" 
d="M1414 529h-1338v8h1338v-8zM1221 257v30.5t-1 44.5l-29 -2v4q0 10 3 15t9 5h17l-3 30q19 6 23.5 7t8.5 1q5 0 8 -2t3 -6v-29h47v-3q0 -11 -3 -16t-9 -5h-35v-90q0 -8 4 -11.5t12 -3.5q6 0 13 1t21 4q20 4 30.5 5t20.5 1q22 0 42 -6.5t20 -17.5q0 -13 -8.5 -20.5
t-18.5 -7.5q-2 0 -5 1t-11 6q-19 10 -31.5 13.5t-23.5 3.5q-4 0 -9 -0.5t-17 -2.5q-18 -3 -29 -4t-21 -1q-17 0 -22 9.5t-6 46.5zM718 320q18 0 29 -14t11 -37q0 -33 -22.5 -50.5t-64.5 -17.5v-40l3 -32q-19 -6 -23.5 -7t-8.5 -1q-5 0 -8 2t-3 6v75l-25 -3v-3
q0 -38 -17.5 -58.5t-50.5 -20.5q-19 0 -30 9.5t-11 24.5q0 18 16.5 31t53.5 22v42q-8 -23 -20 -35.5t-26 -12.5t-21 7.5t-7 23.5v3q-10 -17 -23 -25t-30 -8q-13 0 -21 8t-8 22v101l-29 -2v4q0 10 3 15t9 5h17l-3 30q19 6 23.5 7t8.5 1q5 0 8 -2t3 -6v-29h47v-3q0 -11 -3 -16
t-9 -5h-35v-86q0 -8 3 -12t10 -4q10 0 19.5 8t9.5 18v25l-3 33q19 6 23.5 7t8.5 1q5 0 8 -2.5t3 -6.5v-66q0 -8 1.5 -11.5t5.5 -3.5q7 0 16.5 17t9.5 31l-2 34q19 6 23.5 7t7.5 1q5 0 8 -2.5t3 -6.5v-99l25 3v61l-3 36q19 6 23.5 7t8.5 1q5 0 8 -2.5t3 -6.5v-40
q8 23 20 35.5t27 12.5zM359 321q14 0 21 -8t7 -24v-49l3 -32q-19 -6 -23.5 -7t-7.5 -1q-5 0 -8 2t-3 6v66q0 9 -2 12.5t-6 3.5q-7 0 -16.5 -17.5t-9.5 -30.5l2 -34q-19 -6 -23.5 -7t-7.5 -1q-5 0 -8 2t-3 6v66q0 9 -2 12.5t-6 3.5q-7 0 -16.5 -17.5t-9.5 -30.5l3 -34
q-19 -6 -23.5 -7t-8.5 -1q-5 0 -8 2t-3 6v69l-3 36q19 6 23.5 7t8.5 1q5 0 8 -2.5t3 -6.5v-40q6 20 18 34.5t27 14.5q14 0 21.5 -8t7.5 -24v-17q6 22 18 35.5t27 13.5zM1049 321q14 0 21.5 -8t7.5 -24v-49l2 -32q-19 -6 -23.5 -7t-7.5 -1q-5 0 -8 2t-3 6v67q0 8 -2 11.5
t-6 3.5q-7 0 -16.5 -17.5t-9.5 -30.5l3 -34q-19 -6 -23.5 -7t-8.5 -1q-5 0 -8 2t-3 6v69l-3 36q19 6 23.5 7t8.5 1q5 0 8 -2.5t3 -6.5v-40q9 24 20 36.5t25 12.5zM182 290q0 -12 -6 -19.5t-19 -12.5q-9 -3 -19 -4.5t-25 -1.5q1 -10 8 -16t18 -6q9 0 16.5 2t15.5 7q4 -3 6 -7
t2 -9q0 -9 -12.5 -16t-34.5 -7q-28 0 -44 14.5t-16 38.5q0 29 19 48.5t50 19.5q18 0 29.5 -9t11.5 -22zM1204 290q0 -12 -6 -19.5t-19 -12.5q-9 -3 -19 -4.5t-25 -1.5q1 -10 8 -16t18 -6q9 0 16.5 2t15.5 7q4 -3 6 -7t2 -9q0 -9 -12.5 -16t-34.5 -7q-28 0 -44 14.5t-16 38.5
q0 29 19 48.5t50 19.5q18 0 29.5 -9t11.5 -22zM881 290q0 -12 -6 -19.5t-19 -12.5q-9 -3 -19 -4.5t-25 -1.5q1 -10 8 -16t18 -6q9 0 16.5 2t15.5 7q4 -3 6 -7t2 -9q0 -9 -12.5 -16t-34.5 -7q-28 0 -44 14.5t-16 38.5q0 29 19 48.5t50 19.5q18 0 29.5 -9t11.5 -22zM835 298
q-9 0 -15.5 -9.5t-8.5 -24.5q16 0 26.5 5.5t10.5 15.5q0 6 -3.5 9.5t-9.5 3.5zM1158 298q-9 0 -15.5 -9.5t-8.5 -24.5q16 0 26.5 5.5t10.5 15.5q0 6 -3.5 9.5t-9.5 3.5zM136 298q-9 0 -15.5 -9.5t-8.5 -24.5q16 0 26.5 5.5t10.5 15.5q0 6 -3.5 9.5t-9.5 3.5zM671 242v-23
q23 3 34 16t11 35q0 10 -3.5 15t-9.5 5q-12 0 -22 -18t-10 -30zM896 226q0 10 7 17t18 7t18.5 -7t7.5 -17t-7.5 -16.5t-18.5 -6.5t-18 6.5t-7 16.5zM539 148q12 0 19 11t8 35q-19 -4 -30 -12.5t-11 -19.5q0 -7 4 -10.5t10 -3.5zM1414 0h-1338v8h1338v-8z" />
    <glyph glyph-name="f_f" unicode="&#xfb00;" horiz-adv-x="687" 
d="M227 550v-41h210v47q0 82 48.5 125.5t141.5 43.5h72v-95h-70q-40 0 -59 -19t-19 -61v-41h123v-94h-123v-415h-114v415h-210v-415h-114v415h-90v94h90v47q0 82 48.5 125.5t141.5 43.5h62v-95h-61q-39 0 -58 -19t-19 -61z" />
    <glyph glyph-name="f_f_i" unicode="&#xfb03;" horiz-adv-x="949" 
d="M892 670q0 -30 -21.5 -51t-52.5 -21t-52 21t-21 51t21 51t52 21t52.5 -21t21.5 -51zM227 550v-41h210v47q0 82 48.5 125.5t141.5 43.5h62v-95h-60q-40 0 -59 -19t-19 -61v-41h123v-94h-123v-415h-114v415h-210v-415h-114v415h-90v94h90v47q0 82 48.5 125.5t141.5 43.5h62
v-95h-61q-39 0 -58 -19t-19 -61zM875 0h-114v509h114v-509z" />
    <glyph glyph-name="f_f_l" unicode="&#xfb04;" horiz-adv-x="949" 
d="M227 550v-41h210v47q0 82 48.5 125.5t141.5 43.5h62v-95h-60q-40 0 -59 -19t-19 -61v-41h123v-94h-123v-415h-114v415h-210v-415h-114v415h-90v94h90v47q0 82 48.5 125.5t141.5 43.5h62v-95h-61q-39 0 -58 -19t-19 -61zM875 0h-114v725h114v-725z" />
    <glyph glyph-name="longs_t" unicode="&#xfb05;" horiz-adv-x="719" 
d="M227 549v-549h-114v415h-90v94h90v47q0 82 48.5 125.5t141.5 43.5h72v-96h-71q-39 0 -58 -19t-19 -61zM551 415v-241q0 -41 19 -59.5t58 -18.5h68v-96h-76q-93 0 -138 41t-45 127v247h-90v94h90v147h114v-147h123v-94h-123z" />
    <glyph glyph-name="zero.tab" unicode="&#xff10;" horiz-adv-x="680" 
d="M610 352q0 -178 -70.5 -271t-199.5 -93t-199.5 93t-70.5 271q0 177 70.5 270t199.5 93t199.5 -93t70.5 -270zM488 352q0 131 -37 196t-112 65t-111.5 -65t-36.5 -196t36.5 -196.5t111.5 -65.5t112 65.5t37 196.5z" />
    <glyph glyph-name="one.tab" unicode="&#xff11;" horiz-adv-x="680" 
d="M599 0h-458v107h170v456q-30 -55 -82 -90t-109 -41l-9 124q86 20 134.5 55t83.5 92h100v-596h170v-107z" />
    <glyph glyph-name="two.tab" unicode="&#xff12;" horiz-adv-x="680" 
d="M213 106h391v-106h-517v95q0 76 35 125.5t111 87.5l147 73q44 22 66 52.5t22 68.5q0 51 -34 82t-91 31q-64 0 -99.5 -32t-35.5 -86q0 -17 3.5 -33.5t10.5 -33.5l-125 10q-5 21 -7 35.5t-2 27.5q0 90 72.5 151t184.5 61q108 0 176 -57.5t68 -149.5q0 -74 -35 -124.5
t-111 -88.5l-157 -78q-38 -19 -55.5 -43.5t-17.5 -63.5v-4z" />
    <glyph glyph-name="three.tab" unicode="&#xff13;" horiz-adv-x="680" 
d="M335 88q66 0 106 39t40 103q0 63 -34 96t-98 33q-30 0 -58 -9t-45 -23l-60 68l212 202h-304v106h458v-95l-200 -186q12 6 26.5 9t31.5 3q87 0 139 -56.5t52 -150.5q0 -100 -74 -169.5t-191 -69.5q-113 0 -187 64.5t-80 161.5l118 20q8 -71 46 -108.5t102 -37.5z" />
    <glyph glyph-name="four.tab" unicode="&#xff14;" horiz-adv-x="680" 
d="M272 644v59h121v-69q0 -130 -60 -229t-172 -157h284v158h118v-158h75v-106h-75v-142h-118v142h-404v107q72 50 109.5 86.5t62.5 77.5q30 49 44.5 106t14.5 125z" />
    <glyph glyph-name="five.tab" unicode="&#xff15;" horiz-adv-x="680" 
d="M595 232q0 -105 -74 -174.5t-185 -69.5q-101 0 -178.5 58.5t-84.5 142.5l110 38q11 -66 51 -102.5t101 -36.5t101.5 41t40.5 101q0 64 -35.5 101.5t-98.5 37.5q-40 0 -72 -16t-58 -52l-99 38l53 364h374v-106h-282l-37 -207q27 37 65.5 55.5t87.5 18.5q100 0 160 -63.5
t60 -168.5z" />
    <glyph glyph-name="six.tab" unicode="&#xff16;" horiz-adv-x="680" 
d="M374 470q105 0 168 -64t63 -172q0 -103 -73.5 -174.5t-180.5 -71.5q-132 0 -203 87.5t-71 251.5q0 183 74 285.5t201 102.5q100 0 163 -51t77 -146l-112 -25q-8 60 -40.5 92t-85.5 32q-74 0 -115 -68.5t-46 -194.5q23 55 72 85.5t109 30.5zM348 375q-64 0 -105 -41.5
t-41 -103.5q0 -63 40 -104t104 -41t104 41t40 106q0 68 -37.5 105.5t-104.5 37.5z" />
    <glyph glyph-name="seven.tab" unicode="&#xff17;" horiz-adv-x="680" 
d="M582 703v-95q-82 -69 -122.5 -121t-62.5 -112q-21 -56 -31 -128t-10 -170v-77h-122v95q0 178 55.5 299t180.5 203h-387v106h499z" />
    <glyph glyph-name="eight.tab" unicode="&#xff18;" horiz-adv-x="680" 
d="M340 -12q-122 0 -194.5 59.5t-72.5 153.5q0 69 36.5 113t108.5 63q-57 20 -86 60t-29 97q0 78 65.5 129.5t172.5 51.5t172 -51t65 -130q0 -57 -29 -97t-86 -60q71 -19 107 -63.5t36 -112.5q0 -94 -72.5 -153.5t-193.5 -59.5zM341 620q-58 0 -93 -29t-35 -73q0 -45 34 -72
t94 -27q59 0 93 27t34 72t-34.5 73.5t-92.5 28.5zM190 209q0 -55 41 -90.5t109 -35.5t109 35t41 91q0 54 -40 87t-110 33t-110 -33t-40 -87z" />
    <glyph glyph-name="nine.tab" unicode="&#xff19;" horiz-adv-x="680" 
d="M307 233q-105 0 -168 64t-63 172q0 103 73.5 174.5t180.5 71.5q132 0 203 -87.5t71 -251.5q0 -183 -74 -285.5t-201 -102.5q-100 0 -163 51t-77 146l112 25q8 -60 40.5 -92t85.5 -32q74 0 115 68.5t46 194.5q-23 -55 -72 -85.5t-109 -30.5zM333 328q64 0 105 41.5
t41 103.5q0 63 -40 104t-104 41t-104 -41t-40 -106q0 -68 37.5 -105.5t104.5 -37.5z" />
    <glyph glyph-name="glyph1" horiz-adv-x="0" 
 />
    <glyph glyph-name="Cardano" horiz-adv-x="840" 
d="M57 352q0 150 106.5 256.5t256.5 106.5t257 -106.5t107 -256.5t-107 -257t-257 -107t-256.5 107t-106.5 257zM243 224l-26 -70h76l25 70h206l25 -70h74l-26 70h44v58h-66l-22 58h58v58h-80l-64 171h-94l-64 -171h-79v-58h57l-22 -58h-65v-58h43zM422 508l39 -110h-79z
M361 340h121l21 -58h-163z" />
    <glyph glyph-name="Dogecoin" horiz-adv-x="840" 
d="M57 352q0 150 106.5 256.5t256.5 106.5t257 -106.5t107 -256.5t-107 -257t-257 -107t-256.5 107t-106.5 257zM420 144q98 0 160 57.5t62 154.5q0 93 -62 148t-160 55h-157v-173h-60v-60h60v-182h157zM338 326h99v60h-99v104h70q73 0 117 -36t44 -98q0 -67 -44 -105
t-117 -38h-70v113z" />
    <glyph glyph-name="Ethereum" horiz-adv-x="840" 
d="M57 352q0 150 106.5 256.5t256.5 106.5t257 -106.5t107 -256.5t-107 -257t-257 -107t-256.5 107t-106.5 257zM574 490v69h-307v-69h307zM541 321v66h-241v-66h241zM574 144v69h-307v-69h307z" />
    <glyph glyph-name="Lgeminada" horiz-adv-x="1144" 
d="M554 0h-468v703h119v-596h349v-107zM508 362q0 -32 -22 -54t-54 -22t-54 22.5t-22 53.5q0 32 22 53.5t54 21.5q33 0 54.5 -21.5t21.5 -53.5zM1129 0h-468v703h119v-596h349v-107z" />
    <glyph glyph-name="Litecoin" horiz-adv-x="840" 
d="M57 352q0 150 106.5 256.5t256.5 106.5t257 -106.5t107 -256.5t-107 -257t-257 -107t-256.5 107t-106.5 257zM585 144l14 69h-255l26 119l103 52l14 74l-101 -51l33 152h-75l-42 -194l-80 -40l-14 -74l78 39l-31 -146h330z" />
    <glyph glyph-name="lgeminada" horiz-adv-x="637" 
d="M188 0h-114v725h114v-725zM394 362q0 -32 -22 -54t-54 -22t-54 22.5t-22 53.5q0 32 22 53.5t54 21.5q33 0 54.5 -21.5t21.5 -53.5zM562 0h-114v725h114v-725z" />
    <glyph glyph-name="base_b" horiz-adv-x="442" 
d="M220 521q104 0 171.5 -75t67.5 -190t-69 -191.5t-174 -76.5q-100 0 -160.5 74.5t-60.5 192.5v2q1 116 62.5 190t162.5 74zM341 255q0 71 -44 119t-110 48q-65 0 -109 -48t-44 -119t44 -119.5t109 -48.5q66 0 110 48.5t44 119.5z" />
    <glyph glyph-name="onetab.denominator" horiz-adv-x="338" 
d="M327 0h-284v81h96v191q-20 -31 -48.5 -50.5t-56.5 -22.5l-5 105q47 10 74.5 30t47.5 53h81v-306h95v-81z" />
    <glyph glyph-name="caron.salt" horiz-adv-x="197" 
d="M106 737q30 0 47.5 -19.5t17.5 -50.5q0 -47 -21.5 -80t-83.5 -69l-29 41q41 27 49.5 37t13.5 21q-25 2 -41 18.5t-16 39.5q0 27 17.5 44.5t45.5 17.5z" />
    <glyph glyph-name="commaaccent.salt" horiz-adv-x="198" 
d="M93 569q-30 0 -47.5 19.5t-17.5 50.5q0 47 21.5 80t83.5 69l29 -41q-41 -27 -49.5 -37t-13.5 -21q25 -2 41 -18.5t16 -39.5q0 -27 -17.5 -44.5t-45.5 -17.5z" />
    <glyph glyph-name="acute.case" horiz-adv-x="301" 
d="M144 765h-94l81 145h109z" />
    <glyph glyph-name="grave.case" horiz-adv-x="301" 
d="M153 910l79 -145h-96l-91 145h108z" />
    <glyph glyph-name="hungarumlaut.case" horiz-adv-x="358" 
d="M132 765h-85l71 145h102zM289 765h-87l75 145h102z" />
    <glyph glyph-name="circumflex.case" horiz-adv-x="380" 
d="M47 765l99 145h117l99 -145h-87l-71 87l-72 -87h-85z" />
    <glyph glyph-name="caron.case" horiz-adv-x="326" 
d="M333 910l-99 -145h-117l-99 145h87l71 -87l73 87h84z" />
    <glyph glyph-name="breve.case" horiz-adv-x="370" 
d="M193 763q-68 0 -109 42t-41 105h83q0 -36 18 -56.5t50 -20.5t49.5 21t17.5 56h82q0 -63 -41 -105t-109 -42z" />
    <glyph glyph-name="tilde.case" horiz-adv-x="388" 
d="M226 862q16 -13 23 -16.5t14 -3.5q13 0 20 11.5t10 38.5h74q-4 -66 -27.5 -98t-68.5 -32q-20 0 -36.5 7t-38.5 28q-15 14 -23 18t-17 4q-17 0 -26 -13t-12 -42h-76q2 65 29.5 99t77.5 34q19 0 36 -7t41 -28z" />
    <glyph glyph-name="macron.case" horiz-adv-x="376" 
d="M325 799h-280v79h280v-79z" />
    <glyph glyph-name="dieresis.case" horiz-adv-x="353" 
d="M155 838q0 -26 -18 -43.5t-44 -17.5q-27 0 -45 17.5t-18 43.5t18.5 44.5t44.5 18.5t44 -18.5t18 -44.5zM334 838q0 -26 -17.5 -43.5t-44.5 -17.5t-44.5 17.5t-17.5 43.5t18 44.5t44 18.5t44 -18.5t18 -44.5z" />
    <glyph glyph-name="dotaccent.case" horiz-adv-x="277" 
d="M186 841q0 -28 -20 -48t-49 -20q-30 0 -50 19.5t-20 48.5q0 30 20 49.5t50 19.5q29 0 49 -20t20 -49z" />
    <glyph glyph-name="ring.case" horiz-adv-x="330" 
d="M262 862q0 -43 -32 -71t-81 -28t-81 27.5t-32 71.5q0 43 32 70.5t81 27.5q48 0 80.5 -28t32.5 -70zM149 906q-21 0 -34 -12.5t-13 -31.5q0 -20 13 -32.5t34 -12.5q22 0 34.5 12.5t12.5 32.5t-12.5 32t-34.5 12z" />
    <glyph glyph-name="a.alt" horiz-adv-x="649" 
d="M278 -12q-104 0 -171.5 75.5t-67.5 189.5q0 116 68.5 192t173.5 76q58 0 103.5 -25.5t76.5 -74.5v88h114v-509h-114v91q-31 -50 -78 -76.5t-105 -26.5zM156 254q0 -70 44.5 -118.5t110.5 -48.5q65 0 109 48t44 119t-44 119.5t-109 48.5q-66 0 -110.5 -48.5t-44.5 -119.5z
" />
    <glyph glyph-name="agrave.alt" horiz-adv-x="649" 
d="M278 -12q-104 0 -171.5 75.5t-67.5 189.5q0 116 68.5 192t173.5 76q58 0 103.5 -25.5t76.5 -74.5v88h114v-509h-114v91q-31 -50 -78 -76.5t-105 -26.5zM156 254q0 -70 44.5 -118.5t110.5 -48.5q65 0 109 48t44 119t-44 119.5t-109 48.5q-66 0 -110.5 -48.5t-44.5 -119.5z
M281 738l79 -146h-96l-91 146h108z" />
    <glyph glyph-name="aacute.alt" horiz-adv-x="649" 
d="M278 -12q-104 0 -171.5 75.5t-67.5 189.5q0 116 68.5 192t173.5 76q58 0 103.5 -25.5t76.5 -74.5v88h114v-509h-114v91q-31 -50 -78 -76.5t-105 -26.5zM156 254q0 -70 44.5 -118.5t110.5 -48.5q65 0 109 48t44 119t-44 119.5t-109 48.5q-66 0 -110.5 -48.5t-44.5 -119.5z
M365 592h-94l81 146h109z" />
    <glyph glyph-name="acircumflex.alt" horiz-adv-x="649" 
d="M278 -12q-104 0 -171.5 75.5t-67.5 189.5q0 116 68.5 192t173.5 76q58 0 103.5 -25.5t76.5 -74.5v88h114v-509h-114v91q-31 -50 -78 -76.5t-105 -26.5zM156 254q0 -70 44.5 -118.5t110.5 -48.5q65 0 109 48t44 119t-44 119.5t-109 48.5q-66 0 -110.5 -48.5t-44.5 -119.5z
M166 592l99 146h117l99 -146h-87l-71 88l-72 -88h-85z" />
    <glyph glyph-name="atilde.alt" horiz-adv-x="649" 
d="M278 -12q-104 0 -171.5 75.5t-67.5 189.5q0 116 68.5 192t173.5 76q58 0 103.5 -25.5t76.5 -74.5v88h114v-509h-114v91q-31 -50 -78 -76.5t-105 -26.5zM156 254q0 -70 44.5 -118.5t110.5 -48.5q65 0 109 48t44 119t-44 119.5t-109 48.5q-66 0 -110.5 -48.5t-44.5 -119.5z
M336 690q16 -13 23 -16.5t14 -3.5q13 0 20 11.5t10 38.5h74q-4 -66 -27.5 -98t-68.5 -32q-20 0 -36.5 7t-38.5 28q-15 14 -23 18t-17 4q-17 0 -26 -13.5t-12 -42.5h-76q2 66 29.5 100t77.5 34q19 0 36 -7t41 -28z" />
    <glyph glyph-name="adieresis.alt" horiz-adv-x="649" 
d="M278 -12q-104 0 -171.5 75.5t-67.5 189.5q0 116 68.5 192t173.5 76q58 0 103.5 -25.5t76.5 -74.5v88h114v-509h-114v91q-31 -50 -78 -76.5t-105 -26.5zM156 254q0 -70 44.5 -118.5t110.5 -48.5q65 0 109 48t44 119t-44 119.5t-109 48.5q-66 0 -110.5 -48.5t-44.5 -119.5z
M292 670q0 -25 -18.5 -43.5t-45.5 -18.5q-26 0 -44.5 18.5t-18.5 43.5q0 27 18 45t45 18t45.5 -18t18.5 -45zM471 670q0 -25 -18.5 -43.5t-45.5 -18.5q-26 0 -44.5 18.5t-18.5 43.5q0 27 18 45t45 18t45.5 -18t18.5 -45z" />
    <glyph glyph-name="aring.alt" horiz-adv-x="649" 
d="M278 -12q-104 0 -171.5 75.5t-67.5 189.5q0 116 68.5 192t173.5 76q58 0 103.5 -25.5t76.5 -74.5v88h114v-509h-114v91q-31 -50 -78 -76.5t-105 -26.5zM156 254q0 -70 44.5 -118.5t110.5 -48.5q65 0 109 48t44 119t-44 119.5t-109 48.5q-66 0 -110.5 -48.5t-44.5 -119.5z
M427 682q0 -45 -32.5 -74t-80.5 -29q-49 0 -81 29t-32 74q0 44 32 73t81 29q48 0 80.5 -29t32.5 -73zM314 728q-20 0 -33.5 -13.5t-13.5 -32.5q0 -20 13.5 -33.5t33.5 -13.5q21 0 34 13.5t13 33.5t-13 33t-34 13z" />
    <glyph glyph-name="amacron.alt" horiz-adv-x="649" 
d="M278 -12q-104 0 -171.5 75.5t-67.5 189.5q0 116 68.5 192t173.5 76q58 0 103.5 -25.5t76.5 -74.5v88h114v-509h-114v91q-31 -50 -78 -76.5t-105 -26.5zM156 254q0 -70 44.5 -118.5t110.5 -48.5q65 0 109 48t44 119t-44 119.5t-109 48.5q-66 0 -110.5 -48.5t-44.5 -119.5z
M451 631h-280v79h280v-79z" />
    <glyph glyph-name="abreve.alt" horiz-adv-x="649" 
d="M278 -12q-104 0 -171.5 75.5t-67.5 189.5q0 116 68.5 192t173.5 76q58 0 103.5 -25.5t76.5 -74.5v88h114v-509h-114v91q-31 -50 -78 -76.5t-105 -26.5zM156 254q0 -70 44.5 -118.5t110.5 -48.5q65 0 109 48t44 119t-44 119.5t-109 48.5q-66 0 -110.5 -48.5t-44.5 -119.5z
M313 591q-68 0 -109 41.5t-41 105.5h83q0 -36 18 -57t50 -21t49.5 21t17.5 57h82q0 -64 -41 -105.5t-109 -41.5z" />
    <glyph glyph-name="aogonek.alt" horiz-adv-x="649" 
d="M278 -12q-104 0 -171.5 75.5t-67.5 189.5q0 116 68.5 192t173.5 76q58 0 103.5 -25.5t76.5 -74.5v88h114v-509h-39q-42 -44 -61.5 -76t-19.5 -59q0 -20 10.5 -31t30.5 -11q11 0 21.5 2t18.5 6l24 -71q-19 -11 -38.5 -16.5t-42.5 -5.5q-48 0 -78.5 27.5t-30.5 71.5
q0 40 18.5 75t72.5 90v89q-31 -50 -78 -76.5t-105 -26.5zM156 254q0 -70 44.5 -118.5t110.5 -48.5q65 0 109 48t44 119t-44 119.5t-109 48.5q-66 0 -110.5 -48.5t-44.5 -119.5z" />
    <glyph glyph-name="ordfeminine.alt" horiz-adv-x="397" 
d="M163 412q-55 0 -90 42t-35 106q0 65 36 107.5t91 42.5q27 0 49.5 -12t37.5 -34v39h84v-284h-84v40q-15 -23 -38 -35t-51 -12zM128 562q0 -34 17.5 -56.5t43.5 -22.5q28 0 46.5 22.5t18.5 56.5q0 33 -18.5 55.5t-46.5 22.5q-26 0 -43.5 -22.5t-17.5 -55.5z" />
    <glyph glyph-name="oslash.alt" horiz-adv-x="620" 
d="M39 255q0 113 77 189.5t194 76.5q33 0 64.5 -7t59.5 -20l37 47h112l-76 -99q36 -37 55 -85t19 -102q0 -113 -77.5 -190t-193.5 -77q-34 0 -65 7t-60 21l-36 -48h-112l76 100q-36 37 -55 85t-19 102zM468 255q0 72 -45 120.5t-113 48.5q-67 0 -112.5 -48.5t-45.5 -120.5
t45.5 -121t112.5 -49q68 0 113 49t45 121z" />
    <glyph glyph-name="uni2B2D.alt" horiz-adv-x="1138" 
d="M905 69q-68 -40 -153 -60.5t-183 -20.5t-183.5 21t-153.5 61q-85 50 -131 123t-46 158t46 158.5t131 123.5q68 40 153.5 61t183.5 21t183.5 -20.5t152.5 -60.5q85 -50 131 -124t46 -159t-46 -158.5t-131 -123.5zM122 351q0 -132 125 -216.5t327 -84.5q198 0 319.5 84.5
t121.5 216.5q0 134 -121 218t-320 84q-203 0 -327.5 -84.5t-124.5 -217.5zM496 246h-51v211h84l38 -152l39 152h79v-211h-54v144l-36 -143h-63l-36 147v-148zM416 246h-163v211h162v-47h-107v-34h100v-46h-100v-36h108v-48zM825 246h-55v162h-61v49h176v-49h-60v-162z" />
    </font>
</defs>
</svg>
