<!DOCTYPE svg PUBLIC "-//W3C//DTD SVG 1.1//EN" "http://www.w3.org/Graphics/SVG/1.1/DTD/svg11.dtd">
<!-- Uploaded to: SVG Repo, www.svgrepo.com, Transformed by: SVG Repo Mixer Tools -->
<svg fill="#ffd5c2" height="76px" width="76px" version="1.1" id="Capa_1" xmlns="http://www.w3.org/2000/svg" xmlns:xlink="http://www.w3.org/1999/xlink" viewBox="0 0 511 511" xml:space="preserve">
<g id="SVGRepo_bgCarrier" stroke-width="0"/>
<g id="SVGRepo_tracerCarrier" stroke-linecap="round" stroke-linejoin="round"/>
<g id="SVGRepo_iconCarrier"> <g> <path d="M442.196,149.374c-16.243-16.162-38.538-28.959-64.473-37.008c-37.724-11.708-82.435-16.074-114.512-16.349 c0.426-8.343,1.686-21.686,5.318-36.321c5.143-20.722,13.466-36.868,24.069-46.695c3.038-2.816,3.218-7.562,0.403-10.599 c-2.815-3.038-7.56-3.218-10.599-0.403c-28.025,25.974-33.238,74.718-34.191,94.016c-32.111,0.241-77.044,4.593-114.934,16.352 c-25.936,8.049-48.23,20.847-64.473,37.008C49.96,168.124,40,190.99,40,215.5v8c0,14.811,10.278,27.26,24.074,30.607 c1.226,59.689,19.073,114.991,51.812,160.303c33.807,46.791,81.366,80.089,137.535,96.295C254.1,510.902,254.8,511,255.5,511 c0.7,0,1.4-0.098,2.079-0.294c56.169-16.207,103.729-49.505,137.535-96.295c32.739-45.313,50.585-100.614,51.812-160.303 C460.722,250.76,471,238.311,471,223.5v-8C471,190.99,461.04,168.124,442.196,149.374z M255.5,495.684 C150.466,464.415,81.947,370.634,79.103,255h25c0.68,27.677,5.117,54.488,13.238,79.798c1.021,3.183,3.968,5.211,7.14,5.211 c0.759,0,1.532-0.116,2.293-0.361c3.944-1.266,6.115-5.489,4.85-9.433c-7.647-23.832-11.841-49.101-12.516-75.215H391.89 c-0.333,12.725-1.5,25.353-3.506,37.634c-0.668,4.088,2.105,7.943,6.193,8.611c0.41,0.067,0.816,0.1,1.218,0.1 c3.61,0,6.792-2.614,7.393-6.292c2.136-13.076,3.371-26.517,3.708-40.052h25.001C429.053,370.634,360.534,464.415,255.5,495.684z M456,223.5c0,9.098-7.402,16.5-16.5,16.5h-368c-9.098,0-16.5-7.402-16.5-16.5v-8c0-20.723,8.204-39.394,24.384-55.492 c14.534-14.461,34.707-25.981,58.339-33.315C175.123,115.085,219.857,111,250.962,111c1.513,0,2.994,0.01,4.44,0.028 c0.028,0,0.056,0,0.084,0c0.005,0,0.01,0.001,0.015,0.001s0.01-0.001,0.015-0.001c0.028,0,0.056,0,0.084,0 c31.176-0.404,78.459,3.492,117.679,15.664c23.632,7.334,43.806,18.854,58.339,33.315C447.796,176.106,456,194.777,456,215.5V223.5 z"/> <path d="M390.942,317.533c-3.983-1.142-8.135,1.16-9.277,5.142c-13.324,46.458-38.435,85.198-72.617,112.031 c-3.258,2.558-3.826,7.272-1.268,10.531c1.479,1.885,3.681,2.869,5.904,2.869c1.621,0,3.253-0.523,4.626-1.601 c36.68-28.794,63.574-70.184,77.773-119.694C397.226,322.829,394.924,318.675,390.942,317.533z"/> <path d="M257.767,464.35c-33.073-10.488-62.839-31.026-86.08-59.392c-2.625-3.204-7.35-3.673-10.555-1.048 c-3.204,2.625-3.673,7.351-1.048,10.555c25.087,30.62,57.297,52.815,93.148,64.185c0.754,0.239,1.518,0.353,2.269,0.353 c3.181,0,6.134-2.041,7.147-5.234C263.901,469.819,261.715,465.603,257.767,464.35z"/> <path d="M143.461,360.171c-1.778-3.741-6.251-5.333-9.993-3.554c-3.741,1.778-5.333,6.252-3.555,9.994 c3.917,8.241,8.299,16.273,13.027,23.874c1.421,2.284,3.87,3.54,6.376,3.54c1.352,0,2.721-0.366,3.954-1.133 c3.518-2.188,4.595-6.812,2.408-10.329C151.247,375.438,147.137,367.905,143.461,360.171z"/> <path d="M95.5,200c-4.142,0-7.5,3.358-7.5,7.5v8c0,4.142,3.358,7.5,7.5,7.5s7.5-3.358,7.5-7.5v-8C103,203.358,99.642,200,95.5,200z "/> <path d="M127.5,200c-4.142,0-7.5,3.358-7.5,7.5v8c0,4.142,3.358,7.5,7.5,7.5c4.142,0,7.5-3.358,7.5-7.5v-8 C135,203.358,131.642,200,127.5,200z"/> <path d="M159.5,200c-4.142,0-7.5,3.358-7.5,7.5v8c0,4.142,3.358,7.5,7.5,7.5s7.5-3.358,7.5-7.5v-8 C167,203.358,163.642,200,159.5,200z"/> <path d="M191.5,200c-4.142,0-7.5,3.358-7.5,7.5v8c0,4.142,3.358,7.5,7.5,7.5s7.5-3.358,7.5-7.5v-8 C199,203.358,195.642,200,191.5,200z"/> <path d="M223.5,200c-4.142,0-7.5,3.358-7.5,7.5v8c0,4.142,3.358,7.5,7.5,7.5s7.5-3.358,7.5-7.5v-8 C231,203.358,227.642,200,223.5,200z"/> <path d="M255.5,200c-4.142,0-7.5,3.358-7.5,7.5v8c0,4.142,3.358,7.5,7.5,7.5c4.142,0,7.5-3.358,7.5-7.5v-8 C263,203.358,259.642,200,255.5,200z"/> <path d="M287.5,200c-4.142,0-7.5,3.358-7.5,7.5v8c0,4.142,3.358,7.5,7.5,7.5s7.5-3.358,7.5-7.5v-8 C295,203.358,291.642,200,287.5,200z"/> <path d="M319.5,200c-4.142,0-7.5,3.358-7.5,7.5v8c0,4.142,3.358,7.5,7.5,7.5s7.5-3.358,7.5-7.5v-8 C327,203.358,323.642,200,319.5,200z"/> <path d="M351.5,200c-4.142,0-7.5,3.358-7.5,7.5v8c0,4.142,3.358,7.5,7.5,7.5s7.5-3.358,7.5-7.5v-8 C359,203.358,355.642,200,351.5,200z"/> <path d="M383.5,200c-4.142,0-7.5,3.358-7.5,7.5v8c0,4.142,3.358,7.5,7.5,7.5s7.5-3.358,7.5-7.5v-8 C391,203.358,387.642,200,383.5,200z"/> <path d="M415.5,200c-4.142,0-7.5,3.358-7.5,7.5v8c0,4.142,3.358,7.5,7.5,7.5s7.5-3.358,7.5-7.5v-8 C423,203.358,419.642,200,415.5,200z"/> <path d="M159.5,136c-4.142,0-7.5,3.358-7.5,7.5v8c0,4.142,3.358,7.5,7.5,7.5s7.5-3.358,7.5-7.5v-8 C167,139.358,163.642,136,159.5,136z"/> <path d="M191.5,136c-4.142,0-7.5,3.358-7.5,7.5v8c0,4.142,3.358,7.5,7.5,7.5s7.5-3.358,7.5-7.5v-8 C199,139.358,195.642,136,191.5,136z"/> <path d="M223.5,136c-4.142,0-7.5,3.358-7.5,7.5v8c0,4.142,3.358,7.5,7.5,7.5s7.5-3.358,7.5-7.5v-8 C231,139.358,227.642,136,223.5,136z"/> <path d="M255.5,136c-4.142,0-7.5,3.358-7.5,7.5v8c0,4.142,3.358,7.5,7.5,7.5c4.142,0,7.5-3.358,7.5-7.5v-8 C263,139.358,259.642,136,255.5,136z"/> <path d="M287.5,136c-4.142,0-7.5,3.358-7.5,7.5v8c0,4.142,3.358,7.5,7.5,7.5s7.5-3.358,7.5-7.5v-8 C295,139.358,291.642,136,287.5,136z"/> <path d="M319.5,136c-4.142,0-7.5,3.358-7.5,7.5v8c0,4.142,3.358,7.5,7.5,7.5s7.5-3.358,7.5-7.5v-8 C327,139.358,323.642,136,319.5,136z"/> <path d="M351.5,136c-4.142,0-7.5,3.358-7.5,7.5v8c0,4.142,3.358,7.5,7.5,7.5s7.5-3.358,7.5-7.5v-8 C359,139.358,355.642,136,351.5,136z"/> <path d="M111.5,168c-4.142,0-7.5,3.358-7.5,7.5v8c0,4.142,3.358,7.5,7.5,7.5s7.5-3.358,7.5-7.5v-8 C119,171.358,115.642,168,111.5,168z"/> <path d="M143.5,168c-4.142,0-7.5,3.358-7.5,7.5v8c0,4.142,3.358,7.5,7.5,7.5s7.5-3.358,7.5-7.5v-8 C151,171.358,147.642,168,143.5,168z"/> <path d="M175.5,168c-4.142,0-7.5,3.358-7.5,7.5v8c0,4.142,3.358,7.5,7.5,7.5s7.5-3.358,7.5-7.5v-8 C183,171.358,179.642,168,175.5,168z"/> <path d="M207.5,168c-4.142,0-7.5,3.358-7.5,7.5v8c0,4.142,3.358,7.5,7.5,7.5s7.5-3.358,7.5-7.5v-8 C215,171.358,211.642,168,207.5,168z"/> <path d="M239.5,168c-4.142,0-7.5,3.358-7.5,7.5v8c0,4.142,3.358,7.5,7.5,7.5s7.5-3.358,7.5-7.5v-8 C247,171.358,243.642,168,239.5,168z"/> <path d="M271.5,168c-4.142,0-7.5,3.358-7.5,7.5v8c0,4.142,3.358,7.5,7.5,7.5s7.5-3.358,7.5-7.5v-8 C279,171.358,275.642,168,271.5,168z"/> <path d="M303.5,168c-4.142,0-7.5,3.358-7.5,7.5v8c0,4.142,3.358,7.5,7.5,7.5s7.5-3.358,7.5-7.5v-8 C311,171.358,307.642,168,303.5,168z"/> <path d="M335.5,168c-4.142,0-7.5,3.358-7.5,7.5v8c0,4.142,3.358,7.5,7.5,7.5s7.5-3.358,7.5-7.5v-8 C343,171.358,339.642,168,335.5,168z"/> <path d="M367.5,168c-4.142,0-7.5,3.358-7.5,7.5v8c0,4.142,3.358,7.5,7.5,7.5s7.5-3.358,7.5-7.5v-8 C375,171.358,371.642,168,367.5,168z"/> <path d="M399.5,168c-4.142,0-7.5,3.358-7.5,7.5v8c0,4.142,3.358,7.5,7.5,7.5s7.5-3.358,7.5-7.5v-8 C407,171.358,403.642,168,399.5,168z"/> </g> </g>
</svg>